<?xml version="1.0" standalone="no"?>
<!DOCTYPE svg PUBLIC "-//W3C//DTD SVG 1.1//EN" "http://www.w3.org/Graphics/SVG/1.1/DTD/svg11.dtd" >
<svg xmlns="http://www.w3.org/2000/svg" width="100%" height="100%">
<metadata>
Created by FontXChange 20110222 at Mon Jun 16 16:05:36 2014
 By Sosolimited
Copyright (c) 2004-9 by Kris Sowersby. All rights reserved.
</metadata>
<defs>
<font id="National-Light" horiz-adv-x="487" >
  <font-face 
    font-family="National"
    font-weight="460"
    font-stretch="normal"
    units-per-em="1000"
    panose-1="0 0 0 0 0 0 0 0 0 0"
    ascent="800"
    descent="-200"
    x-height="462"
    cap-height="589"
    bbox="-91 -257 1184 927"
    underline-thickness="50"
    underline-position="-50"
    stemh="44"
    stemv="51"
    unicode-range="U+0020-F778"
  />
<missing-glyph horiz-adv-x="755" 
d="M83 0v589h589v-589h-589zM377 264l-221 -221h443zM156 546l221 -222l222 222h-443zM407 294l222 -221v443zM347 294l-221 222v-443z" />
    <glyph glyph-name="ff" unicode="ff" horiz-adv-x="501" 
d="M333 420h-193v-420h-51v420h-67v42h67v58c0 105 58 146 131 146c36 0 59 -8 82 -22l-14 -44c-23 16 -43 22 -70 22c-49 0 -78 -33 -78 -101v-59h193v65c0 106 60 148 135 148c34 0 64 -8 87 -22l-13 -44c-23 15 -45 22 -73 22c-54 0 -85 -32 -85 -107v-62h118v-42h-118
v-420h-51v420z" />
    <glyph glyph-name="fi" unicode="fi" horiz-adv-x="461" 
d="M89 420h-67v42h67v52c0 119 73 161 148 161c42 0 81 -12 111 -33l-19 -42c-23 17 -52 31 -92 31c-58 0 -97 -32 -97 -120v-49h244v-462h-51v420h-193v-420h-51v420z" />
    <glyph glyph-name="fl" unicode="fl" horiz-adv-x="486" 
d="M372 668h12v-579c0 -37 18 -50 43 -50c13 0 21 2 30 5v-44c-16 -4 -27 -5 -40 -5c-51 0 -84 29 -84 87v525c-25 15 -56 26 -92 26c-57 0 -101 -32 -101 -117v-54h108v-42h-108v-420h-51v420h-67v42h67v56c0 116 76 157 151 157c42 0 76 -11 101 -25z" />
    <glyph glyph-name="ffi" unicode="ffi" horiz-adv-x="705" 
d="M333 462v52c0 119 73 161 148 161c42 0 81 -9 112 -31l-20 -42c-23 16 -52 30 -92 30c-58 0 -97 -33 -97 -121v-49h244v-462h-51v420h-193v-420h-51v420h-193v-420h-51v420h-67v42h67v58c0 105 58 146 131 146c36 0 59 -8 82 -22l-14 -44c-23 16 -43 22 -70 22
c-49 0 -78 -33 -78 -101v-59h193z" />
    <glyph glyph-name="ffl" unicode="ffl" horiz-adv-x="730" 
d="M616 668h12v-579c0 -37 18 -50 43 -50c13 0 21 2 31 5v-44c-17 -4 -28 -5 -41 -5c-51 0 -84 29 -84 87v525c-25 15 -56 26 -92 26c-57 0 -101 -32 -101 -117v-54h108v-42h-108v-420h-51v420h-193v-420h-51v420h-67v42h67v58c0 105 58 146 131 146c36 0 59 -8 82 -22
l-14 -44c-23 16 -43 22 -70 22c-49 0 -78 -33 -78 -101v-59h193v56c0 116 76 157 151 157c42 0 77 -11 101 -25z" />
    <glyph glyph-name="f_b" unicode="fb" horiz-adv-x="769" 
d="M366 0h-33v607c-25 15 -56 26 -92 26c-57 0 -101 -32 -101 -117v-54h108v-42h-108v-420h-51v420h-67v42h67v56c0 116 76 157 151 157c42 0 76 -11 101 -25l31 18h12v-308c19 72 82 111 155 111c112 0 185 -79 185 -231c0 -149 -75 -249 -197 -249c-83 0 -131 43 -148 94z
M384 267v-86c0 -105 70 -150 136 -150c85 0 152 64 152 205c0 129 -57 191 -142 191c-78 0 -146 -53 -146 -160z" />
    <glyph glyph-name="f_f_b" unicode="ffb" horiz-adv-x="1014" 
d="M628 267v-86c0 -105 70 -150 136 -150c85 0 152 64 152 205c0 129 -57 191 -142 191c-78 0 -146 -53 -146 -160zM616 668h12v-308c20 72 82 111 155 111c112 0 185 -79 185 -231c0 -149 -75 -249 -197 -249c-83 0 -131 43 -148 94l-12 -85h-34v607c-25 15 -56 26 -92 26
c-57 0 -101 -32 -101 -117v-54h108v-42h-108v-420h-51v420h-193v-420h-51v420h-67v42h67v58c0 105 58 146 131 146c36 0 59 -8 82 -22l-14 -44c-23 16 -43 22 -70 22c-49 0 -78 -33 -78 -101v-59h193v56c0 116 76 157 151 157c42 0 77 -11 101 -25z" />
    <glyph glyph-name="f_f_h" unicode="ffh" horiz-adv-x="991" 
d="M616 668h12v-311c19 67 71 114 149 114c81 0 142 -43 142 -146v-325h-51v312c0 73 -37 114 -102 114c-74 0 -138 -51 -138 -164v-262h-51v607c-25 15 -56 26 -92 26c-57 0 -101 -32 -101 -117v-54h108v-42h-108v-420h-51v420h-193v-420h-51v420h-67v42h67v58
c0 105 58 146 131 146c36 0 59 -8 82 -22l-14 -44c-23 16 -43 22 -70 22c-49 0 -78 -33 -78 -101v-59h193v56c0 116 76 157 151 157c42 0 77 -11 101 -25z" />
    <glyph glyph-name="f_f_j" unicode="ffj" horiz-adv-x="705" 
d="M384 420v-420h-51v420h-193v-420h-51v420h-67v42h67v58c0 105 58 146 131 146c36 0 59 -8 82 -22l-14 -44c-23 16 -43 22 -70 22c-49 0 -78 -33 -78 -101v-59h193v52c0 119 73 161 148 161c42 0 81 -9 112 -31l-20 -42c-23 16 -52 30 -92 30c-58 0 -97 -33 -97 -121v-49
h244v-502c0 -121 -60 -166 -170 -163v43c79 -4 119 30 119 115v465h-193z" />
    <glyph glyph-name="f_f_k" unicode="ffk" horiz-adv-x="930" 
d="M616 668h12v-405h36l177 199h63l-196 -216l215 -246h-65l-190 221h-40v-221h-51v607c-25 15 -56 26 -92 26c-57 0 -101 -32 -101 -117v-54h108v-42h-108v-420h-51v420h-193v-420h-51v420h-67v42h67v58c0 105 58 146 131 146c36 0 59 -8 82 -22l-14 -44
c-23 16 -43 22 -70 22c-49 0 -78 -33 -78 -101v-59h193v56c0 116 76 157 151 157c42 0 77 -11 101 -25z" />
    <glyph glyph-name="f_h" unicode="fh" horiz-adv-x="747" 
d="M372 668h12v-311c18 67 71 114 149 114c81 0 142 -43 142 -146v-325h-51v312c0 73 -37 114 -102 114c-74 0 -138 -51 -138 -164v-262h-51v607c-25 15 -56 26 -92 26c-57 0 -101 -32 -101 -117v-54h108v-42h-108v-420h-51v420h-67v42h67v56c0 116 76 157 151 157
c42 0 76 -11 101 -25z" />
    <glyph glyph-name="f_j" unicode="fj" horiz-adv-x="461" 
d="M333 -45v465h-193v-420h-51v420h-67v42h67v52c0 119 73 161 148 161c42 0 81 -12 111 -33l-19 -42c-23 17 -52 31 -92 31c-58 0 -97 -32 -97 -120v-49h244v-502c0 -121 -60 -166 -170 -163v43c79 -4 119 30 119 115z" />
    <glyph glyph-name="f_k" unicode="fk" horiz-adv-x="686" 
d="M372 668h12v-405h36l177 199h63l-196 -216l215 -246h-65l-190 221h-40v-221h-51v607c-25 15 -56 26 -92 26c-57 0 -101 -32 -101 -117v-54h108v-42h-108v-420h-51v420h-67v42h67v56c0 116 76 157 151 157c42 0 76 -11 101 -25z" />
    <glyph glyph-name=".notdef" horiz-adv-x="755" 
d="M83 0v589h589v-589h-589zM377 264l-221 -221h443zM156 546l221 -222l222 222h-443zM407 294l222 -221v443zM347 294l-221 222v-443z" />
    <glyph glyph-name="space" unicode=" " horiz-adv-x="207" 
 />
    <glyph glyph-name="exclam" unicode="!" horiz-adv-x="225" 
d="M79 589h66l-15 -423h-35zM73 36c0 23 17 40 39 40c23 0 40 -17 40 -40c0 -22 -17 -39 -40 -39c-22 0 -39 17 -39 39z" />
    <glyph glyph-name="quotedbl" unicode="&#x22;" horiz-adv-x="289" 
d="M64 412v256h59l-25 -256h-34zM177 412v256h59l-26 -256h-33z" />
    <glyph glyph-name="numbersign" unicode="#" horiz-adv-x="612" 
d="M547 159h-161l-48 -159h-43l48 159h-126l-48 -159h-43l48 159h-130v41h142l32 109h-154v41h166l40 131h43l-39 -131h125l40 131h43l-39 -131h124v-41h-136l-33 -109h149v-41zM262 309l-33 -109h126l32 109h-125z" />
    <glyph glyph-name="dollar" unicode="$" horiz-adv-x="427" 
d="M201 -106v97c-95 3 -156 45 -169 128l51 8c10 -60 53 -93 118 -97v193l-29 6c-83 17 -121 60 -121 130c0 90 71 126 150 131v84h36v-85c84 -4 136 -41 147 -125l-51 -7c-8 55 -41 84 -96 91v-183l18 -3c76 -15 132 -56 132 -139s-60 -125 -150 -131v-98h-36zM337 120
c0 51 -29 78 -84 92l-16 4v-185c61 6 100 34 100 89zM101 363c0 -50 30 -77 88 -88l12 -2v176c-58 -3 -100 -31 -100 -86z" />
    <glyph glyph-name="percent" unicode="%" horiz-adv-x="818" 
d="M172 230c-89 0 -135 77 -135 183s50 183 135 183c84 0 134 -77 134 -183s-47 -183 -134 -183zM172 557c-59 0 -91 -60 -91 -145c0 -83 33 -146 91 -146c57 0 90 63 90 146c0 85 -32 145 -90 145zM227 0l324 590h41l-323 -590h-42zM647 -6c-88 0 -135 77 -135 183
s50 183 135 183s135 -77 135 -183s-48 -183 -135 -183zM647 321c-58 0 -91 -60 -91 -145c0 -83 33 -145 91 -145s91 62 91 145c0 85 -33 145 -91 145z" />
    <glyph glyph-name="ampersand" unicode="&#x26;" horiz-adv-x="530" 
d="M514 24l-36 -33l-77 80c-47 -52 -114 -80 -189 -80c-108 0 -183 50 -183 152c0 79 50 134 135 173l-24 26c-28 29 -59 68 -59 124c0 81 58 132 144 132c93 0 144 -55 144 -129c0 -76 -44 -120 -130 -162l159 -166c23 36 37 90 40 147l48 -11c-6 -61 -23 -122 -55 -168z
M79 144c0 -72 56 -112 133 -112c69 0 122 26 161 69l-180 185c-69 -32 -114 -70 -114 -142zM225 558c-58 0 -96 -34 -96 -90c0 -37 17 -65 54 -104l27 -29c71 34 110 68 110 131c0 52 -29 92 -95 92z" />
    <glyph glyph-name="quotesingle" unicode="'" horiz-adv-x="177" 
d="M64 412v256h59l-25 -256h-34z" />
    <glyph glyph-name="parenleft" unicode="(" horiz-adv-x="322" 
d="M130 233c0 -184 66 -302 176 -435h-59c-95 113 -168 245 -168 435s73 322 168 435h59c-110 -133 -176 -250 -176 -435z" />
    <glyph glyph-name="parenright" unicode=")" horiz-adv-x="322" 
d="M193 233c0 185 -66 302 -176 435h58c96 -113 168 -245 168 -435s-72 -322 -168 -435h-58c110 133 176 251 176 435z" />
    <glyph glyph-name="asterisk" unicode="*" horiz-adv-x="340" 
d="M193 589l-7 -106l97 41l14 -44l-104 -23l70 -83l-38 -26l-55 90l-55 -91l-37 28l69 82l-104 23l15 43l97 -40l-8 106h46z" />
    <glyph glyph-name="plus" unicode="+" horiz-adv-x="507" 
d="M49 265h185v180h35v-180h188v-34h-188v-194h-35v194h-185v34z" />
    <glyph glyph-name="comma" unicode="," horiz-adv-x="245" 
d="M171 11c0 -69 -41 -103 -111 -107v28c41 4 67 23 68 63c0 4 0 7 -1 9c-4 -3 -9 -5 -15 -5c-22 0 -36 16 -36 37c0 25 17 40 43 40c27 0 52 -23 52 -65z" />
    <glyph glyph-name="hyphen" unicode="-" horiz-adv-x="373" 
d="M74 244v44h224v-44h-224z" />
    <glyph glyph-name="period" unicode="." horiz-adv-x="246" 
d="M81 39c0 24 18 42 42 42s42 -18 42 -42s-18 -42 -42 -42s-42 18 -42 42z" />
    <glyph glyph-name="slash" unicode="/" horiz-adv-x="379" 
d="M14 -203l274 872h49l-275 -872h-48z" />
    <glyph glyph-name="zero" unicode="0" horiz-adv-x="567" 
d="M284 -9c-153 0 -236 111 -236 249c0 139 83 250 236 250c151 0 235 -111 235 -250c0 -138 -84 -249 -235 -249zM284 445c-120 0 -184 -89 -184 -205c0 -118 64 -205 184 -205c119 0 183 87 183 205c0 116 -64 205 -183 205z" />
    <glyph glyph-name="one" unicode="1" horiz-adv-x="322" 
d="M212 0h-51v430l-141 -32v44l192 46v-488z" />
    <glyph glyph-name="two" unicode="2" horiz-adv-x="434" 
d="M398 44v-44h-363v44c175 74 282 169 282 287c0 79 -50 116 -116 116c-62 0 -108 -36 -117 -119l-48 10c16 117 93 152 169 152c87 0 165 -45 165 -157c0 -142 -139 -247 -265 -286v-3h293z" />
    <glyph glyph-name="three" unicode="3" horiz-adv-x="435" 
d="M213 191v-4c97 -7 171 -68 171 -161c0 -103 -87 -164 -184 -164c-113 0 -181 55 -191 140l49 9c13 -74 63 -108 141 -108s134 47 134 124c0 79 -59 131 -195 138v43c121 10 180 52 180 136c0 70 -54 103 -117 103c-62 0 -108 -32 -122 -104l-48 11c15 79 73 136 172 136
c87 0 167 -44 167 -146c0 -84 -62 -144 -157 -153z" />
    <glyph glyph-name="four" unicode="4" horiz-adv-x="490" 
d="M314 -131v185h-299v36l299 391h51v-384h98v-43h-98v-185h-51zM143 97h171v230c0 60 4 96 4 96h-3s-18 -32 -59 -88l-130 -171c-36 -47 -57 -67 -57 -67v-3s25 3 74 3z" />
    <glyph glyph-name="five" unicode="5" horiz-adv-x="434" 
d="M76 158l13 323h283v-45h-238l-11 -243c21 24 57 43 108 43c96 0 168 -63 168 -185c0 -125 -82 -190 -197 -190c-106 0 -171 58 -180 142l45 9c11 -74 65 -111 137 -111c83 0 146 47 146 148c0 93 -53 148 -134 148c-46 0 -76 -18 -100 -39h-40z" />
    <glyph glyph-name="six" unicode="6" horiz-adv-x="496" 
d="M442 483l-46 -18c-21 61 -61 90 -121 90c-100 0 -172 -93 -176 -277v-44h2c15 91 80 141 165 141c117 0 188 -80 188 -191c0 -104 -67 -193 -197 -193c-73 0 -131 32 -167 98c-24 46 -37 109 -37 189c0 218 103 320 224 320c82 0 139 -40 165 -115zM118 181
c0 -86 58 -148 142 -148c87 0 144 61 144 148c0 89 -58 150 -144 150c-85 0 -142 -61 -142 -150z" />
    <glyph glyph-name="seven" unicode="7" horiz-adv-x="436" 
d="M346 436h-274v-87h-49v132h377v-37l-226 -575h-51z" />
    <glyph glyph-name="eight" unicode="8" horiz-adv-x="482" 
d="M241 -9c-113 0 -192 59 -192 159c0 75 47 130 119 147v4c-66 19 -106 67 -106 141c0 94 72 156 179 156s179 -62 179 -156c0 -74 -40 -122 -106 -141v-4c73 -17 120 -72 120 -147c0 -100 -80 -159 -193 -159zM241 559c-80 0 -128 -46 -128 -117c0 -81 53 -121 128 -121
c76 0 128 40 128 121c0 71 -47 117 -128 117zM241 279c-81 0 -143 -43 -143 -124c0 -78 58 -125 143 -125c86 0 143 47 143 125c0 81 -62 124 -143 124z" />
    <glyph glyph-name="nine" unicode="9" horiz-adv-x="493" 
d="M33 -21l46 18c20 -61 64 -95 132 -95c127 0 180 130 183 303v44h-3c-12 -96 -79 -147 -164 -147c-118 0 -189 83 -189 191c0 104 63 197 195 197c64 0 117 -23 155 -73c34 -47 52 -117 52 -213c0 -217 -84 -342 -230 -342c-92 0 -152 42 -177 117zM375 297
c0 89 -60 151 -143 151c-88 0 -146 -62 -146 -151c0 -90 56 -153 146 -153c84 0 143 63 143 153z" />
    <glyph glyph-name="colon" unicode=":" horiz-adv-x="246" 
d="M81 39c0 24 18 42 42 42s42 -18 42 -42s-18 -42 -42 -42s-42 18 -42 42zM81 392c0 24 18 42 42 42s42 -18 42 -42s-18 -42 -42 -42s-42 18 -42 42z" />
    <glyph glyph-name="semicolon" unicode=";" horiz-adv-x="245" 
d="M76 392c0 24 18 42 43 42c24 0 42 -18 42 -42s-18 -42 -42 -42c-25 0 -43 18 -43 42zM171 11c0 -69 -41 -103 -111 -107v28c41 4 67 23 68 63c0 4 0 7 -1 9c-4 -3 -9 -5 -15 -5c-22 0 -36 16 -36 37c0 25 17 40 43 40c27 0 52 -23 52 -65z" />
    <glyph glyph-name="less" unicode="&#x3c;" horiz-adv-x="388" 
d="M324 432l-222 -185l222 -187l-22 -26l-253 213l253 212z" />
    <glyph glyph-name="equal" unicode="=" horiz-adv-x="507" 
d="M457 164h-408v34h408v-34zM457 291h-408v35h408v-35z" />
    <glyph glyph-name="greater" unicode="&#x3e;" horiz-adv-x="388" 
d="M280 247l-221 185l21 27l252 -212l-252 -213l-22 26z" />
    <glyph glyph-name="question" unicode="?" horiz-adv-x="387" 
d="M52 449l-44 16c16 76 72 133 173 133c109 0 178 -68 178 -169c0 -119 -89 -176 -179 -178v-94h-48v128h28c82 0 147 42 147 141c0 86 -53 129 -129 129c-67 0 -113 -36 -126 -106zM117 36c0 23 17 40 40 40c22 0 39 -17 39 -40c0 -22 -17 -39 -39 -39
c-23 0 -40 17 -40 39z" />
    <glyph glyph-name="at" unicode="@" horiz-adv-x="866" 
d="M546 163v81c0 87 -62 124 -121 124c-77 0 -133 -49 -133 -174c0 -109 51 -163 129 -163c60 0 124 40 125 132zM593 401v-304c0 -45 23 -67 61 -67c83 0 116 87 116 219c0 192 -136 306 -330 306s-347 -127 -347 -360c0 -256 181 -354 377 -354c64 0 126 8 184 30l10 -41
c-57 -19 -120 -30 -195 -30c-213 0 -423 99 -423 395c0 236 149 401 396 401c254 0 374 -156 374 -346c0 -159 -46 -257 -165 -257c-60 0 -102 29 -105 90c-20 -63 -72 -92 -139 -92c-91 0 -164 66 -164 202c0 139 67 215 179 215c66 0 111 -37 124 -78l16 71h31z" />
    <glyph glyph-name="A" unicode="A" horiz-adv-x="535" 
d="M469 0l-70 187h-264l-70 -187h-55l224 589h69l222 -589h-56zM217 408l-66 -176h231l-65 175c-34 90 -48 147 -48 147h-4s-14 -56 -48 -146z" />
    <glyph glyph-name="B" unicode="B" horiz-adv-x="501" 
d="M324 306v-3c70 -4 134 -50 134 -139c0 -103 -63 -164 -207 -164h-164v589h162c126 0 183 -50 183 -149c0 -79 -45 -124 -108 -134zM140 322h111c76 0 128 32 128 111c0 80 -48 111 -136 111h-103v-222zM140 278v-233h116c95 0 150 36 150 121c0 69 -47 112 -148 112h-118
z" />
    <glyph glyph-name="C" unicode="C" horiz-adv-x="552" 
d="M484 146l38 -30c-45 -84 -113 -125 -219 -125c-153 0 -255 105 -255 302s108 305 264 305c102 0 172 -45 210 -140l-47 -23c-28 78 -86 118 -166 118c-131 0 -206 -99 -206 -260c0 -159 70 -255 202 -255c86 0 140 34 179 108z" />
    <glyph glyph-name="D" unicode="D" horiz-adv-x="581" 
d="M140 45h104c143 0 234 84 234 254c0 172 -89 245 -229 245h-109v-499zM249 0h-162v589h163c166 0 283 -81 283 -288c0 -218 -131 -301 -284 -301z" />
    <glyph glyph-name="E" unicode="E" horiz-adv-x="474" 
d="M422 46v-46h-335v589h335v-46h-282v-225h251v-46h-251v-226h282z" />
    <glyph glyph-name="F" unicode="F" horiz-adv-x="436" 
d="M140 0h-53v589h321v-46h-268v-225h237v-46h-237v-272z" />
    <glyph glyph-name="G" unicode="G" horiz-adv-x="594" 
d="M315 288h212v-288h-46l-7 101c-21 -69 -92 -110 -171 -110c-153 0 -255 106 -255 302c0 197 108 305 264 305c106 0 174 -45 210 -140l-47 -23c-28 78 -86 118 -166 118c-131 0 -206 -99 -206 -260c0 -156 70 -257 202 -257c86 0 169 44 169 159v45h-159v48z" />
    <glyph glyph-name="H" unicode="H" horiz-adv-x="620" 
d="M140 0h-53v589h53v-268h340v268h52v-589h-52v274h-340v-274z" />
    <glyph glyph-name="I" unicode="I" horiz-adv-x="227" 
d="M87 589h53v-589h-53v589z" />
    <glyph glyph-name="J" unicode="J" horiz-adv-x="426" 
d="M306 589h52v-417c0 -136 -79 -181 -172 -181c-97 0 -150 52 -177 118l43 27c29 -70 69 -100 136 -100c81 0 118 47 118 149v404z" />
    <glyph glyph-name="K" unicode="K" horiz-adv-x="500" 
d="M485 0h-66l-229 274h-50v-274h-53v589h53v-268h52l215 268h63l-235 -289z" />
    <glyph glyph-name="L" unicode="L" horiz-adv-x="436" 
d="M87 589h53v-543h274v-46h-327v589z" />
    <glyph glyph-name="M" unicode="M" horiz-adv-x="703" 
d="M372 147h-41l-145 270c-36 68 -47 105 -47 105h-3s3 -37 3 -108v-414h-52v589h65l172 -327c21 -40 28 -63 28 -63h3s7 23 28 63l171 327h62v-589h-52v414c0 71 3 108 3 108h-3s-11 -37 -47 -105z" />
    <glyph glyph-name="N" unicode="N" horiz-adv-x="629" 
d="M144 589l280 -410c38 -55 66 -109 66 -109h3s-3 58 -3 124v395h52v-589h-56l-281 410c-37 53 -66 109 -66 109h-4s4 -58 4 -124v-395h-52v589h57z" />
    <glyph glyph-name="O" unicode="O" horiz-adv-x="608" 
d="M304 -9c-156 0 -256 108 -256 303s100 304 256 304s256 -109 256 -304s-100 -303 -256 -303zM304 552c-131 0 -201 -98 -201 -258s70 -257 201 -257s202 97 202 257s-71 258 -202 258z" />
    <glyph glyph-name="P" unicode="P" horiz-adv-x="475" 
d="M140 544v-268h104c105 0 146 47 146 137c0 85 -46 131 -147 131h-103zM140 0h-53v589h158c140 0 200 -64 200 -174c0 -118 -65 -183 -196 -183h-109v-232z" />
    <glyph glyph-name="Q" unicode="Q" horiz-adv-x="608" 
d="M501 -88l-14 -46c-6 -1 -16 -2 -26 -2c-105 0 -166 51 -190 129c-137 14 -223 121 -223 301c0 195 100 304 256 304s256 -109 256 -304c0 -185 -92 -295 -235 -302c29 -61 81 -83 148 -83c9 0 19 1 28 3zM304 552c-131 0 -201 -98 -201 -258s70 -258 201 -258
s202 98 202 258s-71 258 -202 258z" />
    <glyph glyph-name="R" unicode="R" horiz-adv-x="530" 
d="M494 0h-58c-14 16 -21 30 -28 59l-24 105c-17 71 -57 95 -133 95h-111v-259h-53v589h182c133 0 193 -58 193 -162c0 -93 -64 -143 -137 -147v-2c58 -6 91 -33 108 -99l28 -114c7 -27 18 -48 33 -65zM140 544v-240h128c93 0 139 41 139 120c0 78 -44 120 -139 120h-128z
" />
    <glyph glyph-name="S" unicode="S" horiz-adv-x="465" 
d="M31 148l50 10c14 -85 67 -125 147 -125c83 0 137 37 137 111c0 70 -40 100 -143 134c-88 28 -171 58 -171 165c0 115 88 156 175 156c103 0 176 -43 188 -155l-51 -8c-11 82 -59 120 -136 120c-71 0 -124 -34 -124 -109c0 -74 55 -95 150 -126c92 -30 165 -66 165 -171
c0 -107 -81 -159 -191 -159c-112 0 -180 51 -196 157z" />
    <glyph glyph-name="T" unicode="T" horiz-adv-x="465" 
d="M259 0h-53v543h-192v46h437v-46h-192v-543z" />
    <glyph glyph-name="U" unicode="U" horiz-adv-x="574" 
d="M454 589h52v-388c0 -152 -105 -210 -219 -210c-115 0 -219 58 -219 210v388h53v-377c0 -128 74 -177 166 -177s167 49 167 175v379z" />
    <glyph glyph-name="V" unicode="V" horiz-adv-x="514" 
d="M71 589l149 -430c29 -85 37 -123 37 -123h3s6 38 35 122l150 431h54l-207 -589h-71l-207 589h57z" />
    <glyph glyph-name="W" unicode="W" horiz-adv-x="789" 
d="M426 589l110 -403c24 -89 36 -152 36 -152h4s11 60 36 151l110 404h53l-165 -589h-74l-107 391c-25 90 -33 148 -33 148h-3s-8 -55 -33 -148l-107 -391h-74l-165 589h56l110 -402c25 -92 36 -153 36 -153h3s11 62 36 152l113 403h58z" />
    <glyph glyph-name="X" unicode="X" horiz-adv-x="502" 
d="M429 0l-136 200c-35 51 -41 66 -41 66h-3s-7 -15 -42 -67l-134 -199h-59l207 301l-195 288h61l122 -183c36 -55 41 -68 41 -68h3s6 14 41 67l122 184h57l-193 -283l207 -306h-58z" />
    <glyph glyph-name="Y" unicode="Y" horiz-adv-x="469" 
d="M74 589l118 -216c36 -66 46 -93 46 -93h3s9 27 44 93l114 216h55l-190 -353v-236h-52v236l-198 353h60z" />
    <glyph glyph-name="Z" unicode="Z" horiz-adv-x="465" 
d="M435 553l-290 -433c-32 -49 -52 -73 -52 -73v-3s21 2 84 2h264v-46h-413v31l290 438c33 49 52 73 52 73v3s-21 -2 -84 -2h-247v46h396v-36z" />
    <glyph glyph-name="bracketleft" unicode="[" horiz-adv-x="314" 
d="M137 629v-792h146v-40h-194v872h194v-40h-146z" />
    <glyph glyph-name="backslash" unicode="\" horiz-adv-x="379" 
d="M90 669l274 -872h-48l-274 872h48z" />
    <glyph glyph-name="bracketright" unicode="]" horiz-adv-x="314" 
d="M177 -163v792h-146v40h194v-872h-194v40h146z" />
    <glyph glyph-name="asciicircum" unicode="^" horiz-adv-x="480" 
d="M387 330l-98 189c-36 69 -47 108 -47 108h-3s-11 -39 -48 -108l-100 -189h-52l181 338h40l181 -338h-54z" />
    <glyph glyph-name="underscore" unicode="_" horiz-adv-x="454" 
d="M54 -87v43h346v-43h-346z" />
    <glyph glyph-name="grave" unicode="`" horiz-adv-x="313" 
d="M226 533h-43l-99 136h71z" />
    <glyph glyph-name="a" unicode="a" horiz-adv-x="453" 
d="M319 145v76c-16 2 -30 3 -48 3c-117 0 -180 -33 -180 -104c0 -53 34 -88 99 -88c64 0 129 40 129 113zM370 329v-233c0 -43 13 -58 37 -58c9 0 15 1 21 4v-42c-8 -2 -18 -4 -31 -4c-46 0 -72 24 -75 82c-22 -60 -80 -87 -142 -87c-85 0 -140 46 -140 124
c0 94 72 147 221 147c18 0 37 0 58 -3v64c0 79 -45 105 -108 105c-59 0 -102 -25 -108 -93l-47 7c7 98 84 129 160 129c84 0 154 -35 154 -142z" />
    <glyph glyph-name="b" unicode="b" horiz-adv-x="513" 
d="M127 267v-86c0 -105 70 -150 136 -150c85 0 152 64 152 205c0 129 -57 191 -142 191c-78 0 -146 -53 -146 -160zM122 85l-12 -85h-34v668h51v-308c20 72 82 111 155 111c112 0 185 -79 185 -231c0 -149 -75 -249 -197 -249c-83 0 -131 43 -148 94z" />
    <glyph glyph-name="c" unicode="c" horiz-adv-x="447" 
d="M368 128l43 -9c-16 -92 -84 -128 -173 -128c-116 0 -192 81 -192 238c0 154 75 242 198 242c98 0 154 -50 162 -147l-47 -7c-9 72 -47 110 -118 110c-95 0 -146 -77 -146 -199c0 -120 56 -195 147 -195c69 0 110 32 126 95z" />
    <glyph glyph-name="d" unicode="d" horiz-adv-x="513" 
d="M386 188v94c0 103 -73 147 -138 147c-86 0 -151 -58 -151 -204c0 -128 59 -192 146 -192c68 0 142 48 143 155zM386 379v289h51v-668h-44l-7 97c-23 -72 -83 -106 -156 -106c-101 0 -184 77 -184 233c0 160 75 247 201 247c72 0 125 -43 139 -92z" />
    <glyph glyph-name="e" unicode="e" horiz-adv-x="458" 
d="M245 32c66 0 105 27 122 91l45 -10c-17 -88 -83 -122 -171 -122c-119 0 -195 81 -195 239c0 153 76 241 198 241c112 0 169 -78 169 -184c0 -23 -3 -44 -6 -59h-312c0 -124 56 -196 150 -196zM97 270h265c1 9 1 17 1 27c0 74 -43 132 -122 132c-86 0 -135 -59 -144 -159z
" />
    <glyph glyph-name="f" unicode="f" horiz-adv-x="257" 
d="M89 420h-67v42h67v65c0 106 60 148 135 148c34 0 64 -8 87 -22l-14 -44c-22 15 -44 24 -72 24c-54 0 -85 -32 -85 -107v-64h118v-42h-118v-420h-51v420z" />
    <glyph glyph-name="g" unicode="g" horiz-adv-x="460" 
d="M222 471c57 0 103 -18 134 -51c24 13 38 41 41 82l46 -15c-5 -52 -32 -80 -67 -93c13 -23 20 -51 20 -84c0 -102 -75 -158 -173 -158c-26 0 -50 4 -67 10c-26 -12 -39 -30 -39 -54c0 -32 23 -48 67 -48h105c90 0 152 -36 152 -123c0 -116 -123 -148 -232 -148
c-100 0 -197 29 -197 128c0 69 51 112 123 116c-40 3 -63 30 -63 67c0 34 20 60 58 72c-50 25 -81 73 -81 138c0 100 69 161 173 161zM61 -79c0 -68 67 -93 152 -93c94 0 179 25 179 104c0 51 -33 82 -104 82h-98c-76 0 -129 -27 -129 -93zM99 311c0 -73 47 -120 123 -120
c74 0 123 43 123 120s-49 120 -123 120c-76 -1 -123 -45 -123 -120z" />
    <glyph glyph-name="h" unicode="h" horiz-adv-x="490" 
d="M128 668v-311c19 67 71 114 149 114c81 0 142 -43 142 -146v-325h-51v312c0 73 -37 114 -102 114c-74 0 -138 -51 -138 -164v-262h-51v668h51z" />
    <glyph glyph-name="i" unicode="i" horiz-adv-x="205" 
d="M65 604c0 22 16 39 37 39c22 0 39 -17 39 -39c0 -21 -17 -37 -39 -37c-21 0 -37 16 -37 37zM77 462h51v-462h-51v462z" />
    <glyph glyph-name="j" unicode="j" horiz-adv-x="205" 
d="M77 462h51v-502c0 -121 -60 -166 -170 -163v43c79 -4 119 30 119 115v507zM65 604c0 22 17 39 38 39s38 -17 38 -39c0 -21 -17 -37 -38 -37s-38 16 -38 37z" />
    <glyph glyph-name="k" unicode="k" horiz-adv-x="429" 
d="M208 246l215 -246h-65l-190 221h-40v-221h-51v668h51v-405h36l177 199h63z" />
    <glyph glyph-name="l" unicode="l" horiz-adv-x="225" 
d="M195 44v-44c-17 -4 -28 -5 -40 -5c-52 0 -85 29 -85 87v586h51v-579c0 -37 18 -50 43 -50c13 0 21 2 31 5z" />
    <glyph glyph-name="m" unicode="m" horiz-adv-x="758" 
d="M400 356c20 74 78 115 149 115c81 0 137 -43 137 -143v-328h-51v312c0 73 -33 114 -97 114c-70 0 -131 -56 -131 -164v-262h-51v312c0 73 -33 114 -96 114c-71 0 -132 -56 -132 -164v-262h-51v462h39l7 -105c20 73 76 114 148 114c73 0 120 -34 129 -115z" />
    <glyph glyph-name="n" unicode="n" horiz-adv-x="492" 
d="M116 462l7 -106c21 70 77 115 155 115c80 0 141 -43 141 -146v-325h-51v312c0 73 -36 114 -102 114c-73 0 -138 -51 -138 -164v-262h-51v462h39z" />
    <glyph glyph-name="o" unicode="o" 
d="M243 -9c-121 0 -197 85 -197 242c0 156 76 238 197 238c123 0 198 -82 198 -238c0 -157 -75 -242 -198 -242zM243 428c-95 0 -147 -65 -147 -195c0 -132 52 -201 147 -201c96 0 148 69 148 201c0 130 -52 195 -148 195z" />
    <glyph glyph-name="p" unicode="p" horiz-adv-x="514" 
d="M128 267v-86c0 -105 70 -150 137 -150c85 0 151 64 151 205c0 129 -57 191 -142 191c-78 0 -145 -53 -146 -160zM128 82v-285h-51v665h39l7 -102c23 75 92 111 161 111c111 0 184 -79 184 -231c0 -149 -74 -249 -197 -249c-79 0 -126 42 -143 91z" />
    <glyph glyph-name="q" unicode="q" horiz-adv-x="514" 
d="M386 189v93c0 103 -73 147 -138 147c-86 0 -151 -58 -151 -204c0 -128 59 -192 146 -192c68 0 142 48 143 156zM386 380l16 82h35v-665h-51v300c-23 -72 -83 -106 -156 -106c-101 0 -184 77 -184 233c0 160 75 247 201 247c71 0 124 -43 139 -91z" />
    <glyph glyph-name="r" unicode="r" horiz-adv-x="329" 
d="M309 465l-5 -56c-11 5 -26 7 -43 7c-78 0 -133 -76 -133 -176v-240h-51v462h42l7 -131c14 83 67 139 152 139c12 0 23 -2 31 -5z" />
    <glyph glyph-name="s" unicode="s" horiz-adv-x="399" 
d="M29 107l48 14c10 -62 56 -90 121 -90c70 0 115 24 115 82c0 51 -29 77 -92 92l-60 15c-75 18 -115 52 -115 123c0 94 75 128 154 128c89 0 145 -34 157 -122l-49 -6c-8 61 -43 88 -108 88c-64 0 -106 -28 -106 -83c0 -49 25 -70 83 -84l59 -15c76 -20 125 -50 125 -131
c0 -89 -68 -127 -163 -127c-94 0 -151 36 -169 116z" />
    <glyph glyph-name="t" unicode="t" horiz-adv-x="307" 
d="M276 63l14 -41c-24 -21 -59 -31 -99 -31c-72 0 -112 41 -112 117v312h-67v42h67v98l51 7v-105h138v-42h-139v-303c0 -58 27 -82 68 -82c33 0 54 8 79 28z" />
    <glyph glyph-name="u" unicode="u" 
d="M367 0l-7 101c-20 -71 -74 -110 -150 -110c-84 0 -141 43 -141 152v319h51v-313c0 -82 36 -119 103 -119c71 0 136 59 136 164v268h51v-462h-43z" />
    <glyph glyph-name="v" unicode="v" horiz-adv-x="417" 
d="M180 0l-168 462h56l111 -316c24 -69 31 -113 31 -113h3s6 44 29 112l109 317h53l-164 -462h-60z" />
    <glyph glyph-name="w" unicode="w" horiz-adv-x="631" 
d="M344 462l82 -290c26 -92 30 -136 30 -136h3s4 43 29 136l79 290h52l-130 -462h-62l-79 275c-26 92 -31 135 -31 135h-3s-5 -43 -31 -135l-77 -275h-62l-132 462h53l80 -290c25 -90 31 -136 31 -136h3s4 45 29 136l82 290h54z" />
    <glyph glyph-name="x" unicode="x" horiz-adv-x="404" 
d="M333 0l-93 137c-34 51 -36 64 -36 64h-4s-3 -12 -39 -65l-92 -136h-55l160 235l-151 227h59l82 -126c34 -54 39 -66 39 -66h3s4 13 37 65l83 127h56l-151 -226l159 -236h-57z" />
    <glyph glyph-name="y" unicode="y" horiz-adv-x="417" 
d="M67 462l111 -318c23 -67 31 -110 31 -110h3s9 42 31 108l109 320h53l-171 -486c-46 -132 -94 -184 -171 -184c-23 0 -48 6 -65 14l6 44c19 -11 37 -16 60 -16c55 0 85 39 122 147l-174 481h55z" />
    <glyph glyph-name="z" unicode="z" horiz-adv-x="387" 
d="M353 427l-215 -310c-33 -48 -54 -73 -54 -73v-3s24 2 87 2h192v-43h-339v29l216 315c33 49 54 73 54 73v3s-24 -2 -87 -2h-172v44h318v-35z" />
    <glyph glyph-name="braceleft" unicode="{" horiz-adv-x="393" 
d="M93 256c38 0 71 16 71 85v201c0 82 30 134 116 134c33 0 58 -5 88 -17l-11 -39c-19 9 -39 17 -70 17c-49 0 -76 -29 -76 -97v-204c0 -72 -29 -94 -74 -99v-3c45 -5 74 -29 74 -99v-204c0 -68 27 -97 76 -97c31 0 51 8 70 17l11 -39c-30 -12 -55 -17 -88 -17
c-86 0 -116 52 -116 134v201c0 69 -33 85 -71 85h-44v41h44z" />
    <glyph glyph-name="bar" unicode="|" horiz-adv-x="255" 
d="M150 -203h-46v872h46v-872z" />
    <glyph glyph-name="braceright" unicode="}" horiz-adv-x="393" 
d="M300 256h43v-41h-43c-38 0 -71 -16 -71 -85v-201c0 -82 -30 -134 -116 -134c-33 0 -58 5 -88 17l11 39c19 -9 39 -17 70 -17c49 0 76 29 76 97v204c0 70 29 94 74 99v3c-45 5 -74 27 -74 99v204c0 68 -27 97 -76 97c-31 0 -51 -8 -70 -17l-11 39c30 12 55 17 88 17
c86 0 116 -52 116 -134v-201c0 -69 33 -85 71 -85z" />
    <glyph glyph-name="asciitilde" unicode="~" horiz-adv-x="436" 
d="M288 207c-29 0 -50 15 -74 30c-25 16 -42 29 -64 29c-26 0 -40 -17 -32 -59h-34c-22 59 8 106 61 106c34 0 55 -15 81 -32c24 -17 39 -28 59 -28c26 0 39 17 33 61h35c21 -61 -7 -107 -65 -107z" />
    <glyph glyph-name="Euro" unicode="&#x20ac;" horiz-adv-x="540" 
d="M333 166h-166c20 -83 75 -132 159 -132c68 0 109 27 140 87l38 -27c-37 -71 -97 -103 -182 -103c-105 0 -184 58 -207 175h-81v37h76c-1 7 -2 29 -2 37c0 14 1 27 2 40h-76v37h82c24 113 102 173 210 173c90 0 146 -38 178 -115l-45 -25c-24 63 -68 97 -134 97
c-85 0 -139 -49 -158 -130h199l-8 -37h-198c-1 -12 -1 -25 -1 -38c0 -14 0 -27 2 -39h180z" />
    <glyph glyph-name="quotesinglbase" unicode="&#x201a;" horiz-adv-x="213" 
d="M155 18c0 -69 -41 -104 -111 -107v28c41 4 68 23 69 63c0 3 -1 7 -2 8c-4 -2 -8 -4 -14 -4c-22 0 -37 16 -37 37c0 24 17 39 43 39c27 0 52 -22 52 -64z" />
    <glyph glyph-name="florin" unicode="&#x192;" horiz-adv-x="389" 
d="M51 -120l55 312h-77l8 46h77l21 113c18 102 68 140 136 140c48 0 86 -21 103 -48l-30 -38c-21 31 -43 42 -77 42c-42 0 -68 -27 -81 -95l-20 -114h122l-8 -46h-122l-56 -312h-51z" />
    <glyph glyph-name="quotedblbase" unicode="&#x201e;" horiz-adv-x="357" 
d="M155 18c0 -69 -41 -104 -111 -107v28c41 4 68 23 69 63c0 3 -1 7 -2 8c-4 -2 -8 -4 -14 -4c-22 0 -37 16 -37 37c0 24 17 39 43 39c27 0 52 -22 52 -64zM300 18c0 -69 -42 -104 -111 -107v28c41 4 67 23 68 63c0 3 -1 7 -2 8c-4 -2 -8 -4 -14 -4c-22 0 -36 16 -36 37
c0 24 16 39 43 39c26 0 52 -22 52 -64z" />
    <glyph glyph-name="dagger" unicode="&#x2020;" horiz-adv-x="534" 
d="M246 327l-200 -9v55l200 -8l-7 224h56l-8 -224l201 8v-55l-200 9l8 -476h-57z" />
    <glyph glyph-name="daggerdbl" unicode="&#x2021;" horiz-adv-x="533" 
d="M287 332v-225l201 8v-53l-201 9l9 -221h-57l7 221l-200 -9v53l200 -8v225l-200 -8v53l200 -8l-7 220h57l-9 -220l201 8v-53z" />
    <glyph glyph-name="circumflex" unicode="&#x2c6;" horiz-adv-x="428" 
d="M200 669h28l116 -136h-55l-44 53c-20 24 -29 41 -29 41h-4s-9 -17 -28 -41l-45 -53h-55z" />
    <glyph glyph-name="perthousand" unicode="&#x2030;" horiz-adv-x="1155" 
d="M172 230c-89 0 -135 77 -135 183s50 183 135 183c84 0 134 -77 134 -183s-47 -183 -134 -183zM172 557c-59 0 -91 -60 -91 -145c0 -83 33 -146 91 -146c57 0 90 63 90 146c0 85 -32 145 -90 145zM227 0l324 590h41l-323 -590h-42zM647 -6c-88 0 -135 77 -135 183
s50 183 135 183s135 -77 135 -183s-48 -183 -135 -183zM647 321c-58 0 -91 -60 -91 -145c0 -83 33 -145 91 -145s91 62 91 145c0 85 -33 145 -91 145zM983 -6c-87 0 -134 77 -134 183s50 183 134 183c85 0 135 -77 135 -183s-47 -183 -135 -183zM983 321
c-58 0 -90 -60 -90 -145c0 -83 33 -145 90 -145c58 0 91 62 91 145c0 85 -32 145 -91 145z" />
    <glyph glyph-name="guilsinglleft" unicode="&#x2039;" horiz-adv-x="293" 
d="M92 235v-4s12 -6 49 -51l108 -127l-31 -26l-175 206l175 206l31 -30l-108 -125c-38 -45 -49 -49 -49 -49z" />
    <glyph glyph-name="OE" unicode="&#x152;" horiz-adv-x="849" 
d="M304 -9c-156 0 -256 108 -256 303s100 304 256 304c26 0 51 -3 73 -9h420v-46h-336c59 -45 94 -121 98 -225h207v-46h-207c-4 -106 -39 -182 -98 -226h336v-46h-420c-22 -6 -47 -9 -73 -9zM304 552c-131 0 -200 -98 -200 -258s69 -257 200 -257s200 97 200 257
s-69 258 -200 258z" />
    <glyph glyph-name="quoteleft" unicode="&#x2018;" horiz-adv-x="213" 
d="M64 566c0 69 41 104 111 107v-28c-41 -4 -67 -23 -68 -63c0 -3 1 -7 1 -8c5 2 9 4 15 4c22 0 36 -16 36 -37c0 -24 -17 -39 -43 -39s-52 22 -52 64z" />
    <glyph glyph-name="quoteright" unicode="&#x2019;" horiz-adv-x="213" 
d="M155 609c0 -69 -41 -104 -111 -107v28c41 4 68 22 69 63c0 3 -1 6 -2 8c-4 -2 -8 -4 -14 -4c-22 0 -37 16 -37 37c0 24 17 39 43 39c27 0 52 -23 52 -64z" />
    <glyph glyph-name="quotedblleft" unicode="&#x201c;" horiz-adv-x="357" 
d="M64 566c0 69 41 104 111 107v-28c-41 -4 -67 -23 -68 -63c0 -3 1 -7 1 -8c5 2 9 4 15 4c22 0 36 -16 36 -37c0 -24 -17 -39 -43 -39s-52 22 -52 64zM208 566c0 69 41 104 111 107v-28c-41 -4 -67 -23 -68 -63c0 -3 1 -7 2 -8c4 2 8 4 14 4c22 0 36 -16 36 -37
c0 -24 -16 -39 -43 -39c-26 0 -52 22 -52 64z" />
    <glyph glyph-name="quotedblright" unicode="&#x201d;" horiz-adv-x="357" 
d="M155 609c0 -69 -41 -104 -111 -107v28c41 4 68 22 69 63c0 3 -1 6 -2 8c-4 -2 -8 -4 -14 -4c-22 0 -37 16 -37 37c0 24 17 39 43 39c27 0 52 -23 52 -64zM300 609c0 -69 -42 -104 -111 -107v28c41 4 67 22 68 63c0 3 -1 6 -2 8c-4 -2 -8 -4 -14 -4c-22 0 -36 16 -36 37
c0 24 16 39 43 39c26 0 52 -23 52 -64z" />
    <glyph glyph-name="bullet" unicode="&#x2022;" horiz-adv-x="298" 
d="M87 251c0 35 28 63 62 63s62 -28 62 -63c0 -33 -28 -61 -62 -61s-62 28 -62 61z" />
    <glyph glyph-name="endash" unicode="&#x2013;" horiz-adv-x="509" 
d="M74 240v39h360v-39h-360z" />
    <glyph glyph-name="emdash" unicode="&#x2014;" horiz-adv-x="1009" 
d="M74 240v39h860v-39h-860z" />
    <glyph glyph-name="tilde" unicode="&#x2dc;" horiz-adv-x="454" 
d="M295 539c-30 0 -49 14 -72 29c-25 17 -40 29 -61 29c-27 0 -42 -17 -34 -59h-33c-22 59 8 104 62 104c33 0 53 -15 78 -32c24 -17 37 -27 57 -27c25 0 40 17 33 61h35c20 -62 -7 -105 -65 -105z" />
    <glyph glyph-name="trademark" unicode="&#x2122;" horiz-adv-x="589" 
d="M138 341h-37v216h-81v32h199v-32h-81v-216zM520 341h-36v191h-3l-67 -141h-31l-69 141h-3v-191h-37v248h49l74 -154h3l74 154h46v-248z" />
    <glyph glyph-name="guilsinglright" unicode="&#x203a;" horiz-adv-x="293" 
d="M201 231v4s-11 4 -49 49l-108 125l31 30l175 -206l-175 -206l-31 26l108 127c37 45 49 51 49 51z" />
    <glyph glyph-name="oe" unicode="&#x153;" horiz-adv-x="804" 
d="M590 32c67 0 106 27 123 91l45 -10c-17 -88 -83 -122 -171 -122c-81 0 -145 37 -172 120c-24 -81 -87 -120 -172 -120c-121 0 -197 85 -197 242c0 156 76 238 197 238c84 0 150 -39 173 -120c27 78 91 120 173 120c113 0 170 -78 170 -184c0 -23 -3 -44 -7 -59h-311
c-1 -124 56 -196 149 -196zM243 428c-95 0 -147 -65 -147 -195c0 -132 52 -201 147 -201c96 0 148 69 148 201c0 130 -52 195 -148 195zM442 270h266c1 9 1 17 1 27c0 74 -43 132 -122 132c-86 0 -136 -59 -145 -159z" />
    <glyph glyph-name="nbspace" unicode="&#xa0;" horiz-adv-x="153" 
 />
    <glyph glyph-name="exclamdown" unicode="&#xa1;" horiz-adv-x="225" 
d="M145 -124h-66l16 423h35zM73 429c0 23 17 40 39 40c23 0 40 -17 40 -40s-17 -39 -40 -39c-22 0 -39 16 -39 39z" />
    <glyph glyph-name="cent" unicode="&#xa2;" horiz-adv-x="495" 
d="M247 -106v98c-116 8 -197 90 -197 247c0 152 78 240 197 250v85h36v-84c85 -3 139 -41 171 -115l-47 -25c-22 59 -63 92 -124 96v-412c62 3 102 30 131 87l40 -27c-37 -67 -92 -99 -171 -103v-97h-36zM102 242c0 -119 52 -195 145 -206v409c-95 -11 -145 -88 -145 -203z
" />
    <glyph glyph-name="sterling" unicode="&#xa3;" horiz-adv-x="501" 
d="M332 207h-150c9 -25 17 -49 17 -75c0 -47 -21 -77 -51 -88h186c43 0 76 10 86 55l42 -20c-14 -55 -55 -79 -122 -79h-281v46h29c36 0 62 33 62 82c0 28 -10 53 -22 79h-84v36h70c-10 27 -18 57 -18 95c0 110 81 152 168 152s144 -39 158 -130l-48 -8
c-12 64 -46 96 -114 96c-66 0 -113 -34 -113 -110c0 -34 10 -65 22 -95h163v-36z" />
    <glyph glyph-name="currency" unicode="&#xa4;" horiz-adv-x="452" 
d="M320 412l73 73l25 -25l-77 -77c12 -24 20 -55 20 -92s-7 -67 -18 -91l75 -74l-25 -25l-70 69c-24 -26 -57 -40 -97 -40c-41 0 -74 14 -97 40l-70 -69l-25 25l75 74c-12 24 -18 55 -18 91c0 37 7 68 19 93l-76 76l25 25l72 -73c23 24 55 38 95 38c39 0 71 -13 94 -38z
M226 415c-59 0 -89 -42 -89 -123c0 -85 30 -128 89 -128s89 43 89 128c0 81 -30 123 -89 123z" />
    <glyph glyph-name="yen" unicode="&#xa5;" horiz-adv-x="455" 
d="M403 147h-149v-147h-51v147h-152v36h150l-36 64h-114v36h94l-114 198h58l98 -174c34 -61 41 -84 41 -84h3s8 24 41 84l98 174h55l-114 -198h92v-36h-112l-37 -64h149v-36z" />
    <glyph glyph-name="brokenbar" unicode="&#xa6;" horiz-adv-x="255" 
d="M150 278h-46v391h46v-391zM150 -203h-46v391h46v-391z" />
    <glyph glyph-name="section" unicode="&#xa7;" horiz-adv-x="432" 
d="M53 15l53 7c10 -63 53 -88 118 -88c56 0 106 24 106 81c0 48 -28 75 -85 91l-67 18c-75 21 -116 57 -116 123c0 54 34 91 80 108c-49 21 -78 59 -78 114c0 94 77 129 151 129c94 0 149 -33 161 -121l-51 -6c-8 60 -45 86 -109 86c-61 0 -103 -27 -103 -84
c0 -47 26 -70 80 -86l63 -20c69 -21 122 -48 122 -126c0 -52 -31 -92 -79 -106c44 -16 79 -58 79 -115c0 -91 -75 -127 -160 -127c-92 0 -152 37 -165 122zM330 234c0 53 -40 75 -100 93l-56 16c-34 -14 -63 -45 -63 -89c0 -53 34 -74 97 -92l60 -15c30 12 62 43 62 87z" />
    <glyph glyph-name="dieresis" unicode="&#xa8;" horiz-adv-x="417" 
d="M84 595c0 21 17 38 38 38c22 0 38 -17 38 -38s-16 -38 -38 -38c-21 0 -38 17 -38 38zM256 594c0 22 17 38 38 38s38 -16 38 -38c0 -20 -17 -37 -38 -37s-38 17 -38 37z" />
    <glyph glyph-name="copyright" unicode="&#xa9;" horiz-adv-x="706" 
d="M469 206l34 -25c-32 -53 -78 -79 -148 -79c-101 0 -175 64 -175 193c0 125 73 194 178 194c74 0 118 -30 145 -89l-41 -23c-19 49 -52 72 -105 72c-83 0 -130 -56 -130 -154c0 -97 46 -153 132 -153c53 0 84 20 110 64zM49 294c0 177 136 304 304 304
c167 0 304 -127 304 -304s-137 -303 -304 -303c-168 0 -304 126 -304 303zM75 294c0 -163 125 -279 278 -279c154 0 279 116 279 279s-125 280 -279 280c-153 0 -278 -117 -278 -280z" />
    <glyph glyph-name="ordfeminine" unicode="&#xaa;" horiz-adv-x="339" 
d="M218 384v48c-8 1 -16 2 -25 2c-74 0 -112 -19 -112 -65c0 -33 20 -54 60 -54c38 0 77 24 77 69zM263 506v-151c0 -25 8 -34 23 -34c8 0 14 3 19 6v-35c-7 -5 -19 -7 -31 -7c-31 0 -51 14 -55 52c-13 -39 -51 -55 -91 -55c-55 0 -93 30 -93 82c0 62 48 99 150 99
c10 0 21 -1 33 -2v35c0 50 -25 68 -65 68c-35 0 -62 -17 -65 -55l-42 5c5 65 58 87 110 87c57 0 107 -24 107 -95z" />
    <glyph glyph-name="guillemotleft" unicode="&#xab;" horiz-adv-x="437" 
d="M236 235v-4s12 -6 50 -51l107 -127l-30 -26l-175 206l175 206l31 -30l-108 -125c-39 -45 -50 -49 -50 -49zM92 235v-4s12 -6 49 -51l108 -127l-31 -26l-175 206l175 206l31 -30l-108 -125c-38 -45 -49 -49 -49 -49z" />
    <glyph glyph-name="logicalnot" unicode="&#xac;" horiz-adv-x="498" 
d="M411 281h-362v34h400v-188h-38v154z" />
    <glyph glyph-name="uni00AD" unicode="&#xad;" horiz-adv-x="373" 
d="M74 244v44h224v-44h-224z" />
    <glyph glyph-name="registered" unicode="&#xae;" horiz-adv-x="706" 
d="M505 120h-48c-9 11 -14 21 -19 40l-13 55c-9 39 -37 55 -84 55h-62v-150h-45v361h130c78 0 125 -34 125 -105c0 -59 -41 -89 -96 -91c38 -5 64 -20 75 -61l15 -59c5 -19 12 -33 22 -45zM279 444v-139h73c67 0 93 26 93 70c0 45 -29 69 -88 69h-78zM49 294
c0 177 136 304 304 304c167 0 304 -127 304 -304s-137 -303 -304 -303c-168 0 -304 126 -304 303zM76 294c0 -163 124 -279 277 -279c154 0 278 116 278 279s-124 280 -278 280c-153 0 -277 -117 -277 -280z" />
    <glyph glyph-name="macron" unicode="&#xaf;" horiz-adv-x="409" 
d="M315 564h-222v43h222v-43z" />
    <glyph glyph-name="degree" unicode="&#xb0;" horiz-adv-x="261" 
d="M40 510c0 50 37 91 90 91s91 -41 91 -91s-38 -90 -91 -90s-90 40 -90 90zM73 510c0 -34 22 -60 57 -60s57 26 57 60s-22 61 -57 61s-57 -27 -57 -61z" />
    <glyph glyph-name="plusminus" unicode="&#xb1;" horiz-adv-x="507" 
d="M49 327h185v144h35v-144h188v-35h-188v-157h-35v157h-185v35zM457 55h-408v35h408v-35z" />
    <glyph glyph-name="twosuperior" unicode="&#xb2;" horiz-adv-x="290" 
d="M268 272v-36h-246v34c97 67 185 132 185 213c0 48 -28 74 -72 74c-51 0 -73 -38 -73 -77l-38 15c0 50 41 101 117 101c60 0 111 -35 111 -110c0 -101 -114 -178 -174 -211v-3h190z" />
    <glyph glyph-name="threesuperior" unicode="&#xb3;" horiz-adv-x="290" 
d="M157 421v-3c63 -4 100 -38 100 -92c0 -61 -52 -96 -121 -96c-74 0 -117 35 -125 82l40 14c8 -38 40 -62 85 -62s77 22 77 65c0 45 -33 72 -117 73v32c70 3 106 24 106 68c0 38 -27 58 -66 58c-37 0 -64 -19 -72 -58l-39 13c10 46 48 81 113 81c58 0 107 -27 107 -89
c0 -46 -29 -81 -88 -86z" />
    <glyph glyph-name="acute" unicode="&#xb4;" horiz-adv-x="313" 
d="M129 533h-42l71 136h70z" />
    <glyph glyph-name="mu" unicode="&#xb5;" horiz-adv-x="490" 
d="M367 0l-7 104c-21 -74 -76 -113 -146 -113c-44 0 -79 15 -94 43v-237h-51v665h51v-309c0 -81 37 -120 99 -120c65 0 141 51 141 158v271h50v-462h-43z" />
    <glyph glyph-name="paragraph" unicode="&#xb6;" horiz-adv-x="464" 
d="M342 547v-586c0 -85 -44 -124 -115 -124c-36 0 -66 9 -97 29l19 47c25 -22 50 -31 77 -31c39 0 63 20 63 72v277h-40c-139 0 -215 60 -215 175c0 122 85 183 238 183h149v-42h-79z" />
    <glyph glyph-name="periodcentered" unicode="&#xb7;" horiz-adv-x="254" 
d="M84 266c0 24 19 42 43 42s42 -18 42 -42c0 -25 -18 -43 -42 -43s-43 18 -43 43z" />
    <glyph glyph-name="periodcentered" unicode="&#x22c5;" horiz-adv-x="254" 
d="M84 266c0 24 19 42 43 42s42 -18 42 -42c0 -25 -18 -43 -42 -43s-43 18 -43 43z" />
    <glyph glyph-name="cedilla" unicode="&#xb8;" horiz-adv-x="349" 
d="M265 -126c0 -54 -41 -79 -93 -79c-41 0 -70 17 -88 40l19 33c18 -25 39 -39 69 -39s49 13 49 45c0 31 -27 50 -80 52l10 79h30l-7 -51c57 -5 91 -33 91 -80z" />
    <glyph glyph-name="onesuperior" unicode="&#xb9;" horiz-adv-x="287" 
d="M276 236h-247v35h107v274l-110 -17v37l155 26v-320h95v-35z" />
    <glyph glyph-name="ordmasculine" unicode="&#xba;" horiz-adv-x="357" 
d="M178 282c-83 0 -135 56 -135 160c0 105 52 159 135 159s136 -54 136 -159c0 -104 -53 -160 -136 -160zM178 566c-59 0 -89 -42 -89 -123c0 -84 30 -127 89 -127s89 43 89 127c0 81 -30 123 -89 123z" />
    <glyph glyph-name="guillemotright" unicode="&#xbb;" horiz-adv-x="437" 
d="M201 231v4s-11 4 -49 49l-108 125l31 30l175 -206l-175 -206l-31 26l108 127c37 45 49 51 49 51zM346 231v4s-12 4 -50 49l-108 125l31 30l175 -206l-175 -206l-30 26l107 127c38 45 50 51 50 51z" />
    <glyph glyph-name="onequarter" unicode="&#xbc;" horiz-adv-x="781" 
d="M287 236h-246v35h107v274l-110 -17v37l154 26v-320h95v-35zM227 0l324 590h41l-324 -590h-41zM649 0v95h-183v33l181 225h46v-224h60v-34h-60v-95h-44zM650 128v125c0 36 4 60 4 60h-3s-10 -22 -35 -55l-69 -86c-24 -30 -42 -43 -42 -43v-3s15 2 49 2h96z" />
    <glyph glyph-name="onehalf" unicode="&#xbd;" horiz-adv-x="800" 
d="M287 236h-246v35h107v274l-110 -17v37l154 26v-320h95v-35zM227 0l324 590h41l-324 -590h-41zM751 36v-36h-246v34c97 67 185 132 185 213c0 48 -28 74 -72 74c-51 0 -73 -38 -74 -77l-37 15c0 50 41 101 117 101c59 0 111 -35 111 -110c0 -101 -114 -178 -174 -211v-3
h190z" />
    <glyph glyph-name="threequarters" unicode="&#xbe;" horiz-adv-x="759" 
d="M174 421v-3c63 -4 101 -38 101 -92c0 -61 -53 -96 -121 -96c-75 0 -117 35 -125 82l39 14c8 -38 41 -62 86 -62s76 22 76 65c0 45 -32 72 -117 73v32c71 3 106 24 106 68c0 38 -27 58 -66 58c-37 0 -63 -19 -71 -58l-39 13c10 46 48 81 113 81c57 0 107 -27 107 -89
c0 -46 -29 -81 -89 -86zM206 0l324 590h40l-323 -590h-41zM628 0v95h-183v33l181 225h45v-224h60v-34h-60v-95h-43zM629 128v125c0 36 3 60 3 60h-3s-9 -22 -35 -55l-69 -86c-24 -30 -42 -43 -42 -43v-3s16 2 50 2h96z" />
    <glyph glyph-name="questiondown" unicode="&#xbf;" horiz-adv-x="387" 
d="M330 15l45 -16c-16 -76 -72 -133 -173 -133c-110 0 -178 69 -178 170c0 119 88 176 178 177v95h48v-128h-27c-83 0 -147 -42 -147 -141c0 -86 52 -129 129 -129c67 0 113 36 125 105zM266 428c0 -22 -17 -39 -40 -39s-40 17 -40 39c0 23 17 40 40 40s40 -17 40 -40z" />
    <glyph glyph-name="AE" unicode="&#xc6;" horiz-adv-x="800" 
d="M748 0h-335v189h-227l-119 -189h-57l376 589h362v-46h-283v-225h252v-46h-252v-226h283v-46zM416 550l-203 -317h200v167c-1 99 6 150 6 150h-3z" />
    <glyph glyph-name="Eth" unicode="&#xd0;" horiz-adv-x="585" 
d="M252 0h-162v272h-61v46h61v271h163c166 0 283 -81 283 -288c0 -218 -131 -301 -284 -301zM143 45h104c143 0 234 84 234 254c0 172 -89 245 -228 245h-110v-226h137v-46h-137v-227z" />
    <glyph glyph-name="multiply" unicode="&#xd7;" horiz-adv-x="449" 
d="M56 107l142 142l-140 139l24 25l141 -140l144 143l24 -24l-144 -143l146 -145l-24 -25l-146 145l-143 -142z" />
    <glyph glyph-name="Oslash" unicode="&#xd8;" horiz-adv-x="608" 
d="M67 -10l-30 27l65 74c-35 50 -54 118 -54 203c0 195 100 304 256 304c73 0 133 -24 177 -68l58 66l31 -28l-62 -73c34 -50 52 -117 52 -201c0 -195 -100 -303 -256 -303c-73 0 -133 23 -177 68zM304 552c-131 0 -200 -98 -200 -258c0 -65 12 -119 35 -161l308 357
c-34 40 -82 62 -143 62zM504 294c0 64 -12 118 -35 159l-307 -356c33 -39 81 -60 142 -60c131 0 200 97 200 257z" />
    <glyph glyph-name="Thorn" unicode="&#xde;" horiz-adv-x="475" 
d="M140 434v-263h102c105 0 148 44 148 134c0 85 -48 129 -149 129h-101zM140 0h-53v589h53v-111h103c140 0 202 -61 202 -170c0 -119 -68 -181 -198 -181h-107v-127z" />
    <glyph glyph-name="germandbls" unicode="&#xdf;" horiz-adv-x="518" 
d="M77 0v460c0 145 71 215 188 215c112 0 169 -63 169 -151c0 -92 -59 -136 -128 -145v-3c94 -5 168 -76 168 -187c0 -124 -51 -198 -162 -198c-63 0 -111 26 -135 78l34 30c19 -44 54 -68 101 -68c73 0 110 51 110 159c0 99 -64 164 -174 164h-43v42h35
c83 0 142 39 142 121c0 71 -39 117 -118 117c-81 0 -136 -49 -136 -179v-455h-51z" />
    <glyph glyph-name="eth" unicode="&#xf0;" horiz-adv-x="488" 
d="M127 508l-9 30l132 32c-30 28 -79 56 -123 75l37 27c51 -21 98 -52 136 -88l103 25l9 -31l-85 -21c73 -83 115 -197 115 -311c0 -174 -77 -255 -199 -255c-121 0 -197 83 -197 238s76 236 189 236c60 0 104 -26 130 -65h3c-19 52 -49 102 -92 145zM390 229
c0 127 -53 195 -148 195s-146 -68 -146 -195c0 -126 51 -197 147 -197c97 0 147 71 147 197z" />
    <glyph glyph-name="divide" unicode="&#xf7;" horiz-adv-x="507" 
d="M457 231h-408v34h408v-34zM216 74c0 19 15 35 34 35s35 -16 35 -35s-16 -34 -35 -34s-34 15 -34 34zM216 415c0 20 15 36 34 36s35 -16 35 -36c0 -19 -16 -34 -35 -34s-34 15 -34 34z" />
    <glyph glyph-name="oslash" unicode="&#xf8;" 
d="M66 -10l-32 26l50 58c-25 39 -38 92 -38 159c0 156 76 238 197 238c57 0 104 -18 138 -54l45 53l32 -26l-52 -60c23 -38 35 -89 35 -151c0 -157 -75 -242 -198 -242c-55 0 -100 17 -133 49zM243 428c-95 0 -147 -65 -147 -195c0 -50 8 -90 23 -121l231 271
c-26 30 -61 45 -107 45zM391 233c0 45 -8 83 -21 111l-230 -269c25 -28 59 -43 103 -43c96 0 148 69 148 201z" />
    <glyph glyph-name="thorn" unicode="&#xfe;" horiz-adv-x="514" 
d="M128 267v-86c0 -105 70 -150 137 -150c85 0 151 64 151 205c0 129 -57 191 -142 191c-78 0 -145 -53 -146 -160zM128 82v-285h-51v871h51v-302c21 70 85 105 156 105c111 0 184 -79 184 -231c0 -149 -74 -249 -197 -249c-79 0 -126 42 -143 91z" />
    <glyph glyph-name="Dcroat" unicode="&#x110;" horiz-adv-x="585" 
d="M252 0h-162v272h-61v46h61v271h163c166 0 283 -81 283 -288c0 -218 -131 -301 -284 -301zM143 45h104c143 0 234 84 234 254c0 172 -89 245 -228 245h-110v-226h137v-46h-137v-227z" />
    <glyph glyph-name="dcroat" unicode="&#x111;" horiz-adv-x="513" 
d="M228 541v41h157v86h52v-86h71v-41h-71v-541h-44l-7 97c-23 -72 -83 -106 -156 -106c-101 0 -184 77 -184 233c0 160 75 247 201 247c72 0 124 -43 138 -92v162h-157zM386 188v94c0 103 -73 147 -138 147c-86 0 -151 -58 -151 -204c0 -128 59 -192 146 -192
c68 0 142 48 143 155z" />
    <glyph glyph-name="Hbar" unicode="&#x126;" horiz-adv-x="633" 
d="M24 424v47h69v118h52v-118h340v118h53v-118h71v-47h-71v-424h-53v274h-340v-274h-52v424h-69zM145 321h340v103h-340v-103z" />
    <glyph glyph-name="hbar" unicode="&#x127;" horiz-adv-x="490" 
d="M127 668v-86h157v-41h-157v-184c19 67 71 114 149 114c81 0 142 -43 142 -146v-325h-51v312c0 73 -37 114 -102 114c-74 0 -138 -51 -138 -164v-262h-51v541h-72v41h72v86h51z" />
    <glyph glyph-name="dotlessi" unicode="&#x131;" horiz-adv-x="205" 
d="M77 462h51v-462h-51v462z" />
    <glyph glyph-name="IJ" unicode="&#x132;" horiz-adv-x="639" 
d="M94 589h52v-589h-52v589zM510 589h52v-417c0 -136 -79 -181 -172 -181c-97 0 -150 52 -177 118l43 27c29 -70 69 -100 136 -100c81 0 118 47 118 149v404z" />
    <glyph glyph-name="ij" unicode="&#x133;" horiz-adv-x="461" 
d="M74 604c0 22 16 39 37 39c22 0 39 -17 39 -39c0 -21 -17 -37 -39 -37c-21 0 -37 16 -37 37zM86 462h51v-462h-51v462zM312 462h51v-502c0 -121 -60 -166 -170 -163v43c79 -4 119 30 119 115v507zM300 604c0 22 17 39 38 39s38 -17 38 -39c0 -21 -17 -37 -38 -37
s-38 16 -38 37z" />
    <glyph glyph-name="kgreenlandic" unicode="&#x138;" horiz-adv-x="429" 
d="M207 246l215 -246h-65l-190 221h-40v-221h-51v462h50v-199h37l177 199h63z" />
    <glyph glyph-name="Lslash" unicode="&#x141;" horiz-adv-x="440" 
d="M28 216v46l64 28v299h52v-278l153 70v-48l-153 -69v-218h274v-46h-326v244z" />
    <glyph glyph-name="lslash" unicode="&#x142;" horiz-adv-x="229" 
d="M20 298v47l56 30v293h51v-266l75 40v-50l-75 -39v-264c0 -37 18 -50 44 -50c12 0 20 2 30 5v-44c-17 -4 -28 -5 -40 -5c-52 0 -85 29 -85 87v245z" />
    <glyph glyph-name="Eng" unicode="&#x14a;" horiz-adv-x="629" 
d="M542 589v-617c0 -137 -78 -182 -175 -182c-59 0 -105 24 -136 55l32 39c27 -29 65 -49 109 -49c81 0 117 47 117 149v11l-285 415c-36 52 -65 106 -65 106h-4s5 -55 5 -121v-395h-53v589h57l281 -410c35 -52 65 -106 65 -106h3s-4 55 -4 121v395h53z" />
    <glyph glyph-name="eng" unicode="&#x14b;" horiz-adv-x="492" 
d="M128 0h-51v462h39l7 -106c21 70 77 115 155 115c80 0 141 -43 141 -146v-365c0 -121 -59 -166 -170 -163v43c80 -4 119 30 119 114v358c0 73 -36 114 -102 114c-73 0 -138 -51 -138 -164v-262z" />
    <glyph glyph-name="Tbar" unicode="&#x166;" horiz-adv-x="465" 
d="M259 0h-53v282h-122v45h122v216h-192v46h437v-46h-192v-216h123v-45h-123v-282z" />
    <glyph glyph-name="tbar" unicode="&#x167;" horiz-adv-x="307" 
d="M12 266v41h67v113h-67v42h67v98l52 7v-105h137v-42h-138v-113h138v-41h-138v-149c0 -58 26 -82 67 -82c33 0 54 8 79 28l14 -41c-24 -21 -59 -31 -99 -31c-72 0 -112 41 -112 117v158h-67z" />
    <glyph glyph-name="Schwa" unicode="&#x18f;" horiz-adv-x="553" 
d="M50 442c26 103 105 156 211 156c149 0 244 -104 244 -307c0 -193 -92 -300 -241 -300c-141 0 -219 95 -219 239c0 24 2 46 5 71h402c-1 157 -74 251 -196 251c-86 0 -140 -48 -162 -127zM451 258h-352c-1 -13 -2 -25 -2 -39c0 -105 60 -186 165 -186
c119 0 185 94 189 225z" />
    <glyph glyph-name="Khook" unicode="&#x198;" horiz-adv-x="500" 
d="M333 482l-98 -182l250 -300h-66l-227 272h-52v-272h-53v589h53v-269h54l92 176c34 68 68 102 125 102c39 0 64 -20 74 -51l-36 -28c-9 22 -22 32 -42 32c-31 0 -50 -22 -74 -69z" />
    <glyph glyph-name="khook" unicode="&#x199;" horiz-adv-x="429" 
d="M127 221v-221h-51v524c0 105 62 148 137 148c32 0 61 -7 85 -20l-14 -45c-24 13 -50 21 -74 21c-51 0 -84 -32 -84 -114v-251h37l177 199h63l-196 -216l215 -246h-65l-190 221h-40z" />
    <glyph glyph-name="Ezh" unicode="&#x1b7;" horiz-adv-x="455" 
d="M135 269l158 201c35 45 59 72 59 72v3s-22 -2 -85 -2h-237v46h388v-36l-229 -287v-4c136 0 244 -73 244 -220c0 -143 -100 -223 -224 -223s-206 64 -217 184l44 12c12 -107 81 -154 173 -154c105 0 174 68 174 181c0 134 -109 188 -248 187v40z" />
    <glyph glyph-name="Gstroke" unicode="&#x1e4;" horiz-adv-x="609" 
d="M315 316h212v-101h59v-42h-59v-173h-46l-7 101c-21 -69 -92 -110 -171 -110c-153 0 -255 106 -255 302c0 197 108 305 264 305c106 0 174 -45 210 -140l-47 -23c-28 78 -86 118 -166 118c-131 0 -205 -99 -205 -260c0 -156 69 -257 201 -257c83 0 157 38 168 137h-158v42
h159v56h-159v45z" />
    <glyph glyph-name="gstroke" unicode="&#x1e5;" horiz-adv-x="485" 
d="M237 471c57 0 104 -18 134 -51c25 13 39 41 41 82l47 -15c-6 -52 -33 -80 -68 -93c14 -23 20 -51 20 -84c0 -102 -75 -158 -173 -158c-25 0 -50 4 -66 10c-26 -12 -39 -30 -39 -54c0 -32 23 -48 66 -48h105c90 0 152 -36 152 -122h44v-28h-46
c-18 -94 -130 -121 -229 -121c-98 0 -193 28 -197 121h-41v28h42c9 57 57 91 121 95c-40 3 -62 30 -62 67c0 34 20 60 58 72c-51 25 -81 73 -81 138c0 100 69 161 172 161zM115 311c0 -73 46 -120 122 -120c75 0 124 43 124 120s-49 120 -124 120c-76 -1 -122 -45 -122 -120
zM205 14c-69 0 -120 -22 -129 -76h330c-2 48 -36 76 -103 76h-98zM227 -173c85 0 163 21 177 83h-328c6 -61 70 -83 151 -83z" />
    <glyph glyph-name="dotlessj" unicode="&#x237;" horiz-adv-x="205" 
d="M77 462h51v-502c0 -121 -60 -166 -170 -163v43c79 -4 119 30 119 115v507z" />
    <glyph glyph-name="schwa" unicode="&#x259;" horiz-adv-x="458" 
d="M214 429c-67 0 -106 -30 -123 -94l-45 10c17 88 83 126 171 126c119 0 196 -82 196 -240c0 -153 -75 -240 -197 -240c-112 0 -169 77 -171 186c0 18 2 37 5 55h312c1 124 -55 197 -148 197zM361 192h-264c-1 -9 -1 -17 -1 -27c0 -75 44 -132 123 -132
c86 0 133 59 142 159z" />
    <glyph glyph-name="ezh" unicode="&#x292;" horiz-adv-x="379" 
d="M115 202l117 146c35 46 57 69 57 69v3s-29 -2 -92 -2h-165v44h317v-35l-186 -233v-3c106 0 189 -65 189 -172c0 -112 -80 -173 -186 -173c-94 0 -159 59 -172 140l46 10c13 -69 62 -109 129 -109c78 0 135 48 135 129c0 86 -67 142 -189 149v37z" />
    <glyph glyph-name="caron" unicode="&#x2c7;" horiz-adv-x="428" 
d="M228 533h-28l-116 136h55l45 -55c19 -24 28 -41 28 -41h4s9 17 29 41l44 55h55z" />
    <glyph glyph-name="breve" unicode="&#x2d8;" horiz-adv-x="409" 
d="M205 529c-76 0 -121 47 -121 129h42c3 -57 25 -89 79 -89s75 32 78 89h42c0 -82 -44 -129 -120 -129z" />
    <glyph glyph-name="dotaccent" unicode="&#x2d9;" horiz-adv-x="245" 
d="M84 604c0 22 17 39 38 39c22 0 38 -17 38 -39c0 -21 -16 -37 -38 -37c-21 0 -38 16 -38 37z" />
    <glyph glyph-name="ring" unicode="&#x2da;" horiz-adv-x="347" 
d="M174 527c-57 0 -90 38 -90 86c0 46 35 84 90 84s89 -38 89 -84c0 -48 -33 -86 -89 -86zM174 670c-36 0 -57 -25 -57 -58c0 -32 20 -56 57 -56s57 24 57 56c0 33 -21 58 -57 58z" />
    <glyph glyph-name="ogonek" unicode="&#x2db;" horiz-adv-x="346" 
d="M73 -114c0 79 75 121 131 140l20 -26c-50 -14 -103 -49 -103 -108c0 -35 18 -56 50 -56c29 0 48 15 62 38l22 -25c-16 -27 -42 -50 -91 -50c-56 0 -91 32 -91 87z" />
    <glyph glyph-name="hungarumlaut" unicode="&#x2dd;" horiz-adv-x="430" 
d="M123 533h-39l66 136h67zM246 533h-39l71 136h67z" />
    <glyph glyph-name="uni0312" unicode="&#x312;" horiz-adv-x="264" 
d="M84 713c0 58 33 87 96 87v-26c-36 -1 -56 -13 -57 -47c0 -4 0 -7 1 -9c4 3 8 5 14 5c20 0 32 -15 32 -33c0 -22 -15 -36 -39 -36c-23 0 -47 21 -47 59z" />
    <glyph glyph-name="uni0320" unicode="&#x320;" horiz-adv-x="409" 
d="M324 -168h-240v41h240v-41z" />
    <glyph glyph-name="uni0323" unicode="&#x323;" horiz-adv-x="245" 
d="M84 -125c0 22 17 38 38 38s38 -16 38 -38c0 -21 -17 -38 -38 -38s-38 17 -38 38z" />
    <glyph glyph-name="uni0329" unicode="&#x329;" horiz-adv-x="213" 
d="M84 -192v135h45v-131z" />
    <glyph glyph-name="pi" unicode="&#x3c0;" horiz-adv-x="621" 
d="M171 481h395v-43h-124v-328c0 -53 16 -78 51 -78c31 0 50 20 66 53l32 -24c-24 -46 -51 -70 -106 -70c-63 0 -95 37 -95 110v337h-156l-46 -438h-51l48 438h-19c-70 0 -107 -42 -107 -119h-45c0 107 58 162 157 162z" />
    <glyph glyph-name="uni0E3F" unicode="&#xe3f;" horiz-adv-x="491" 
d="M226 -106v106h-140v481h140v93h36v-93c101 -1 156 -44 156 -122c0 -63 -30 -99 -89 -109v-3c63 -3 112 -49 112 -114c0 -87 -55 -133 -179 -133v-106h-36zM262 225v-182c87 1 128 25 128 93c0 59 -39 88 -128 89zM262 438v-170c66 0 107 22 107 85c0 58 -42 83 -107 85z
M137 225v-182h89v182h-89zM137 268h89v170h-89v-170z" />
    <glyph glyph-name="enspace" unicode="&#x2002;" horiz-adv-x="450" 
 />
    <glyph glyph-name="emspace" unicode="&#x2003;" horiz-adv-x="900" 
 />
    <glyph glyph-name="threeperemspace" unicode="&#x2004;" horiz-adv-x="300" 
 />
    <glyph glyph-name="fourperemspace" unicode="&#x2005;" horiz-adv-x="225" 
 />
    <glyph glyph-name="sixperemspace" unicode="&#x2006;" horiz-adv-x="150" 
 />
    <glyph glyph-name="figurespace" unicode="&#x2007;" horiz-adv-x="513" 
 />
    <glyph glyph-name="punctuationspace" unicode="&#x2008;" horiz-adv-x="171" 
 />
    <glyph glyph-name="thinspace" unicode="&#x2009;" horiz-adv-x="90" 
 />
    <glyph glyph-name="hairspace" unicode="&#x200a;" horiz-adv-x="45" 
 />
    <glyph glyph-name="zerowidthspace" unicode="&#x200b;" horiz-adv-x="0" 
 />
    <glyph glyph-name="figuredash" unicode="&#x2012;" horiz-adv-x="608" 
d="M74 240v39h459v-39h-459z" />
    <glyph glyph-name="uni2015" unicode="&#x2015;" horiz-adv-x="1259" 
d="M74 240v39h1110v-39h-1110z" />
    <glyph glyph-name="fraction" unicode="&#x2044;" horiz-adv-x="183" 
d="M-91 0l324 590h41l-324 -590h-41z" />
    <glyph glyph-name="uni2070" unicode="&#x2070;" horiz-adv-x="339" 
d="M170 230c-88 0 -135 77 -135 183s50 183 135 183c84 0 134 -77 134 -183s-46 -183 -134 -183zM170 557c-59 0 -91 -60 -91 -145c0 -83 33 -146 91 -146c57 0 91 63 91 146c0 85 -33 145 -91 145z" />
    <glyph glyph-name="uni2074" unicode="&#x2074;" horiz-adv-x="323" 
d="M198 236v95h-183v33l181 225h45v-224h60v-34h-60v-95h-43zM199 364v125c0 36 3 60 3 60h-3s-9 -22 -35 -55l-69 -86c-24 -30 -41 -43 -41 -43v-3s15 2 49 2h96z" />
    <glyph glyph-name="uni2075" unicode="&#x2075;" horiz-adv-x="297" 
d="M52 400l8 189h188v-37h-152l-6 -120c13 17 39 30 71 30c59 0 104 -37 104 -111c0 -78 -50 -121 -130 -121c-67 0 -110 35 -115 85l38 14c7 -44 38 -65 80 -65c49 0 85 27 85 83c0 52 -30 81 -73 81c-31 0 -49 -12 -63 -28h-35z" />
    <glyph glyph-name="uni2076" unicode="&#x2076;" horiz-adv-x="315" 
d="M281 526l-35 -16c-12 34 -36 49 -71 49c-58 0 -99 -54 -102 -158v-23h3c7 52 45 85 100 85c68 0 112 -49 112 -115c0 -62 -41 -118 -123 -118c-43 0 -77 17 -100 51c-20 28 -30 68 -30 121c0 132 65 194 143 194c50 0 88 -25 103 -70zM87 345c0 -49 34 -82 80 -82
c48 0 81 33 81 82s-33 82 -80 82s-81 -33 -81 -82z" />
    <glyph glyph-name="uni2077" unicode="&#x2077;" horiz-adv-x="284" 
d="M220 551h-161v-55h-39v93h248v-24l-141 -329h-44z" />
    <glyph glyph-name="uni2078" unicode="&#x2078;" horiz-adv-x="327" 
d="M163 398c-45 0 -82 -22 -82 -68c0 -44 33 -67 82 -67c50 0 83 23 83 67c0 46 -38 68 -83 68zM163 230c-74 0 -126 35 -126 97c0 45 30 78 76 86v2c-42 10 -68 40 -68 84c0 60 48 97 118 97s118 -37 118 -97c0 -44 -25 -74 -68 -84v-2c47 -8 77 -41 77 -86
c0 -62 -52 -97 -127 -97zM163 562c-45 0 -78 -24 -78 -64c0 -42 36 -65 78 -65c43 0 79 23 79 65c0 40 -33 64 -79 64z" />
    <glyph glyph-name="uni2079" unicode="&#x2079;" horiz-adv-x="315" 
d="M31 300l35 15c12 -33 36 -49 72 -49c62 0 101 56 103 158c1 3 1 21 1 24h-3c-7 -52 -45 -85 -100 -85c-68 0 -112 48 -112 114c0 63 41 119 123 119c43 0 77 -16 100 -51c20 -28 30 -68 30 -120c0 -133 -63 -195 -142 -195c-52 0 -92 24 -107 70zM228 480
c0 48 -34 82 -80 82c-48 0 -81 -33 -81 -82c0 -50 33 -83 80 -83s81 33 81 83z" />
    <glyph glyph-name="uni207A" unicode="&#x207a;" horiz-adv-x="440" 
d="M43 435h161v155h30v-155h163v-31h-163v-168h-30v168h-161v31z" />
    <glyph glyph-name="uni207B" unicode="&#x207b;" horiz-adv-x="441" 
d="M398 404h-355v31h355v-31z" />
    <glyph glyph-name="uni207C" unicode="&#x207c;" horiz-adv-x="441" 
d="M398 350h-355v31h355v-31zM398 464h-355v30h355v-30z" />
    <glyph glyph-name="uni207D" unicode="&#x207d;" horiz-adv-x="226" 
d="M83 409c0 -97 35 -158 93 -227h-39c-50 58 -88 128 -88 227s38 169 88 227h39c-58 -68 -93 -131 -93 -227z" />
    <glyph glyph-name="uni207E" unicode="&#x207e;" horiz-adv-x="226" 
d="M143 409c0 96 -36 159 -94 227h39c50 -58 88 -128 88 -227s-38 -169 -88 -227h-39c58 69 94 130 94 227z" />
    <glyph glyph-name="n.superior" unicode="&#x207f;" horiz-adv-x="355" 
d="M91 594l6 -68c15 47 56 75 104 75c54 0 102 -29 102 -105v-208h-46v199c0 50 -23 76 -66 76c-42 0 -89 -25 -89 -110v-165h-46v306h35z" />
    <glyph glyph-name="uni2080" unicode="&#x2080;" horiz-adv-x="339" 
d="M170 -6c-88 0 -135 77 -135 183s50 183 135 183c84 0 134 -77 134 -183s-46 -183 -134 -183zM170 321c-59 0 -91 -60 -91 -145c0 -83 33 -146 91 -146c57 0 91 63 91 146c0 85 -33 145 -91 145z" />
    <glyph glyph-name="uni2081" unicode="&#x2081;" horiz-adv-x="287" 
d="M276 0h-247v35h107v274l-110 -17v37l155 26v-320h95v-35z" />
    <glyph glyph-name="uni2082" unicode="&#x2082;" horiz-adv-x="290" 
d="M268 36v-36h-246v34c97 67 185 132 185 213c0 48 -28 74 -72 74c-51 0 -73 -38 -73 -77l-38 15c0 50 41 101 117 101c60 0 111 -35 111 -110c0 -101 -114 -178 -174 -211v-3h190z" />
    <glyph glyph-name="uni2083" unicode="&#x2083;" horiz-adv-x="290" 
d="M157 185v-3c63 -4 100 -38 100 -92c0 -61 -52 -96 -121 -96c-74 0 -117 35 -125 82l40 14c8 -38 40 -62 85 -62s77 22 77 65c0 45 -33 72 -117 73v32c70 3 106 24 106 68c0 38 -27 58 -66 58c-37 0 -64 -19 -72 -58l-39 13c10 46 48 81 113 81c58 0 107 -27 107 -89
c0 -46 -29 -81 -88 -86z" />
    <glyph glyph-name="uni2084" unicode="&#x2084;" horiz-adv-x="323" 
d="M198 0v95h-183v33l181 225h45v-224h60v-34h-60v-95h-43zM199 128v125c0 36 3 60 3 60h-3s-9 -22 -35 -55l-69 -86c-24 -30 -41 -43 -41 -43v-3s15 2 49 2h96z" />
    <glyph glyph-name="uni2085" unicode="&#x2085;" horiz-adv-x="297" 
d="M52 164l8 189h188v-37h-152l-6 -120c13 17 39 30 71 30c59 0 104 -37 104 -111c0 -78 -50 -121 -130 -121c-67 0 -110 35 -115 85l38 14c7 -44 38 -65 80 -65c49 0 85 27 85 83c0 52 -30 81 -73 81c-31 0 -49 -12 -63 -28h-35z" />
    <glyph glyph-name="uni2086" unicode="&#x2086;" horiz-adv-x="315" 
d="M281 290l-35 -16c-12 34 -36 49 -71 49c-58 0 -99 -54 -102 -157v-24h3c7 52 45 85 100 85c68 0 112 -49 112 -115c0 -62 -41 -118 -123 -118c-43 0 -77 17 -100 51c-20 28 -30 68 -30 121c0 132 65 194 143 194c50 0 88 -25 103 -70zM87 109c0 -49 34 -82 80 -82
c48 0 81 33 81 82s-33 82 -80 82s-81 -33 -81 -82z" />
    <glyph glyph-name="uni2087" unicode="&#x2087;" horiz-adv-x="284" 
d="M220 315h-161v-55h-39v93h248v-24l-141 -329h-44z" />
    <glyph glyph-name="uni2088" unicode="&#x2088;" horiz-adv-x="327" 
d="M163 162c-45 0 -82 -22 -82 -68c0 -44 33 -67 82 -67c50 0 83 23 83 67c0 46 -38 68 -83 68zM163 -6c-74 0 -126 35 -126 97c0 45 30 78 76 86v2c-42 10 -68 40 -68 84c0 60 48 97 118 97s118 -37 118 -97c0 -44 -25 -74 -68 -84v-2c47 -8 77 -41 77 -86
c0 -62 -52 -97 -127 -97zM163 326c-45 0 -78 -24 -78 -64c0 -42 36 -65 78 -65c43 0 79 23 79 65c0 40 -33 64 -79 64z" />
    <glyph glyph-name="uni2089" unicode="&#x2089;" horiz-adv-x="315" 
d="M31 64l35 15c12 -33 36 -49 72 -49c62 0 101 56 103 158c1 3 1 21 1 24h-3c-7 -52 -45 -85 -100 -85c-68 0 -112 48 -112 114c0 63 41 119 123 119c43 0 77 -16 100 -51c20 -28 30 -68 30 -120c0 -133 -63 -195 -142 -195c-52 0 -92 24 -107 70zM228 244
c0 48 -34 82 -80 82c-48 0 -81 -33 -81 -82c0 -50 33 -83 80 -83s81 33 81 83z" />
    <glyph glyph-name="uni208A" unicode="&#x208a;" horiz-adv-x="440" 
d="M43 199h161v156h30v-156h163v-31h-163v-168h-30v168h-161v31z" />
    <glyph glyph-name="uni208B" unicode="&#x208b;" horiz-adv-x="441" 
d="M398 168h-355v31h355v-31z" />
    <glyph glyph-name="uni208C" unicode="&#x208c;" horiz-adv-x="441" 
d="M398 114h-355v31h355v-31zM398 228h-355v30h355v-30z" />
    <glyph glyph-name="uni208D" unicode="&#x208d;" horiz-adv-x="226" 
d="M83 174c0 -98 35 -159 93 -228h-39c-50 58 -88 128 -88 228c0 98 38 168 88 226h39c-58 -68 -93 -131 -93 -226z" />
    <glyph glyph-name="uni208E" unicode="&#x208e;" horiz-adv-x="226" 
d="M143 174c0 95 -36 158 -94 226h39c50 -58 88 -128 88 -226c0 -100 -38 -170 -88 -228h-39c58 69 94 130 94 228z" />
    <glyph glyph-name="uni20A1" unicode="&#x20a1;" horiz-adv-x="492" 
d="M95 -68l35 103c-50 41 -80 108 -80 204c0 163 90 251 222 251h11l29 87l34 -11l-27 -80c22 -4 42 -11 60 -21l29 86l34 -11l-33 -98c18 -18 33 -40 45 -67l-47 -25c-5 12 -11 24 -17 34l-118 -350c69 0 111 27 142 87l40 -27c-39 -71 -99 -103 -186 -103h-10l-32 -95
l-35 10l30 89c-22 4 -41 10 -60 20l-31 -94zM102 242c0 -66 16 -118 45 -154l121 359c-108 -1 -166 -81 -166 -205zM177 61c17 -11 36 -20 58 -24l127 379c-16 14 -35 23 -57 28z" />
    <glyph glyph-name="uni20A2" unicode="&#x20a2;" horiz-adv-x="500" 
d="M417 121l40 -27c-39 -71 -99 -103 -186 -103c-127 0 -218 82 -218 248c0 163 90 251 222 251c92 0 149 -38 182 -115l-47 -25c-24 63 -69 97 -136 97c-110 0 -169 -80 -169 -205c0 -116 49 -192 139 -206v218h40l5 -77c10 53 46 79 86 82c12 1 23 -1 32 -4l-4 -52
c-9 5 -19 7 -31 7c-47 0 -82 -34 -82 -109v-67c59 4 98 31 127 87z" />
    <glyph glyph-name="franc" unicode="&#x20a3;" horiz-adv-x="423" 
d="M345 166h-181v-166h-52v166h-82v36h82v64h-82v36h82v179h291v-44h-239v-135h181v-36h-181v-64h181v-36z" />
    <glyph glyph-name="lira" unicode="&#x20a4;" horiz-adv-x="493" 
d="M327 156h-131c2 -8 3 -16 3 -24c0 -47 -21 -77 -51 -88h186c43 0 76 10 86 55l42 -20c-14 -55 -55 -79 -122 -79h-281v46h29c36 0 62 33 62 82c0 10 -2 19 -4 28h-101v37h90c-8 19 -18 40 -27 63h-63v37h55c-3 13 -4 29 -4 45c0 110 81 152 168 152s144 -39 158 -130
l-48 -8c-12 64 -46 96 -114 96c-66 0 -113 -34 -113 -110c0 -16 2 -31 6 -45h174v-37h-164l25 -63h139v-37z" />
    <glyph glyph-name="uni20A6" unicode="&#x20a6;" horiz-adv-x="629" 
d="M594 171h-80v-171h-56l-230 316c-38 52 -64 98 -64 98h-3s3 -59 3 -120v-294h-51v171h-77v37h77v58h-77v36h77v179h58l232 -322c37 -53 60 -94 60 -94h3s-3 60 -3 122v294h51v-179h80v-36h-80v-58h80v-37z" />
    <glyph glyph-name="peseta" unicode="&#x20a7;" horiz-adv-x="1079" 
d="M137 0h-52v481h143c105 0 164 -36 179 -109h281c7 85 79 118 160 118c92 0 150 -35 162 -126l-52 -7c-8 63 -47 93 -115 93c-62 0 -107 -29 -107 -87c0 -48 28 -73 84 -87l64 -15c73 -18 130 -55 130 -138c0 -92 -71 -132 -173 -132c-98 0 -160 43 -173 128l51 8
c10 -65 56 -97 126 -97s119 29 119 90c0 54 -32 79 -93 94l-68 17c-67 16 -104 47 -114 96h-117v-327h-52v327h-106c-2 -114 -68 -158 -186 -158h-91v-169zM137 438v-226h87c93 0 137 30 137 116c0 75 -41 110 -136 110h-88z" />
    <glyph glyph-name="uni20A8" unicode="&#x20a8;" horiz-adv-x="792" 
d="M137 438v-191h107c82 0 118 31 118 94c0 64 -37 97 -119 97h-106zM251 481c110 0 166 -45 166 -137c0 -78 -53 -116 -120 -120v-2c35 -7 55 -34 85 -61l75 -75c40 -38 84 -54 147 -54c48 0 89 15 89 59c0 35 -20 54 -69 65l-46 11c-54 12 -90 40 -90 99
c0 72 62 99 124 99c71 0 115 -27 124 -96l-49 -5c-7 42 -28 62 -80 62c-41 0 -71 -15 -71 -57c0 -34 19 -49 62 -59l42 -9c67 -17 100 -48 100 -109c0 -69 -56 -101 -143 -101c-95 0 -145 28 -197 80l-75 76c-32 32 -53 58 -101 58h-87v-205h-51v481h165z" />
    <glyph glyph-name="uni20A9" unicode="&#x20a9;" horiz-adv-x="784" 
d="M749 187h-120l-54 -187h-65l-90 306c-22 75 -26 127 -26 127h-3s-5 -51 -27 -127l-89 -306h-67l-53 187h-119v35h109l-17 59h-92v36h82l-46 164h52l92 -323c22 -76 27 -124 27 -124h3s7 47 29 123l92 324h54l92 -324c22 -76 28 -123 29 -123h2s6 46 27 121l93 326h50
l-48 -164h83v-36h-93l-18 -59h111v-35z" />
    <glyph glyph-name="uni20AA" unicode="&#x20aa;" horiz-adv-x="628" 
d="M413 119h-52v223c0 58 -19 96 -95 96h-137v-438h-52v481h197c116 0 139 -58 139 -148v-214zM505 481h52v-333c0 -91 -23 -148 -139 -148h-199v355h52v-312h139c76 0 95 38 95 96v342z" />
    <glyph glyph-name="uni20AE" unicode="&#x20ae;" horiz-adv-x="435" 
d="M243 0h-52v169l-124 -21v35l124 21v60l-124 -21v36l124 21v137h-171v44h395v-44h-172v-129l121 21v-36l-121 -20v-60l121 20v-35l-121 -21v-177z" />
    <glyph glyph-name="uni20B1" unicode="&#x20b1;" horiz-adv-x="545" 
d="M521 303h-82c-10 -95 -75 -134 -184 -134h-92v-169h-52v303h-81v36h81v142h144c119 0 181 -46 185 -142h81v-36zM163 438v-99h224c-4 67 -45 99 -136 99h-88zM250 212c83 0 127 24 135 91h-222v-91h87z" />
    <glyph glyph-name="afii61289" unicode="&#x2113;" horiz-adv-x="317" 
d="M38 151l-21 33l67 50v255c0 116 37 180 115 180c70 0 94 -57 94 -134c0 -142 -74 -246 -162 -320v-101c0 -60 26 -81 72 -81c26 0 46 5 70 18v-44c-20 -10 -47 -16 -76 -16c-70 0 -113 35 -113 115v81zM131 498v-232c72 64 124 154 124 274c0 50 -14 91 -56 91
c-44 0 -68 -50 -68 -133z" />
    <glyph glyph-name="afii61352" unicode="&#x2116;" horiz-adv-x="970" 
d="M641 0v42h266v-42h-266zM140 395v-289c0 -77 -29 -109 -96 -124l-17 47c47 10 61 28 61 86v474h57l280 -410c36 -52 65 -106 65 -106h4s-4 55 -4 121v281c0 77 29 110 96 125l17 -47c-46 -10 -61 -28 -61 -86v-467h-56l-282 410c-36 52 -65 106 -65 106h-3s4 -55 4 -121z
M773 143c-83 0 -135 56 -135 160c0 105 52 159 135 159s136 -54 136 -159c0 -104 -53 -160 -136 -160zM772 422c-57 0 -86 -41 -86 -119c0 -81 29 -122 86 -122s86 41 86 122c0 78 -29 119 -86 119z" />
    <glyph glyph-name="servicemark" unicode="&#x2120;" horiz-adv-x="594" 
d="M36 401l37 7c6 -32 28 -43 60 -43c31 0 53 10 53 39c0 23 -14 37 -44 44l-31 7c-38 9 -65 30 -65 69c0 52 43 71 87 71c52 0 83 -19 89 -65l-36 -6c-5 32 -23 42 -54 42c-28 0 -49 -11 -49 -38c0 -21 11 -34 41 -42l31 -7c41 -9 69 -32 69 -74c0 -48 -40 -68 -93 -68
c-54 0 -87 20 -95 64zM526 342h-36v190h-4l-67 -141h-31l-68 142h-4v-191h-36v248h48l75 -154h3l73 154h47v-248z" />
    <glyph glyph-name="ohm" unicode="&#x2126;" horiz-adv-x="624" 
d="M312 553c-125 0 -197 -91 -197 -248c0 -131 67 -222 149 -257v-48h-200v48h127c-56 27 -131 128 -131 261c0 182 94 289 252 289s252 -107 252 -289c0 -133 -75 -234 -131 -261h127v-48h-200v48c82 35 149 126 149 257c0 157 -72 248 -197 248z" />
    <glyph glyph-name="estimated" unicode="&#x212e;" horiz-adv-x="647" 
d="M323 600c196 0 279 -151 279 -306v-26h-431v-168c37 -36 88 -58 152 -58c89 0 149 37 184 103h66c-38 -91 -119 -156 -250 -156c-194 0 -278 151 -278 305c0 155 84 306 278 306zM323 547c-64 0 -115 -21 -152 -58v-169h304v169c-37 37 -87 58 -152 58z" />
    <glyph glyph-name="uni2153" unicode="&#x2153;" horiz-adv-x="793" 
d="M287 236h-246v35h107v274l-110 -17v37l154 26v-320h95v-35zM227 0l324 590h41l-324 -590h-41zM640 185v-3c63 -4 100 -38 100 -92c0 -61 -53 -96 -121 -96c-74 0 -117 35 -125 82l40 14c8 -38 40 -62 85 -62s77 22 77 65c0 45 -33 72 -118 73v32c71 3 107 24 107 68
c0 38 -28 58 -66 58s-64 -19 -72 -58l-39 13c10 46 48 81 113 81c58 0 107 -27 107 -89c0 -46 -29 -81 -88 -86z" />
    <glyph glyph-name="uni2154" unicode="&#x2154;" horiz-adv-x="792" 
d="M286 272v-36h-247v34c98 67 186 132 186 213c0 48 -29 74 -72 74c-51 0 -73 -38 -74 -77l-37 15c0 50 41 101 117 101c59 0 111 -35 111 -110c0 -101 -115 -178 -174 -211v-3h190zM226 0l324 590h41l-323 -590h-42zM639 185v-3c63 -4 100 -38 100 -92
c0 -61 -52 -96 -121 -96c-74 0 -117 35 -125 82l40 14c8 -38 40 -62 85 -62s77 22 77 65c0 45 -33 72 -118 73v32c71 3 107 24 107 68c0 38 -28 58 -66 58c-37 0 -64 -19 -72 -58l-39 13c10 46 48 81 113 81c58 0 107 -27 107 -89c0 -46 -29 -81 -88 -86z" />
    <glyph glyph-name="uni215B" unicode="&#x215b;" horiz-adv-x="805" 
d="M287 236h-246v35h107v274l-110 -17v37l154 26v-320h95v-35zM227 0l324 590h41l-324 -590h-41zM642 162c-45 0 -83 -22 -83 -68c0 -44 33 -67 83 -67c49 0 82 23 82 67c0 46 -37 68 -82 68zM642 -6c-75 0 -127 35 -127 97c0 45 30 78 77 86v2c-43 10 -68 40 -68 84
c0 60 48 97 118 97s118 -37 118 -97c0 -44 -26 -74 -68 -84v-2c46 -8 76 -41 76 -86c0 -62 -52 -97 -126 -97zM642 326c-46 0 -78 -24 -78 -64c0 -42 36 -65 78 -65s78 23 78 65c0 40 -32 64 -78 64z" />
    <glyph glyph-name="uni215C" unicode="&#x215c;" horiz-adv-x="784" 
d="M174 421v-3c63 -4 101 -38 101 -92c0 -61 -53 -96 -121 -96c-75 0 -117 35 -125 82l39 14c8 -38 41 -62 86 -62s76 22 76 65c0 45 -32 72 -117 73v32c71 3 106 24 106 68c0 38 -27 58 -66 58c-37 0 -63 -19 -71 -58l-39 13c10 46 48 81 113 81c57 0 107 -27 107 -89
c0 -46 -29 -81 -89 -86zM206 0l324 590h40l-323 -590h-41zM620 162c-45 0 -82 -22 -82 -68c0 -44 33 -67 82 -67c50 0 82 23 82 67c0 46 -37 68 -82 68zM620 -6c-74 0 -126 35 -126 97c0 45 30 78 76 86v2c-42 10 -68 40 -68 84c0 60 48 97 118 97s118 -37 118 -97
c0 -44 -26 -74 -68 -84v-2c47 -8 77 -41 77 -86c0 -62 -52 -97 -127 -97zM620 326c-46 0 -78 -24 -78 -64c0 -42 36 -65 78 -65s78 23 78 65c0 40 -32 64 -78 64z" />
    <glyph glyph-name="uni215D" unicode="&#x215d;" horiz-adv-x="785" 
d="M65 400l8 189h188v-37h-152l-6 -120c13 17 39 30 71 30c60 0 104 -37 104 -111c0 -78 -50 -121 -130 -121c-67 0 -110 35 -115 85l38 14c7 -44 38 -65 81 -65c48 0 84 27 84 83c0 52 -30 81 -73 81c-31 0 -49 -12 -63 -28h-35zM207 0l324 590h41l-323 -590h-42zM622 162
c-45 0 -82 -22 -82 -68c0 -44 33 -67 82 -67s82 23 82 67c0 46 -37 68 -82 68zM622 -6c-75 0 -127 35 -127 97c0 45 31 78 77 86v2c-42 10 -68 40 -68 84c0 60 48 97 118 97s118 -37 118 -97c0 -44 -26 -74 -68 -84v-2c46 -8 76 -41 76 -86c0 -62 -52 -97 -126 -97zM622 326
c-46 0 -78 -24 -78 -64c0 -42 36 -65 78 -65s78 23 78 65c0 40 -32 64 -78 64z" />
    <glyph glyph-name="uni215E" unicode="&#x215e;" horiz-adv-x="725" 
d="M233 551h-161v-55h-39v93h248v-24l-141 -329h-43zM147 0l324 590h41l-324 -590h-41zM561 162c-45 0 -82 -22 -82 -68c0 -44 33 -67 82 -67c50 0 83 23 83 67c0 46 -38 68 -83 68zM561 -6c-74 0 -126 35 -126 97c0 45 30 78 76 86v2c-42 10 -68 40 -68 84
c0 60 48 97 118 97s118 -37 118 -97c0 -44 -25 -74 -68 -84v-2c47 -8 77 -41 77 -86c0 -62 -52 -97 -127 -97zM561 326c-45 0 -78 -24 -78 -64c0 -42 36 -65 78 -65c43 0 79 23 79 65c0 40 -33 64 -79 64z" />
    <glyph glyph-name="arrowleft" unicode="&#x2190;" horiz-adv-x="670" 
d="M111 318h509v-48h-510l239 -248l-36 -33l-291 304l291 305l37 -32z" />
    <glyph glyph-name="arrowup" unicode="&#x2191;" horiz-adv-x="690" 
d="M370 511v-511h-49v512l-248 -239l-33 36l304 291l305 -291l-32 -37z" />
    <glyph glyph-name="arrowright" unicode="&#x2192;" horiz-adv-x="670" 
d="M35 318h509l-237 248l37 32l289 -305l-288 -304l-36 33l237 248h-511v48z" />
    <glyph glyph-name="arrowdown" unicode="&#x2193;" horiz-adv-x="694" 
d="M320 78v511h49v-512l248 240l32 -36l-303 -292l-306 292l33 36z" />
    <glyph glyph-name="uni2196" unicode="&#x2196;" horiz-adv-x="692" 
d="M637 0l-505 508v-399h-47v480h467v-46h-387l507 -508z" />
    <glyph glyph-name="uni2197" unicode="&#x2197;" horiz-adv-x="692" 
d="M527 543h-388v46h467v-480h-46v399l-505 -508l-35 35z" />
    <glyph glyph-name="uni2198" unicode="&#x2198;" horiz-adv-x="692" 
d="M55 589l505 -507v398h46v-480h-467v46h388l-507 508z" />
    <glyph glyph-name="uni2199" unicode="&#x2199;" horiz-adv-x="692" 
d="M132 82l505 507l35 -35l-507 -508h387v-46h-467v480h47v-398z" />
    <glyph glyph-name="partialdiff" unicode="&#x2202;" horiz-adv-x="493" 
d="M138 639l29 32c174 -70 278 -240 278 -422c0 -174 -77 -256 -199 -256s-197 84 -197 239s75 236 189 236c60 0 107 -27 131 -65h2c-37 92 -105 177 -233 236zM393 232c0 125 -53 192 -149 192c-94 0 -145 -67 -145 -192s51 -195 147 -195c97 0 147 70 147 195z" />
    <glyph glyph-name="increment" unicode="&#x2206;" horiz-adv-x="532" 
d="M514 0h-495l212 589h71zM441 45l-128 365c-30 83 -46 141 -46 141h-4s-16 -57 -45 -140l-128 -366h351z" />
    <glyph glyph-name="product" unicode="&#x220f;" horiz-adv-x="594" 
d="M136 -202h-52v791h426v-791h-52v742h-322v-742z" />
    <glyph glyph-name="summation" unicode="&#x2211;" horiz-adv-x="433" 
d="M393 543h-192c-63 0 -93 2 -93 2v-3s28 -26 66 -70l151 -177l-156 -178c-38 -44 -65 -70 -65 -70v-3s29 2 92 2h197v-46h-384l250 295l-250 294h384v-46z" />
    <glyph glyph-name="minus" unicode="&#x2212;" horiz-adv-x="507" 
d="M49 231v34h408v-34h-408z" />
    <glyph glyph-name="radical" unicode="&#x221a;" horiz-adv-x="567" 
d="M178 456l140 -397h3l188 627l48 -6l-206 -680h-58l-143 383l-105 -59l-21 41z" />
    <glyph glyph-name="infinity" unicode="&#x221e;" horiz-adv-x="868" 
d="M102 252c0 -85 54 -131 120 -131c48 0 86 19 124 60l61 72l-61 71c-37 42 -76 60 -124 60c-66 0 -120 -45 -120 -132zM434 222l-57 -66c-41 -50 -89 -77 -154 -77c-99 0 -169 67 -169 173c0 107 70 174 169 174c65 0 114 -29 154 -76l57 -67l57 67c40 47 89 76 154 76
c99 0 169 -67 169 -174c0 -106 -70 -173 -169 -173c-65 0 -113 27 -154 77zM766 252c0 87 -54 132 -120 132c-48 0 -87 -18 -123 -60l-62 -71l62 -72c36 -42 75 -60 123 -60c66 0 120 46 120 131z" />
    <glyph glyph-name="integral" unicode="&#x222b;" horiz-adv-x="263" 
d="M103 -62v593c0 99 60 138 130 138c31 0 60 -8 83 -22l-13 -47c-21 15 -47 25 -71 25c-46 0 -78 -28 -78 -97v-593c0 -99 -60 -139 -130 -139c-31 0 -60 9 -83 22l13 47c20 -14 46 -25 71 -25c46 0 78 29 78 98z" />
    <glyph glyph-name="approxequal" unicode="&#x2248;" horiz-adv-x="507" 
d="M365 264c-77 0 -149 50 -223 50c-33 0 -66 -15 -93 -48v39c23 32 60 45 91 45c74 0 152 -51 227 -51c30 0 64 18 90 50v-44c-24 -28 -54 -41 -92 -41zM365 144c-77 0 -149 52 -223 52c-33 0 -66 -16 -93 -50v41c23 31 60 44 91 44c74 0 152 -51 227 -51c30 0 64 17 90 50
v-45c-24 -27 -54 -41 -92 -41z" />
    <glyph glyph-name="notequal" unicode="&#x2260;" horiz-adv-x="507" 
d="M457 291h-137l-78 -93h215v-34h-244l-99 -119l-26 23l80 96h-119v34h148l78 93h-226v35h254l94 112l27 -23l-75 -89h108v-35z" />
    <glyph glyph-name="lessequal" unicode="&#x2264;" horiz-adv-x="405" 
d="M332 460l-221 -171l221 -172l-24 -28l-256 200l256 199zM355 21h-306v34h306v-34z" />
    <glyph glyph-name="greaterequal" unicode="&#x2265;" horiz-adv-x="405" 
d="M294 289l-221 171l24 28l256 -199l-256 -200l-24 28zM355 21h-306v34h306v-34z" />
    <glyph glyph-name="blacksquare" unicode="&#x25a0;" horiz-adv-x="768" 
d="M89 0v589h589v-589h-589z" />
    <glyph glyph-name="whitesquare" unicode="&#x25a1;" horiz-adv-x="768" 
d="M89 0v589h589v-589h-589zM132 546v-503h503v503h-503z" />
    <glyph glyph-name="blacksmallsquare" unicode="&#x25aa;" horiz-adv-x="505" 
d="M89 139v325h326v-325h-326z" />
    <glyph glyph-name="whitesmallsquare" unicode="&#x25ab;" horiz-adv-x="505" 
d="M89 139v325h326v-325h-326zM132 421v-239h240v239h-240z" />
    <glyph glyph-name="triagup" unicode="&#x25b2;" horiz-adv-x="580" 
d="M44 0l245 601l246 -601h-491z" />
    <glyph glyph-name="triagrt" unicode="&#x25ba;" horiz-adv-x="695" 
d="M85 536l601 -245l-601 -246v491z" />
    <glyph glyph-name="triagdn" unicode="&#x25bc;" horiz-adv-x="580" 
d="M289 -12l-245 601h491z" />
    <glyph glyph-name="triaglf" unicode="&#x25c4;" horiz-adv-x="695" 
d="M4 291l601 245v-491z" />
    <glyph glyph-name="lozenge" unicode="&#x25ca;" horiz-adv-x="488" 
d="M438 304l-176 -333h-37l-175 333l175 327h37zM387 303l-142 272l-143 -272l143 -277z" />
    <glyph glyph-name="circle" unicode="&#x25cb;" horiz-adv-x="532" 
d="M49 295c0 120 96 217 216 217s217 -97 217 -217s-97 -216 -217 -216s-216 96 -216 216zM94 294c0 -96 77 -174 172 -174s173 78 173 174c0 97 -78 176 -173 176s-172 -79 -172 -176z" />
    <glyph glyph-name="blackcircle" unicode="&#x25cf;" horiz-adv-x="712" 
d="M49 294c0 169 137 307 306 307s307 -138 307 -307s-138 -306 -307 -306s-306 137 -306 306z" />
    <glyph glyph-name="anglebracketleft" unicode="&#x3008;" horiz-adv-x="318" 
d="M273 -203h-47l-167 438l167 433h47l-162 -434z" />
    <glyph glyph-name="anglebracketright" unicode="&#x3009;" horiz-adv-x="318" 
d="M92 -203h-47l163 437l-163 434h47l167 -433z" />
    <glyph glyph-name=".null" horiz-adv-x="0" 
 />
    <glyph glyph-name="CR" horiz-adv-x="221" 
 />
    <glyph glyph-name="zero.OP" unicode="&#xe54a;" horiz-adv-x="567" 
d="M284 -9c-153 0 -236 111 -236 249c0 139 83 250 236 250c151 0 235 -111 235 -250c0 -138 -84 -249 -235 -249zM284 445c-120 0 -184 -89 -184 -205c0 -118 64 -205 184 -205c119 0 183 87 183 205c0 116 -64 205 -183 205z" />
    <glyph glyph-name="one.OP" unicode="&#xe54c;" horiz-adv-x="322" 
d="M212 0h-51v430l-141 -32v44l192 46v-488z" />
    <glyph glyph-name="two.OP" unicode="&#xe54d;" horiz-adv-x="434" 
d="M398 44v-44h-363v44c175 74 282 169 282 287c0 79 -50 116 -116 116c-62 0 -108 -36 -117 -119l-48 10c16 117 93 152 169 152c87 0 165 -45 165 -157c0 -142 -139 -247 -265 -286v-3h293z" />
    <glyph glyph-name="three.OP" unicode="&#xe54e;" horiz-adv-x="435" 
d="M213 191v-4c97 -7 171 -68 171 -161c0 -103 -87 -164 -184 -164c-113 0 -181 55 -191 140l49 9c13 -74 63 -108 141 -108s134 47 134 124c0 79 -59 131 -195 138v43c121 10 180 52 180 136c0 70 -54 103 -117 103c-62 0 -108 -32 -122 -104l-48 11c15 79 73 136 172 136
c87 0 167 -44 167 -146c0 -84 -62 -144 -157 -153z" />
    <glyph glyph-name="four.OP" unicode="&#xe54f;" horiz-adv-x="490" 
d="M314 -131v185h-299v36l299 391h51v-384h98v-43h-98v-185h-51zM143 97h171v230c0 60 4 96 4 96h-3s-18 -32 -59 -88l-130 -171c-36 -47 -57 -67 -57 -67v-3s25 3 74 3z" />
    <glyph glyph-name="five.OP" unicode="&#xe540;" horiz-adv-x="434" 
d="M76 158l13 323h283v-45h-238l-11 -243c21 24 57 43 108 43c96 0 168 -63 168 -185c0 -125 -82 -190 -197 -190c-106 0 -171 58 -180 142l45 9c11 -74 65 -111 137 -111c83 0 146 47 146 148c0 93 -53 148 -134 148c-46 0 -76 -18 -100 -39h-40z" />
    <glyph glyph-name="six.OP" unicode="&#xe551;" horiz-adv-x="496" 
d="M442 483l-46 -18c-21 61 -61 90 -121 90c-100 0 -172 -93 -176 -277v-44h2c15 91 80 141 165 141c117 0 188 -80 188 -191c0 -104 -67 -193 -197 -193c-73 0 -131 32 -167 98c-24 46 -37 109 -37 189c0 218 103 320 224 320c82 0 139 -40 165 -115zM118 181
c0 -86 58 -148 142 -148c87 0 144 61 144 148c0 89 -58 150 -144 150c-85 0 -142 -61 -142 -150z" />
    <glyph glyph-name="seven.OP" unicode="&#xe552;" horiz-adv-x="436" 
d="M346 436h-274v-87h-49v132h377v-37l-226 -575h-51z" />
    <glyph glyph-name="eight.OP" unicode="&#xe553;" horiz-adv-x="482" 
d="M241 -9c-113 0 -192 59 -192 159c0 75 47 130 119 147v4c-66 19 -106 67 -106 141c0 94 72 156 179 156s179 -62 179 -156c0 -74 -40 -122 -106 -141v-4c73 -17 120 -72 120 -147c0 -100 -80 -159 -193 -159zM241 559c-80 0 -128 -46 -128 -117c0 -81 53 -121 128 -121
c76 0 128 40 128 121c0 71 -47 117 -128 117zM241 279c-81 0 -143 -43 -143 -124c0 -78 58 -125 143 -125c86 0 143 47 143 125c0 81 -62 124 -143 124z" />
    <glyph glyph-name="nine.OP" unicode="&#xe554;" horiz-adv-x="493" 
d="M33 -21l46 18c20 -61 64 -95 132 -95c127 0 180 130 183 303v44h-3c-12 -96 -79 -147 -164 -147c-118 0 -189 83 -189 191c0 104 63 197 195 197c64 0 117 -23 155 -73c34 -47 52 -117 52 -213c0 -217 -84 -342 -230 -342c-92 0 -152 42 -177 117zM375 297
c0 89 -60 151 -143 151c-88 0 -146 -62 -146 -151c0 -90 56 -153 146 -153c84 0 143 63 143 153z" />
    <glyph glyph-name="zero.LP" unicode="&#xe534;" horiz-adv-x="541" 
d="M271 -9c-145 0 -222 131 -222 303c0 168 80 304 222 304c141 0 221 -136 221 -304c0 -172 -77 -303 -221 -303zM270 553c-105 0 -169 -109 -169 -260c0 -148 64 -260 169 -260c106 0 169 112 169 260c0 151 -63 260 -169 260z" />
    <glyph glyph-name="one.LP" unicode="&#xe536;" horiz-adv-x="304" 
d="M200 0h-51v532l-136 -30v48l187 42v-592z" />
    <glyph glyph-name="two.LP" unicode="&#xe537;" horiz-adv-x="437" 
d="M408 46v-46h-371v40c143 105 305 226 305 374c0 92 -56 141 -136 141c-84 0 -127 -54 -127 -120c0 -48 24 -87 57 -111l-40 -23c-31 21 -67 70 -67 134c0 83 58 163 179 163c100 0 186 -56 186 -183c0 -168 -191 -312 -291 -365v-4h305z" />
    <glyph glyph-name="three.LP" unicode="&#xe538;" horiz-adv-x="424" 
d="M218 309v-4c101 -4 171 -61 171 -156c0 -100 -86 -158 -187 -158c-114 0 -183 54 -193 137l51 9c12 -72 63 -106 141 -106c80 0 136 45 136 119c0 82 -58 130 -195 134v42c123 10 178 48 178 131c0 66 -51 98 -117 98c-65 0 -107 -34 -121 -102l-50 11
c15 77 72 134 174 134c91 0 167 -44 167 -141c0 -85 -59 -140 -155 -148z" />
    <glyph glyph-name="four.LP" unicode="&#xe539;" horiz-adv-x="488" 
d="M315 0v161h-299v37l299 391h50v-386h99v-42h-99v-161h-50zM315 203v232c0 60 4 95 4 95h-3s-17 -32 -59 -88l-129 -170c-36 -48 -57 -69 -57 -69v-3s25 3 74 3h170z" />
    <glyph glyph-name="five.LP" unicode="&#xe53a;" horiz-adv-x="440" 
d="M76 283l12 306h288v-46h-243l-9 -220c21 23 54 43 106 43c97 0 170 -63 170 -185c0 -125 -82 -190 -197 -190c-113 0 -172 57 -181 141l46 10c11 -75 61 -111 137 -111c82 0 144 47 144 148c0 93 -52 147 -132 147c-46 0 -76 -20 -100 -43h-41z" />
    <glyph glyph-name="six.LP" unicode="&#xe53b;" horiz-adv-x="490" 
d="M439 483l-46 -18c-21 61 -61 90 -122 90c-100 0 -170 -92 -173 -277v-42h2c15 90 77 139 162 139c117 0 188 -80 188 -191c0 -104 -67 -193 -194 -193c-69 0 -124 27 -160 85c-30 46 -47 113 -47 202c0 218 103 320 225 320c82 0 138 -40 165 -115zM114 181
c0 -87 59 -149 142 -149c88 0 144 61 144 149c0 89 -57 150 -144 150c-84 0 -142 -61 -142 -150z" />
    <glyph glyph-name="seven.LP" unicode="&#xe53c;" horiz-adv-x="420" 
d="M345 545h-279v-87h-49v131h383v-37l-217 -552h-52z" />
    <glyph glyph-name="eight.LP" unicode="&#xe53d;" horiz-adv-x="477" 
d="M238 -9c-113 0 -192 59 -192 159c0 75 47 130 119 147v4c-65 19 -105 67 -105 141c0 94 72 156 178 156c107 0 179 -62 179 -156c0 -74 -40 -122 -105 -141v-4c72 -17 119 -72 119 -147c0 -100 -79 -159 -193 -159zM238 558c-80 0 -127 -45 -127 -116
c0 -81 52 -121 127 -121c76 0 127 40 127 121c0 71 -46 116 -127 116zM238 279c-81 0 -141 -43 -141 -124c0 -78 56 -124 141 -124c86 0 142 46 142 124c0 81 -61 124 -142 124z" />
    <glyph glyph-name="nine.LP" unicode="&#xe53e;" horiz-adv-x="497" 
d="M46 105l45 19c21 -60 62 -92 130 -92c118 0 178 113 178 282v44h-3c-12 -96 -79 -146 -164 -146c-117 0 -189 82 -189 190c0 103 64 196 194 196c70 0 126 -27 162 -84c31 -46 49 -112 49 -200c0 -216 -89 -323 -228 -323c-92 0 -148 40 -174 114zM380 406
c0 88 -60 150 -143 150c-88 0 -145 -61 -145 -150c0 -90 58 -152 145 -152c84 0 143 62 143 152z" />
    <glyph glyph-name="zero.LT" unicode="&#xe53f;" horiz-adv-x="570" 
d="M285 -9c-145 0 -222 131 -222 303c0 168 80 304 222 304c141 0 221 -136 221 -304c0 -172 -77 -303 -221 -303zM284 553c-105 0 -169 -109 -169 -260c0 -148 64 -260 169 -260c106 0 169 112 169 260c0 151 -63 260 -169 260z" />
    <glyph glyph-name="one.LT" unicode="&#xe541;" horiz-adv-x="570" 
d="M494 0h-390v46h179v487l-179 -39v47l230 51v-546h160v-46z" />
    <glyph glyph-name="two.LT" unicode="&#xe542;" horiz-adv-x="570" 
d="M486 46v-46h-382v40c143 105 305 226 305 374c0 92 -56 141 -137 141c-84 0 -127 -54 -127 -120c0 -48 25 -87 58 -111l-40 -23c-31 21 -67 70 -67 134c0 83 58 163 179 163c100 0 186 -56 186 -183c0 -168 -192 -312 -292 -365v-4h317z" />
    <glyph glyph-name="three.LT" unicode="&#xe543;" horiz-adv-x="570" 
d="M289 309v-4c101 -4 171 -61 171 -156c0 -100 -86 -158 -187 -158c-114 0 -183 54 -193 137l51 9c12 -72 63 -106 141 -106c80 0 135 45 135 119c0 82 -57 130 -194 134v42c123 10 178 48 178 131c0 66 -51 98 -117 98c-65 0 -107 -34 -121 -102l-50 11
c15 77 72 134 174 134c91 0 167 -44 167 -141c0 -85 -59 -140 -155 -148z" />
    <glyph glyph-name="four.LT" unicode="&#xe544;" horiz-adv-x="570" 
d="M360 0v161h-299v37l299 391h50v-386h99v-42h-99v-161h-50zM360 203v232c0 60 4 95 4 95h-3s-17 -32 -59 -88l-129 -170c-36 -48 -57 -69 -57 -69v-3s25 3 74 3h170z" />
    <glyph glyph-name="five.LT" unicode="&#xe545;" horiz-adv-x="570" 
d="M141 283l12 306h288v-46h-244l-9 -220c21 23 55 43 106 43c98 0 170 -63 170 -185c0 -125 -82 -190 -197 -190c-113 0 -171 57 -180 141l45 10c11 -75 62 -111 137 -111c83 0 145 47 145 148c0 93 -52 147 -133 147c-46 0 -75 -20 -100 -43h-40z" />
    <glyph glyph-name="six.LT" unicode="&#xe546;" horiz-adv-x="570" 
d="M481 483l-47 -18c-20 61 -60 90 -121 90c-100 0 -170 -92 -173 -276v-43h2c15 90 77 139 162 139c117 0 188 -80 188 -191c0 -104 -67 -193 -194 -193c-69 0 -124 27 -160 85c-31 46 -47 113 -47 202c0 218 103 320 225 320c82 0 138 -40 165 -115zM156 181
c0 -87 58 -149 142 -149c88 0 144 61 144 149c0 89 -57 150 -144 150c-84 0 -142 -61 -142 -150z" />
    <glyph glyph-name="seven.LT" unicode="&#xe547;" horiz-adv-x="570" 
d="M416 545h-279v-87h-49v131h383v-37l-217 -552h-52z" />
    <glyph glyph-name="eight.LT" unicode="&#xe548;" horiz-adv-x="570" 
d="M285 -9c-113 0 -193 59 -193 159c0 75 47 130 120 147v4c-66 19 -106 67 -106 141c0 94 72 156 179 156s179 -62 179 -156c0 -74 -40 -122 -106 -141v-4c73 -17 120 -72 120 -147c0 -100 -80 -159 -193 -159zM285 558c-80 0 -127 -45 -127 -116c0 -81 51 -121 127 -121
s127 40 127 121c0 71 -47 116 -127 116zM285 279c-81 0 -142 -43 -142 -124c0 -78 57 -124 142 -124s142 46 142 124c0 81 -61 124 -142 124z" />
    <glyph glyph-name="nine.LT" unicode="&#xe549;" horiz-adv-x="570" 
d="M80 105l46 19c20 -60 61 -92 129 -92c119 0 178 113 178 282v44h-3c-12 -96 -79 -146 -164 -146c-117 0 -189 82 -189 190c0 103 64 196 195 196c69 0 125 -27 162 -84c31 -46 48 -112 48 -200c0 -216 -88 -323 -228 -323c-91 0 -148 40 -174 114zM414 406
c0 88 -60 150 -143 150c-88 0 -144 -61 -144 -150c0 -90 57 -152 144 -152c84 0 143 62 143 152z" />
    <glyph glyph-name="zero.OT" unicode="&#xe555;" horiz-adv-x="570" 
d="M285 -9c-152 0 -236 111 -236 249c0 139 84 250 236 250s235 -111 235 -250c0 -138 -83 -249 -235 -249zM285 445c-120 0 -184 -89 -184 -205c0 -118 64 -205 184 -205c119 0 183 87 183 205c0 116 -64 205 -183 205z" />
    <glyph glyph-name="one.OT" unicode="&#xe557;" horiz-adv-x="570" 
d="M503 0h-407v43h185v387l-178 -39v46l230 51v-445h170v-43z" />
    <glyph glyph-name="two.OT" unicode="&#xe558;" horiz-adv-x="570" 
d="M472 44v-44h-368v44c175 74 282 169 282 287c0 79 -50 116 -116 116c-62 0 -108 -36 -117 -119l-48 10c16 117 93 152 169 152c87 0 165 -45 165 -157c0 -142 -139 -247 -265 -286v-3h298z" />
    <glyph glyph-name="three.OT" unicode="&#xe559;" horiz-adv-x="570" 
d="M279 191v-4c96 -7 171 -68 171 -161c0 -103 -87 -164 -185 -164c-113 0 -180 55 -190 140l49 9c12 -74 62 -108 141 -108c78 0 133 47 133 124c0 79 -58 131 -194 138v43c121 10 180 52 180 136c0 70 -55 103 -117 103c-63 0 -109 -32 -122 -104l-49 11
c15 79 73 136 173 136c86 0 166 -44 166 -146c0 -84 -62 -144 -156 -153z" />
    <glyph glyph-name="four.OT" unicode="&#xe55a;" horiz-adv-x="570" 
d="M360 -131v185h-299v36l299 391h51v-384h98v-43h-98v-185h-51zM189 97h171v230c0 60 4 96 4 96h-3s-18 -32 -59 -88l-130 -171c-36 -47 -57 -67 -57 -67v-3s25 3 74 3z" />
    <glyph glyph-name="five.OT" unicode="&#xe55b;" horiz-adv-x="570" 
d="M146 158l13 323h282v-45h-238l-10 -243c21 24 57 43 108 43c92 0 167 -63 167 -185c0 -125 -81 -190 -196 -190c-107 0 -172 58 -181 142l46 9c11 -74 65 -111 137 -111c83 0 146 47 146 145c0 96 -54 151 -134 151c-46 0 -76 -18 -100 -39h-40z" />
    <glyph glyph-name="six.OT" unicode="&#xe55c;" horiz-adv-x="570" 
d="M485 483l-46 -18c-21 61 -61 90 -122 90c-99 0 -172 -93 -175 -277c-1 -6 -1 -38 -1 -44h3c14 91 80 141 164 141c118 0 188 -80 188 -191c0 -104 -67 -193 -196 -193c-68 0 -123 27 -158 85c-30 46 -47 113 -47 202c0 218 104 320 225 320c82 0 139 -40 165 -115z
M160 181c0 -86 59 -148 143 -148c87 0 144 61 144 148c0 89 -58 150 -144 150c-85 0 -143 -61 -143 -150z" />
    <glyph glyph-name="seven.OT" unicode="&#xe55d;" horiz-adv-x="570" 
d="M419 436h-274v-87h-49v132h377v-37l-226 -575h-51z" />
    <glyph glyph-name="eight.OT" unicode="&#xe55e;" horiz-adv-x="570" 
d="M285 -9c-113 0 -193 59 -193 159c0 75 47 130 120 147v4c-66 19 -106 67 -106 141c0 94 72 156 179 156s179 -62 179 -156c0 -74 -40 -122 -106 -141v-4c73 -17 120 -72 120 -147c0 -100 -80 -159 -193 -159zM285 559c-80 0 -128 -46 -128 -117c0 -81 52 -121 128 -121
s128 40 128 121c0 71 -48 117 -128 117zM285 279c-81 0 -143 -43 -143 -124c0 -78 58 -125 143 -125s143 47 143 125c0 81 -62 124 -143 124z" />
    <glyph glyph-name="nine.OT" unicode="&#xe55f;" horiz-adv-x="570" 
d="M70 -21l46 18c21 -61 64 -95 132 -95c127 0 181 130 183 303c0 6 1 38 1 44h-4c-12 -96 -79 -147 -163 -147c-118 0 -190 83 -190 191c0 104 64 197 195 197c64 0 118 -23 155 -73c35 -47 53 -117 53 -213c0 -217 -85 -342 -231 -342c-91 0 -151 42 -177 117zM412 297
c0 89 -59 151 -142 151c-89 0 -146 -62 -146 -151c0 -90 56 -153 146 -153c84 0 142 63 142 153z" />
    <glyph glyph-name="a.school" unicode="&#xe151;" horiz-adv-x="514" 
d="M386 188v94c0 103 -73 147 -138 147c-86 0 -151 -58 -151 -204c0 -128 59 -192 146 -192c68 0 142 48 143 155zM386 380l16 82h35v-462h-44l-7 97c-23 -72 -83 -106 -156 -106c-101 0 -184 77 -184 233c0 160 75 247 201 247c72 0 124 -43 139 -91z" />
    <glyph glyph-name="g.school" unicode="&#xe161;" horiz-adv-x="513" 
d="M437 462v-454c0 -162 -101 -218 -200 -218c-104 0 -164 42 -194 115l43 23c24 -61 74 -96 150 -96c87 0 150 53 150 171v94c-23 -72 -83 -106 -156 -106c-101 0 -184 77 -184 233c0 157 75 247 201 247c71 0 124 -43 139 -91l16 82h35zM386 188v94
c0 103 -73 147 -138 147c-86 0 -151 -58 -151 -204c0 -128 59 -192 146 -192c67 0 143 48 143 155z" />
    <glyph glyph-name="y.school" unicode="&#xe16b;" horiz-adv-x="489" 
d="M71 462h51v-312c0 -83 36 -120 104 -120c70 0 135 59 135 164v268h51v-462c0 -154 -81 -210 -190 -210c-92 0 -145 41 -174 114l43 22c24 -63 66 -94 132 -94c95 0 138 55 138 162v101c-19 -69 -76 -104 -149 -104c-84 0 -141 43 -141 152v319z" />
    <glyph glyph-name="caronSlovak" unicode="&#xe413;" horiz-adv-x="236" 
d="M157 668l-39 -175h-37l16 175h60z" />
    <glyph glyph-name="invertedbreve" unicode="&#xe411;" horiz-adv-x="409" 
d="M205 661c76 0 120 -47 120 -129h-42c-3 58 -24 89 -78 89s-76 -31 -79 -89h-42c0 82 45 129 121 129z" />
    <glyph glyph-name="doublegrave" unicode="&#xe412;" horiz-adv-x="430" 
d="M345 533h-38l-94 136h67zM223 533h-40l-99 136h68z" />
    <glyph glyph-name="acute.cap" unicode="&#xe422;" horiz-adv-x="303" 
d="M129 642h-45l64 121h70z" />
    <glyph glyph-name="grave.cap" unicode="&#xe421;" horiz-adv-x="303" 
d="M218 642h-45l-89 121h70z" />
    <glyph glyph-name="circumflex.cap" unicode="&#xe423;" horiz-adv-x="429" 
d="M199 767h31l115 -125h-58l-42 47c-20 23 -29 39 -29 39h-2s-9 -16 -29 -39l-43 -47h-58z" />
    <glyph glyph-name="dieresis.cap" unicode="&#xe429;" horiz-adv-x="417" 
d="M84 690c0 21 17 38 38 38c22 0 38 -17 38 -38s-16 -38 -38 -38c-21 0 -38 17 -38 38zM256 689c0 22 17 38 38 38s38 -16 38 -38c0 -21 -17 -38 -38 -38s-38 17 -38 38z" />
    <glyph glyph-name="tilde.cap" unicode="&#xe424;" horiz-adv-x="454" 
d="M295 647c-30 0 -49 15 -72 30c-25 17 -40 29 -61 29c-27 0 -42 -17 -34 -59h-33c-22 58 8 105 62 105c33 0 53 -14 78 -31c24 -18 37 -28 57 -28c25 0 40 17 33 61h35c20 -61 -7 -107 -65 -107z" />
    <glyph glyph-name="ring.cap" unicode="&#xe42a;" horiz-adv-x="347" 
d="M174 629c-57 0 -90 38 -90 87c0 45 35 84 90 84s89 -39 89 -84c0 -49 -33 -87 -89 -87zM174 773c-36 0 -57 -25 -57 -59c0 -32 20 -55 57 -55s57 23 57 55c0 34 -21 59 -57 59z" />
    <glyph glyph-name="caron.cap" unicode="&#xe42d;" horiz-adv-x="429" 
d="M230 639h-31l-115 126h58l43 -48c20 -23 29 -38 29 -38h2s9 15 29 38l42 48h58z" />
    <glyph glyph-name="macron.cap" unicode="&#xe425;" horiz-adv-x="409" 
d="M315 667h-222v41h222v-41z" />
    <glyph glyph-name="breve.cap" unicode="&#xe426;" horiz-adv-x="409" 
d="M204 638c-75 0 -120 45 -120 123h42c3 -56 27 -83 78 -83c52 0 76 27 79 83h41c0 -78 -44 -123 -120 -123z" />
    <glyph glyph-name="invertedbreve.cap" unicode="&#xe427;" horiz-adv-x="409" 
d="M204 765c76 0 120 -45 120 -123h-41c-3 55 -27 83 -79 83c-51 0 -75 -28 -78 -83h-42c0 78 45 123 120 123z" />
    <glyph glyph-name="hungarumlaut.cap" unicode="&#xe42b;" horiz-adv-x="430" 
d="M123 642h-39l66 121h67zM246 642h-39l71 121h67z" />
    <glyph glyph-name="doublegrave.cap" unicode="&#xe42c;" horiz-adv-x="430" 
d="M345 642h-38l-94 121h67zM223 642h-40l-99 121h68z" />
    <glyph glyph-name="dotaccent.cap" unicode="&#xe428;" horiz-adv-x="245" 
d="M84 698c0 22 17 38 38 38c22 0 38 -16 38 -38c0 -21 -16 -38 -38 -38c-21 0 -38 17 -38 38z" />
    <glyph glyph-name="barredO" horiz-adv-x="608" 
d="M304 -9c-156 0 -256 108 -256 303s100 304 256 304s256 -109 256 -304s-100 -303 -256 -303zM304 37c125 0 195 88 201 235h-402c6 -147 76 -235 201 -235zM304 552c-124 0 -194 -88 -201 -232h402c-8 144 -78 232 -201 232z" />
    <glyph glyph-name="Ndescender" horiz-adv-x="629" 
d="M542 -203h-52v199l-286 414c-36 52 -65 106 -65 106h-4s4 -55 4 -121v-395h-52v589h57l281 -410c35 -52 65 -106 65 -106h3s-3 55 -3 121v395h52v-792z" />
    <glyph glyph-name="barredo" 
d="M243 -9c-121 0 -197 85 -197 242c0 156 76 238 197 238c123 0 198 -82 198 -238c0 -157 -75 -242 -198 -242zM243 32c91 0 143 62 147 182h-293c4 -120 55 -182 146 -182zM243 428c-89 0 -140 -57 -146 -170h293c-6 113 -58 170 -147 170z" />
    <glyph glyph-name="ndescender" horiz-adv-x="492" 
d="M116 462l7 -106c21 70 77 115 155 115c80 0 141 -43 141 -146v-529h-51v516c0 73 -36 114 -102 114c-73 0 -138 -51 -138 -164v-262h-51v462h39z" />
    <glyph glyph-name="doublebar" unicode="&#x2016;" horiz-adv-x="373" 
d="M150 -203h-46v872h46v-872zM268 -203h-46v872h46v-872z" />
    <glyph glyph-name="bullet.cap" unicode="&#xe466;" horiz-adv-x="298" 
d="M87 293c0 34 28 63 62 63s62 -29 62 -63c0 -33 -28 -61 -62 -61s-62 28 -62 61z" />
    <glyph glyph-name="registered.superior" unicode="&#xe514;" horiz-adv-x="475" 
d="M134 495c47 61 131 69 188 19c58 -50 66 -127 19 -188c-47 -60 -131 -69 -189 -19c-56 50 -65 128 -18 188zM171 313c40 -29 92 -28 131 0h-10c-4 7 -7 13 -10 24l-6 27c-4 21 -20 31 -41 31h-38v-82h-26zM313 500c-38 35 -91 39 -132 14h66c40 0 69 -19 69 -60
c0 -32 -22 -50 -50 -51c20 -4 33 -14 38 -34l7 -30c1 -5 3 -10 5 -14l9 10c42 51 37 120 -12 165zM150 487c-42 -52 -37 -120 11 -165c2 -3 5 -5 8 -7v190c-7 -5 -13 -11 -19 -18zM197 490v-74h44c34 0 48 15 48 37c0 24 -16 37 -45 37h-47z" />
    <glyph glyph-name="published" unicode="&#x2117;" horiz-adv-x="706" 
d="M381 258h-88v-142h-45v367h132c78 0 127 -37 127 -112c0 -74 -51 -113 -126 -113zM293 445v-148h80c61 0 89 25 89 74c0 48 -32 74 -89 74h-80zM49 294c0 177 136 304 304 304c167 0 304 -127 304 -304s-137 -303 -304 -303c-168 0 -304 126 -304 303zM75 294
c0 -163 125 -279 278 -279c154 0 279 116 279 279s-125 280 -279 280c-153 0 -278 -117 -278 -280z" />
    <glyph glyph-name="zero.inf" unicode="&#xe571;" horiz-adv-x="339" 
d="M170 -209c-88 0 -135 77 -135 183s50 183 135 183c84 0 134 -77 134 -183s-46 -183 -134 -183zM170 118c-59 0 -91 -60 -91 -145c0 -83 33 -146 91 -146c57 0 91 63 91 146c0 85 -33 145 -91 145z" />
    <glyph glyph-name="one.inf" unicode="&#xe572;" horiz-adv-x="287" 
d="M276 -203h-247v35h107v274l-110 -17v37l155 26v-320h95v-35z" />
    <glyph glyph-name="two.inf" unicode="&#xe573;" horiz-adv-x="290" 
d="M268 -167v-36h-246v34c97 67 185 132 185 213c0 48 -28 74 -72 74c-51 0 -73 -38 -73 -77l-38 15c0 50 41 101 117 101c60 0 111 -35 111 -110c0 -101 -114 -178 -174 -211v-3h190z" />
    <glyph glyph-name="three.inf" unicode="&#xe574;" horiz-adv-x="290" 
d="M157 -18v-3c63 -4 100 -38 100 -92c0 -61 -52 -96 -121 -96c-74 0 -117 35 -125 82l40 14c8 -38 40 -62 85 -62s77 22 77 65c0 45 -33 72 -117 73v32c70 3 106 24 106 68c0 38 -27 58 -66 58c-37 0 -64 -19 -72 -58l-39 13c10 46 48 81 113 81c58 0 107 -27 107 -89
c0 -46 -29 -81 -88 -86z" />
    <glyph glyph-name="four.inf" unicode="&#xe575;" horiz-adv-x="323" 
d="M198 -203v95h-183v33l181 225h45v-224h60v-34h-60v-95h-43zM199 -75v125c0 36 3 60 3 60h-3s-9 -22 -35 -55l-69 -86c-24 -30 -41 -43 -41 -43v-3s15 2 49 2h96z" />
    <glyph glyph-name="five.inf" unicode="&#xe576;" horiz-adv-x="297" 
d="M52 -39l8 189h188v-37h-152l-6 -120c13 17 39 30 71 30c59 0 104 -37 104 -111c0 -78 -50 -121 -130 -121c-67 0 -110 35 -115 85l38 14c7 -44 38 -65 80 -65c49 0 85 27 85 83c0 52 -30 81 -73 81c-31 0 -49 -12 -63 -28h-35z" />
    <glyph glyph-name="six.inf" unicode="&#xe577;" horiz-adv-x="315" 
d="M281 87l-35 -16c-12 34 -36 49 -71 49c-58 0 -99 -54 -102 -157v-24h3c7 52 45 85 100 85c68 0 112 -49 112 -115c0 -62 -41 -118 -123 -118c-43 0 -77 17 -100 51c-20 28 -30 68 -30 121c0 132 65 194 143 194c50 0 88 -25 103 -70zM87 -94c0 -49 34 -82 80 -82
c48 0 81 33 81 82s-33 82 -80 82s-81 -33 -81 -82z" />
    <glyph glyph-name="seven.inf" unicode="&#xe578;" horiz-adv-x="284" 
d="M220 112h-161v-55h-39v93h248v-24l-141 -329h-44z" />
    <glyph glyph-name="eight.inf" unicode="&#xe579;" horiz-adv-x="327" 
d="M163 -41c-45 0 -82 -22 -82 -68c0 -44 33 -67 82 -67c50 0 83 23 83 67c0 46 -38 68 -83 68zM163 -209c-74 0 -126 35 -126 97c0 45 30 78 76 86v2c-42 10 -68 40 -68 84c0 60 48 97 118 97s118 -37 118 -97c0 -44 -25 -74 -68 -84v-2c47 -8 77 -41 77 -86
c0 -62 -52 -97 -127 -97zM163 123c-45 0 -78 -24 -78 -64c0 -42 36 -65 78 -65c43 0 79 23 79 65c0 40 -33 64 -79 64z" />
    <glyph glyph-name="nine.inf" unicode="&#xe57a;" horiz-adv-x="315" 
d="M31 -139l35 15c12 -33 36 -49 72 -49c62 0 101 56 104 159v23h-3c-7 -52 -45 -85 -100 -85c-68 0 -112 48 -112 114c0 63 41 119 123 119c43 0 77 -16 100 -51c20 -28 30 -68 30 -120c0 -133 -63 -195 -142 -195c-52 0 -92 24 -107 70zM228 41c0 48 -34 82 -80 82
c-48 0 -81 -33 -81 -82c0 -50 33 -83 80 -83s81 33 81 83z" />
    <glyph glyph-name="plus.inf" unicode="&#xe57b;" horiz-adv-x="440" 
d="M43 -4h161v156h30v-156h163v-31h-163v-168h-30v168h-161v31z" />
    <glyph glyph-name="minus.inf" unicode="&#xe57c;" horiz-adv-x="441" 
d="M398 -35h-355v31h355v-31z" />
    <glyph glyph-name="equal.inf" unicode="&#xe57d;" horiz-adv-x="441" 
d="M398 -89h-355v31h355v-31zM398 25h-355v31h355v-31z" />
    <glyph glyph-name="parenleft.inf" unicode="&#xe57e;" horiz-adv-x="226" 
d="M83 -29c0 -97 35 -158 93 -228h-39c-50 59 -88 128 -88 228c0 98 38 168 88 227h39c-58 -68 -93 -131 -93 -227z" />
    <glyph glyph-name="parenright.inf" unicode="&#xe57f;" horiz-adv-x="226" 
d="M143 -29c0 96 -36 159 -94 227h39c50 -59 88 -129 88 -227c0 -100 -38 -169 -88 -228h-39c58 70 94 131 94 228z" />
    <glyph glyph-name="a.superior" unicode="&#xe361;" horiz-adv-x="324" 
d="M213 384v48c-8 1 -16 2 -25 2c-74 0 -111 -19 -111 -65c0 -33 20 -54 59 -54c38 0 77 24 77 69zM259 506v-151c0 -25 8 -34 22 -34c8 0 14 3 19 6v-35c-7 -5 -19 -7 -31 -7c-31 0 -51 14 -54 52c-14 -39 -51 -55 -91 -55c-56 0 -93 30 -93 82c0 62 47 99 149 99
c11 0 21 -1 33 -2v35c0 50 -25 68 -64 68c-36 0 -62 -17 -66 -55l-41 5c4 65 57 87 109 87c57 0 108 -24 108 -95z" />
    <glyph glyph-name="b.superior" unicode="&#xe362;" horiz-adv-x="357" 
d="M101 463v-53c0 -68 43 -95 87 -95c56 0 94 40 94 128c0 82 -34 121 -88 121c-48 0 -92 -34 -93 -101zM99 340l-13 -52h-30v433h45v-192c15 45 53 72 104 72c74 0 123 -53 123 -154c0 -98 -49 -165 -133 -165c-50 0 -86 27 -96 58z" />
    <glyph glyph-name="c.superior" unicode="&#xe363;" horiz-adv-x="315" 
d="M248 375l39 -8c-10 -62 -58 -85 -117 -85c-78 0 -131 54 -131 158c0 101 52 161 135 161c66 0 106 -34 110 -98l-42 -7c-5 46 -27 69 -70 69c-59 0 -88 -50 -88 -124c0 -75 31 -124 90 -124c41 0 63 15 74 58z" />
    <glyph glyph-name="d.superior" unicode="&#xe364;" horiz-adv-x="366" 
d="M266 411v63c0 65 -44 91 -87 91c-51 0 -96 -35 -96 -128c0 -81 38 -120 93 -120c44 0 90 28 90 94zM265 543v178h46v-433h-36l-8 62c-20 -48 -56 -68 -105 -68c-66 0 -123 51 -123 153c0 105 51 166 136 166c48 0 82 -27 90 -58z" />
    <glyph glyph-name="e.superior" unicode="&#xe365;" horiz-adv-x="327" 
d="M176 317c41 0 67 18 75 56l39 -10c-12 -59 -59 -81 -118 -81c-79 0 -133 53 -133 158c0 101 53 161 135 161c77 0 117 -52 117 -125c0 -16 -2 -28 -4 -39h-203c-2 -81 35 -120 92 -120zM85 469h161c1 5 1 11 1 17c-1 45 -24 80 -75 80c-54 0 -82 -34 -87 -97z" />
    <glyph glyph-name="f.superior" unicode="&#xe366;" horiz-adv-x="192" 
d="M64 558h-45v36h45v33c0 73 46 98 96 98c25 0 47 -6 63 -15l-10 -38c-16 11 -31 16 -51 16c-33 0 -53 -19 -53 -65v-29h79v-36h-79v-270h-45v270z" />
    <glyph glyph-name="g.superior" unicode="&#xe367;" horiz-adv-x="322" 
d="M153 601c39 0 69 -11 90 -32c17 9 26 28 29 54l38 -13c-4 -31 -26 -52 -51 -59c9 -15 14 -33 14 -53c0 -68 -51 -103 -119 -103c-16 0 -30 2 -42 7c-14 -7 -24 -18 -24 -32c0 -20 15 -29 40 -29h79c58 0 100 -25 100 -82c0 -76 -85 -96 -159 -96c-67 0 -133 18 -133 81
c0 41 31 69 81 73c-32 3 -47 22 -47 46c0 21 14 39 41 45c-35 16 -54 47 -54 90c0 63 47 103 117 103zM59 248c0 -39 41 -54 93 -54c62 0 111 15 111 62c0 31 -21 47 -61 47h-71c-41 0 -72 -17 -72 -55zM79 497c0 -45 28 -73 74 -73c47 0 76 25 76 73c0 45 -29 72 -76 72
c-45 0 -74 -28 -74 -72z" />
    <glyph glyph-name="h.superior" unicode="&#xe368;" horiz-adv-x="354" 
d="M101 721v-192c14 45 52 72 100 72c53 0 101 -29 101 -105v-208h-46v199c0 50 -23 76 -66 76c-41 0 -89 -25 -89 -110v-165h-45v433h45z" />
    <glyph glyph-name="i.superior" unicode="&#xe369;" horiz-adv-x="159" 
d="M49 687c0 18 14 33 31 33c19 0 33 -15 33 -33s-14 -31 -33 -31c-17 0 -31 13 -31 31zM56 594h46v-306h-46v306z" />
    <glyph glyph-name="j.superior" unicode="&#xe36a;" horiz-adv-x="159" 
d="M56 594h46v-314c0 -76 -33 -115 -119 -115v38c53 0 73 17 73 84v307zM49 687c0 18 15 33 31 33c18 0 33 -15 33 -33s-15 -31 -33 -31c-16 0 -31 13 -31 31z" />
    <glyph glyph-name="k.superior" unicode="&#xe36b;" horiz-adv-x="307" 
d="M166 453l132 -165h-55l-115 145h-27v-145h-45v433h45v-255h26l105 128h54z" />
    <glyph glyph-name="l.superior" unicode="&#xe36c;" horiz-adv-x="179" 
d="M150 330v-37c-12 -6 -22 -9 -41 -9c-35 0 -57 20 -57 61v376h46v-363c0 -25 10 -34 26 -34c9 0 18 2 26 6z" />
    <glyph glyph-name="m.superior" unicode="&#xe36d;" horiz-adv-x="534" 
d="M287 526c14 48 49 75 100 75c53 0 95 -29 95 -105v-208h-46v199c0 50 -22 76 -62 76c-43 0 -82 -28 -82 -110v-165h-46v199c0 50 -21 76 -62 76s-82 -28 -82 -110v-165h-46v306h35l6 -68c15 48 49 75 99 75c45 0 83 -23 91 -75z" />
    <glyph glyph-name="o.superior" unicode="&#xe36e;" horiz-adv-x="348" 
d="M174 282c-83 0 -135 56 -135 160c0 105 52 159 135 159s136 -54 136 -159c0 -104 -53 -160 -136 -160zM174 566c-59 0 -89 -42 -89 -123c0 -84 30 -127 89 -127s89 43 89 127c0 81 -30 123 -89 123z" />
    <glyph glyph-name="p.superior" unicode="&#xe36f;" horiz-adv-x="368" 
d="M102 463v-53c0 -68 43 -95 87 -95c56 0 94 40 94 128c0 82 -34 121 -88 121c-48 0 -92 -34 -93 -101zM102 340v-171h-46v425h35l10 -66c14 46 54 73 105 73c74 0 123 -53 123 -154c0 -102 -50 -165 -133 -165c-50 0 -84 27 -94 58z" />
    <glyph glyph-name="q.superior" unicode="&#xe360;" horiz-adv-x="367" 
d="M266 411v63c0 65 -44 91 -87 91c-51 0 -96 -35 -96 -128c0 -81 38 -120 93 -120c44 0 90 28 90 94zM266 543l13 51h32v-425h-45v178c-21 -48 -55 -65 -104 -65c-66 0 -123 51 -123 153c0 105 51 166 136 166c48 0 83 -27 91 -58z" />
    <glyph glyph-name="r.superior" unicode="&#xe371;" horiz-adv-x="238" 
d="M221 597l-3 -51c-8 4 -18 6 -30 6c-50 0 -86 -45 -86 -113v-151h-46v306h40l5 -83c12 53 47 87 100 89c7 0 14 -1 20 -3z" />
    <glyph glyph-name="s.superior" unicode="&#xe372;" horiz-adv-x="287" 
d="M25 362l43 7c7 -38 33 -54 72 -54c41 0 72 16 72 52c0 29 -17 44 -58 54l-40 9c-48 11 -77 36 -77 85c0 62 54 86 107 86c61 0 99 -23 106 -82l-43 -4c-6 34 -24 52 -67 52c-35 0 -61 -15 -61 -49c0 -28 17 -42 53 -49l36 -9c58 -14 85 -39 85 -92
c0 -59 -48 -86 -113 -86s-106 26 -115 80z" />
    <glyph glyph-name="t.superior" unicode="&#xe373;" horiz-adv-x="221" 
d="M192 338l10 -36c-17 -13 -43 -20 -69 -20c-49 0 -78 27 -78 79v197h-43v36h43v62l46 7v-69h84v-36h-84v-189c0 -34 14 -50 39 -50c21 0 36 5 52 19z" />
    <glyph glyph-name="u.superior" unicode="&#xe374;" horiz-adv-x="352" 
d="M260 288l-6 67c-14 -47 -55 -73 -102 -73c-54 0 -101 29 -101 105v207h45v-199c0 -52 23 -76 67 -76c41 0 86 26 86 109v166h46v-306h-35z" />
    <glyph glyph-name="v.superior" unicode="&#xe375;" horiz-adv-x="309" 
d="M128 288l-113 306h48l72 -203c18 -48 19 -78 19 -78h4s3 29 20 78l71 203h45l-111 -306h-55z" />
    <glyph glyph-name="w.superior" unicode="&#xe376;" horiz-adv-x="447" 
d="M245 594l51 -188c18 -61 21 -91 21 -91h3s1 30 17 91l51 188h44l-85 -306h-56l-50 177c-14 48 -16 91 -16 91h-3s-2 -43 -15 -91l-50 -177h-54l-88 306h46l52 -187c17 -61 18 -92 18 -92h3s2 31 19 92l51 187h41z" />
    <glyph glyph-name="x.superior" horiz-adv-x="298" 
d="M234 288l-59 88c-22 33 -25 44 -25 44h-3s-3 -11 -25 -44l-59 -88h-47l105 155l-99 151h50l52 -81c21 -35 25 -48 25 -48h3s3 14 24 47l52 82h49l-100 -149l105 -157h-48z" />
    <glyph glyph-name="y.superior" unicode="&#xe378;" horiz-adv-x="304" 
d="M65 594l70 -191c16 -47 18 -74 18 -74h3s3 26 19 73l68 192h46l-117 -316c-32 -84 -66 -116 -119 -116c-15 0 -32 3 -44 9l1 36c14 -7 26 -10 42 -10c37 0 58 24 82 92l-117 305h48z" />
    <glyph glyph-name="z.superior" unicode="&#xe379;" horiz-adv-x="286" 
d="M258 288h-230v27l171 242v1h-165v36h218v-31l-170 -238v-2h176v-35z" />
    <glyph glyph-name="cordinal" unicode="&#xe181;" horiz-adv-x="321" 
d="M252 375l39 -8c-10 -62 -58 -85 -117 -85c-78 0 -131 54 -131 158c0 101 52 161 135 161c66 0 106 -34 110 -98l-42 -7c-5 46 -27 69 -70 69c-59 0 -88 -50 -88 -124c0 -75 31 -124 90 -124c41 0 63 15 74 58z" />
    <glyph glyph-name="parenleft.cap" unicode="&#xe491;" horiz-adv-x="322" 
d="M79 290c0 164 72 277 167 374h60c-109 -114 -176 -215 -176 -374c0 -158 67 -260 176 -374h-60c-95 97 -167 210 -167 374z" />
    <glyph glyph-name="parenright.cap" unicode="&#xe492;" horiz-adv-x="322" 
d="M243 290c0 -164 -72 -277 -167 -374h-59c109 114 175 216 175 374c0 159 -66 260 -175 374h59c95 -97 167 -210 167 -374z" />
    <glyph glyph-name="bracketleft.cap" unicode="&#xe493;" horiz-adv-x="314" 
d="M137 623v-665h146v-40h-194v746h194v-41h-146z" />
    <glyph glyph-name="bracketright.cap" unicode="&#xe494;" horiz-adv-x="314" 
d="M177 -42v665h-146v41h194v-746h-194v40h146z" />
    <glyph glyph-name="braceleft.cap" unicode="&#xe495;" horiz-adv-x="393" 
d="M137 293v-3c45 -5 74 -29 74 -99v-145c0 -69 27 -97 76 -97c31 0 51 7 70 17l11 -40c-30 -11 -55 -16 -88 -16c-86 0 -116 52 -116 134v142c0 69 -33 85 -71 85h-44v41h44c38 0 71 16 71 85v143c0 82 30 134 116 134c33 0 58 -6 88 -17l-11 -40c-19 10 -39 17 -70 17
c-49 0 -76 -28 -76 -97v-145c0 -72 -29 -94 -74 -99z" />
    <glyph glyph-name="braceright.cap" unicode="&#xe496;" horiz-adv-x="393" 
d="M256 290v3c-45 5 -74 27 -74 99v145c0 69 -27 97 -76 97c-31 0 -51 -7 -70 -17l-11 40c30 11 55 17 88 17c86 0 116 -52 116 -134v-143c0 -69 33 -85 71 -85h43v-41h-43c-38 0 -71 -16 -71 -85v-142c0 -82 -30 -134 -116 -134c-33 0 -58 5 -88 16l11 40
c19 -10 39 -17 70 -17c49 0 76 28 76 97v145c0 70 29 94 74 99z" />
    <glyph glyph-name="onethirdemdash" unicode="&#xe471;" horiz-adv-x="446" 
d="M74 240v39h297v-39h-297z" />
    <glyph glyph-name="threequarteremdash" unicode="&#xe472;" horiz-adv-x="374" 
d="M74 240v39h225v-39h-225z" />
    <glyph glyph-name="periodcentered.cap" unicode="&#xe481;" horiz-adv-x="254" 
d="M84 297c0 25 19 43 43 43s42 -18 42 -43c0 -24 -18 -42 -42 -42s-43 18 -43 42z" />
    <glyph glyph-name="hyphen.cap" unicode="&#xe482;" horiz-adv-x="373" 
d="M74 273v45h224v-45h-224z" />
    <glyph glyph-name="onethirdemdash.cap" unicode="&#xe483;" horiz-adv-x="446" 
d="M74 273v39h297v-39h-297z" />
    <glyph glyph-name="endash.cap" unicode="&#xe484;" horiz-adv-x="509" 
d="M74 273v39h360v-39h-360z" />
    <glyph glyph-name="threequarteremdash.cap" unicode="&#xe485;" horiz-adv-x="374" 
d="M74 273v39h225v-39h-225z" />
    <glyph glyph-name="emdash.cap" unicode="&#xe486;" horiz-adv-x="1009" 
d="M74 273v39h860v-39h-860z" />
    <glyph glyph-name="figuredash.cap" unicode="&#xe487;" horiz-adv-x="608" 
d="M74 273v39h459v-39h-459z" />
    <glyph glyph-name="anglebracketleft.cap" unicode="&#xe497;" horiz-adv-x="318" 
d="M279 -77h-49l-168 375l168 370h49l-165 -371z" />
    <glyph glyph-name="anglebracketright.cap" unicode="&#xe498;" horiz-adv-x="318" 
d="M88 -77h-48l165 374l-165 371h48l169 -370z" />
    <glyph glyph-name="Euro.LP" unicode="&#xe521;" horiz-adv-x="556" 
d="M343 221h-196c17 -116 78 -183 180 -183c79 0 128 34 164 108l39 -30c-43 -84 -106 -125 -205 -125c-125 0 -213 80 -234 230h-58v36h54v36c0 14 0 28 1 42h-55v36h59c24 147 116 227 242 227c95 0 161 -45 196 -140l-47 -23c-26 78 -79 118 -153 118
c-100 0 -163 -68 -182 -182h228l-8 -36h-224c-1 -14 -1 -27 -1 -42c0 -12 0 -24 1 -36h207z" />
    <glyph glyph-name="dollar.LP" unicode="&#xe522;" horiz-adv-x="471" 
d="M212 -106v97c-103 4 -166 56 -181 157l50 10c12 -79 60 -119 131 -125v247c-85 28 -161 60 -161 163c0 108 78 150 161 155v86h36v-86c91 -6 154 -51 166 -154l-51 -8c-10 74 -50 112 -115 119v-232c94 -31 170 -66 170 -173c0 -100 -70 -152 -170 -158v-98h-36zM365 144
c0 64 -35 94 -117 124v-235c72 6 117 43 117 111zM103 447c0 -63 39 -87 109 -111v219c-62 -5 -109 -38 -109 -108z" />
    <glyph glyph-name="cent.LP" unicode="&#xe523;" horiz-adv-x="489" 
d="M247 -66v97c-116 9 -197 91 -197 248c0 152 78 240 197 250v85h36v-84c85 -3 139 -41 171 -115l-47 -25c-22 59 -63 92 -124 96v-412c62 3 102 30 131 87l40 -27c-37 -67 -92 -100 -171 -103v-97h-36zM102 282c0 -119 52 -195 145 -206v409c-95 -11 -145 -88 -145 -203z
" />
    <glyph glyph-name="sterling.LP" unicode="&#xe524;" horiz-adv-x="443" 
d="M313 269h-146c11 -36 20 -72 20 -105c0 -73 -36 -111 -68 -121h194c43 0 75 10 85 55l41 -22c-14 -54 -54 -76 -120 -76h-286v45h27c39 0 77 44 77 117c0 33 -10 69 -22 107h-78v36h67c-13 43 -25 87 -25 132c0 115 79 161 164 161s140 -38 154 -127l-48 -11
c-11 63 -42 94 -108 94c-63 0 -109 -37 -109 -117c0 -45 12 -89 25 -132h156v-36z" />
    <glyph glyph-name="florin.LP" unicode="&#xe525;" horiz-adv-x="365" 
d="M59 0l54 307h-77l8 46h77l19 106c18 101 68 139 137 139c48 0 86 -21 103 -48l-30 -38c-22 31 -44 42 -78 42c-42 0 -68 -27 -80 -95l-20 -106h123l-9 -46h-122l-54 -307h-51z" />
    <glyph glyph-name="yen.LP" unicode="&#xe526;" horiz-adv-x="480" 
d="M69 238h146l-35 64h-111v36h91l-140 251h59l118 -216c36 -66 46 -93 46 -93h3s10 27 44 93l114 216h56l-136 -251h98v-36h-117l-35 -64h152v-36h-152v-202h-53v202h-148v36z" />
    <glyph glyph-name="uni20A1.LP" unicode="&#xe527;" horiz-adv-x="484" 
d="M97 0l35 104c-50 40 -80 108 -80 204c0 162 90 251 222 251h11l29 86l34 -11l-27 -79c23 -4 43 -11 60 -22l29 86l34 -11l-33 -97c18 -18 33 -41 45 -68l-47 -25c-5 13 -11 24 -17 34l-118 -350c68 0 111 27 142 87l40 -27c-39 -71 -99 -103 -186 -103h-10l-32 -95
l-35 10l30 89c-22 4 -41 11 -60 20l-31 -94zM104 310c0 -66 15 -118 45 -154l121 359c-108 -1 -166 -81 -166 -205zM179 129c16 -12 36 -20 58 -24l128 380c-16 13 -36 22 -58 27z" />
    <glyph glyph-name="uni20A2.LP" unicode="&#xe528;" horiz-adv-x="525" 
d="M453 302l-4 -56c-12 5 -26 7 -42 7c-66 0 -104 -54 -104 -154v-60c69 4 115 38 147 107l40 -30c-43 -84 -106 -125 -206 -125c-142 0 -238 105 -238 302s101 305 247 305c95 0 161 -45 197 -140l-47 -23c-27 78 -79 118 -153 118c-121 0 -188 -99 -188 -260
c0 -142 51 -234 150 -251v257h42l6 -103c13 73 55 107 118 111c13 0 25 -1 35 -5z" />
    <glyph glyph-name="uni20A3.LP" unicode="&#xe529;" horiz-adv-x="417" 
d="M341 230h-194v-230h-53v230h-61v36h61v64h-61v36h61v223h321v-46h-268v-177h194v-36h-194v-64h194v-36z" />
    <glyph glyph-name="uni20A4.LP" unicode="&#xe52a;" horiz-adv-x="438" 
d="M324 217h-149c3 -18 7 -35 7 -53c0 -73 -37 -111 -69 -121h195c43 0 75 10 85 55l40 -22c-14 -54 -54 -76 -119 -76h-286v45h26c39 0 77 44 77 117c0 18 -3 36 -7 55h-93v36h84c-6 21 -14 41 -20 64h-64v36h54c-7 28 -11 56 -11 84c0 115 78 161 164 161
c84 0 140 -38 153 -127l-47 -11c-11 63 -43 94 -109 94c-62 0 -109 -37 -109 -117c0 -29 5 -57 12 -84h186v-36h-177l20 -64h157v-36z" />
    <glyph glyph-name="uni20A6.LP" unicode="&#xe52b;" horiz-adv-x="646" 
d="M621 230h-80v-230h-56l-269 404c-35 52 -62 112 -62 112h-3s4 -55 4 -121v-395h-52v230h-79v36h79v64h-79v36h79v223h57l267 -406c35 -53 62 -110 62 -110h3s-4 55 -4 121v395h53v-223h80v-36h-80v-64h80v-36z" />
    <glyph glyph-name="uni20A7.LP" unicode="&#xe52c;" horiz-adv-x="1149" 
d="M606 0h-52v419h-109c0 -122 -65 -187 -196 -187h-109v-232h-53v589h158c117 0 178 -45 194 -126h295c11 101 91 136 173 136c103 0 176 -43 188 -155l-51 -8c-11 82 -59 120 -136 120c-71 0 -124 -34 -124 -109c0 -74 55 -95 150 -126c92 -30 165 -66 165 -171
c0 -107 -81 -159 -191 -159c-112 0 -180 51 -196 157l50 10c14 -85 67 -125 147 -125c83 0 137 37 137 111c0 70 -40 100 -143 134c-81 26 -158 53 -170 141h-127v-419zM140 544v-268h104c105 0 146 47 146 137c0 85 -46 131 -147 131h-103z" />
    <glyph glyph-name="uni20A8.LP" unicode="&#xe52d;" horiz-adv-x="887" 
d="M140 544v-240h128c93 0 139 41 139 120c0 78 -44 120 -139 120h-128zM269 589c133 0 193 -58 193 -162c0 -93 -70 -145 -143 -149v-2c55 -5 86 -40 129 -87l67 -72c31 -34 84 -86 169 -86c66 0 112 24 112 82c0 51 -28 77 -90 92l-60 15c-74 18 -114 52 -114 123
c0 94 76 128 154 128c88 0 142 -34 153 -122l-48 -6c-9 61 -41 87 -108 87c-61 0 -104 -27 -104 -82c0 -49 26 -70 83 -84l58 -15c75 -20 123 -50 123 -131c0 -89 -68 -127 -160 -127c-110 0 -165 50 -220 108l-68 72c-50 52 -79 88 -158 88h-97v-259h-53v589h182z" />
    <glyph glyph-name="uni20A9.LP" unicode="&#xe52e;" horiz-adv-x="840" 
d="M815 242h-113l-67 -242h-74l-108 391c-26 93 -32 148 -32 148h-3s-7 -55 -32 -148l-108 -391h-74l-68 242h-112v36h102l-18 64h-84v36h74l-59 211h56l111 -402c25 -93 35 -153 35 -153h3s9 59 35 152l114 403h58l111 -403c25 -93 35 -152 35 -152h3s10 59 36 151l111 404
h53l-59 -211h74v-36h-85l-17 -64h102v-36z" />
    <glyph glyph-name="uni20AA.LP" unicode="&#xe52f;" horiz-adv-x="648" 
d="M424 119h-52v332c0 58 -19 95 -96 95h-137v-546h-52v590h198c116 0 139 -57 139 -148v-323zM516 590h52v-442c0 -91 -23 -148 -139 -148h-200v464h52v-421h140c76 0 95 38 95 96v451z" />
    <glyph glyph-name="uni20AE.LP" unicode="&#xe520;" horiz-adv-x="467" 
d="M260 0h-53v218l-123 -20v35l123 21v60l-123 -21v36l123 20v194h-191v46h436v-46h-192v-185l121 21v-36l-121 -20v-60l121 20v-35l-121 -21v-227z" />
    <glyph glyph-name="uni20B1.LP" unicode="&#xe531;" horiz-adv-x="523" 
d="M513 389h-66c-9 -102 -74 -157 -193 -157h-110v-232h-52v389h-73v36h73v164h157c136 0 196 -60 199 -164h65v-36zM144 544v-119h250c-4 77 -51 119 -146 119h-104zM249 276c94 0 138 37 144 113h-249v-113h105z" />
    <glyph glyph-name="uni0E3F.LP" unicode="&#xe532;" horiz-adv-x="501" 
d="M242 -106v106h-155v589h155v95h36v-96c106 -7 154 -58 154 -148c0 -79 -45 -124 -108 -134v-3c70 -4 134 -50 134 -139c0 -96 -55 -156 -180 -163v-107h-36zM406 166c0 64 -41 105 -128 111v-232c81 6 128 42 128 121zM140 278v-233h102v233h-102zM140 322h102v222h-102
v-222zM379 433c0 68 -35 101 -101 109v-218c61 7 101 40 101 109z" />
    <glyph glyph-name="numbersign.LP" unicode="&#xe533;" horiz-adv-x="555" 
d="M510 213h-151l-62 -213h-43l62 213h-126l-62 -213h-43l62 213h-122v41h134l31 103h-145v41h156l56 190h43l-55 -190h125l56 190h43l-55 -190h116v-41h-129l-30 -103h139v-41zM232 357l-30 -103h126l31 103h-127z" />
    <glyph glyph-name="at.cap" unicode="&#xe513;" horiz-adv-x="862" 
d="M546 234v81c0 87 -62 124 -121 124c-77 0 -133 -49 -133 -174c0 -109 51 -163 129 -163c60 0 124 40 125 132zM593 472v-304c0 -45 23 -67 61 -67c83 0 116 87 116 219c0 192 -136 306 -330 306s-347 -127 -347 -360c0 -256 181 -354 377 -354c64 0 126 8 184 30l10 -41
c-57 -19 -120 -30 -195 -30c-213 0 -423 99 -423 395c0 236 149 401 396 401c254 0 374 -156 374 -346c0 -159 -46 -257 -165 -257c-60 0 -102 29 -105 90c-20 -63 -72 -92 -139 -92c-91 0 -164 66 -164 202c0 139 67 215 179 215c66 0 111 -37 124 -78l16 71h31z" />
    <glyph glyph-name="exclamdown.cap" unicode="&#xe441;" horiz-adv-x="225" 
d="M145 0h-66l16 423h35zM73 553c0 22 17 39 39 39c23 0 40 -17 40 -39c0 -23 -17 -40 -40 -40c-22 0 -39 17 -39 40z" />
    <glyph glyph-name="questiondown.cap" unicode="&#xe444;" horiz-adv-x="387" 
d="M334 140l45 -16c-16 -76 -72 -133 -173 -133c-110 0 -178 68 -178 169c0 119 88 176 178 178v94h48v-128h-27c-83 0 -147 -42 -147 -141c0 -86 52 -129 129 -129c67 0 113 36 125 106zM270 553c0 -23 -17 -40 -40 -40s-39 17 -39 40c0 22 16 39 39 39s40 -17 40 -39z" />
    <glyph glyph-name="guilsinglleft.cap" unicode="&#xe451;" horiz-adv-x="293" 
d="M92 295v-4s12 -6 49 -51l108 -127l-31 -26l-175 206l175 206l31 -30l-108 -125c-38 -45 -49 -49 -49 -49z" />
    <glyph glyph-name="guilsinglright.cap" unicode="&#xe452;" horiz-adv-x="293" 
d="M201 291v4s-11 4 -49 49l-108 125l31 30l175 -206l-175 -206l-31 26l108 127c37 45 49 51 49 51z" />
    <glyph glyph-name="guillemotleft.cap" unicode="&#xe453;" horiz-adv-x="437" 
d="M236 295v-4s12 -6 50 -51l107 -127l-30 -26l-175 206l175 206l31 -30l-108 -125c-39 -45 -50 -49 -50 -49zM92 295v-4s12 -6 49 -51l108 -127l-31 -26l-175 206l175 206l31 -30l-108 -125c-38 -45 -49 -49 -49 -49z" />
    <glyph glyph-name="guillemotright.cap" unicode="&#xe454;" horiz-adv-x="437" 
d="M201 291v4s-11 4 -49 49l-108 125l31 30l175 -206l-175 -206l-31 26l108 127c37 45 49 51 49 51zM346 291v4s-12 4 -50 49l-108 125l31 30l175 -206l-175 -206l-30 26l107 127c38 45 50 51 50 51z" />
    <glyph glyph-name="plus.cap" unicode="&#xe591;" horiz-adv-x="507" 
d="M49 317h185v180h35v-180h188v-35h-188v-193h-35v193h-185v35z" />
    <glyph glyph-name="minus.cap" unicode="&#xe592;" horiz-adv-x="507" 
d="M457 282h-408v35h408v-35z" />
    <glyph glyph-name="multiply.cap" unicode="&#xe593;" horiz-adv-x="449" 
d="M56 159l142 141l-140 140l24 25l141 -140l144 143l24 -24l-144 -144l146 -145l-24 -24l-146 145l-143 -142z" />
    <glyph glyph-name="divide.cap" unicode="&#xe594;" horiz-adv-x="507" 
d="M457 282h-408v35h408v-35zM216 125c0 20 15 35 34 35s35 -15 35 -35c0 -19 -16 -34 -35 -34s-34 15 -34 34zM216 467c0 20 15 36 34 36s35 -16 35 -36c0 -19 -16 -34 -35 -34s-34 15 -34 34z" />
    <glyph glyph-name="equal.cap" unicode="&#xe595;" horiz-adv-x="507" 
d="M457 215h-408v35h408v-35zM457 343h-408v34h408v-34z" />
    <glyph glyph-name="less.cap" unicode="&#xe596;" horiz-adv-x="388" 
d="M324 484l-222 -185l222 -187l-22 -26l-253 213l253 212z" />
    <glyph glyph-name="greater.cap" unicode="&#xe597;" horiz-adv-x="388" 
d="M280 299l-221 185l21 27l252 -212l-252 -213l-22 26z" />
    <glyph glyph-name="reversequoteleft" unicode="&#x201b;" horiz-adv-x="234" 
d="M79 609c0 41 25 64 52 64c26 0 43 -15 43 -39c0 -21 -14 -37 -36 -37c-6 0 -11 2 -15 4c-1 -2 -1 -5 -1 -8c0 -41 27 -59 68 -63v-28c-70 3 -111 38 -111 107z" />
    <glyph glyph-name="reversequotedblleft" unicode="&#x201f;" horiz-adv-x="387" 
d="M60 610c0 41 26 64 52 64s43 -15 43 -39c0 -21 -14 -37 -36 -37c-6 0 -10 2 -15 4c0 -2 -1 -5 -1 -8c1 -40 27 -59 68 -63v-28c-70 3 -111 38 -111 107zM213 610c0 41 26 64 52 64s43 -15 43 -39c0 -21 -14 -37 -36 -37c-6 0 -10 2 -14 4c-1 -2 -2 -5 -2 -8
c1 -40 27 -59 68 -63v-28c-70 3 -111 38 -111 107z" />
    <glyph glyph-name="slash.cap" unicode="&#xe461;" horiz-adv-x="338" 
d="M19 -78l252 745h48l-252 -745h-48z" />
    <glyph glyph-name="backslash.cap" unicode="&#xe462;" horiz-adv-x="338" 
d="M67 667l252 -745h-47l-253 745h48z" />
    <glyph glyph-name="bar.cap" unicode="&#xe463;" horiz-adv-x="255" 
d="M150 -78h-46v745h46v-745z" />
    <glyph glyph-name="doublebar.cap" unicode="&#xe464;" horiz-adv-x="373" 
d="M150 -78h-46v745h46v-745zM268 -78h-46v745h46v-745z" />
    <glyph glyph-name="brokenbar.cap" unicode="&#xe465;" horiz-adv-x="255" 
d="M150 328h-46v339h46v-339zM150 -78h-46v316h46v-316z" />
    <glyph glyph-name="altcedilla" unicode="&#xe416;" horiz-adv-x="346" 
d="M262 -129c0 -52 -37 -77 -90 -77c-44 0 -73 18 -88 42l20 29c17 -23 41 -36 69 -36c27 0 48 13 48 46c0 34 -28 53 -79 55l3 29c66 4 117 -30 117 -88z" />
    <glyph glyph-name="dotbelow" unicode="&#xe415;" horiz-adv-x="245" 
d="M84 -139c0 22 17 39 38 39c22 0 38 -17 38 -39c0 -21 -16 -38 -38 -38c-21 0 -38 17 -38 38z" />
    <glyph glyph-name="tripleprime" unicode="&#x2034;" horiz-adv-x="402" 
d="M64 412v256h59l-25 -256h-34zM177 412v256h59l-26 -256h-33zM290 412v256h58l-25 -256h-33z" />
    <glyph glyph-name="uni2015.cap" unicode="&#xe488;" horiz-adv-x="1259" 
d="M74 273v39h1110v-39h-1110z" />
    <glyph glyph-name="ordfeminine.school" unicode="&#xe182;" horiz-adv-x="355" 
d="M260 411v63c0 65 -43 91 -86 91c-51 0 -97 -35 -97 -128c0 -81 39 -120 93 -120c44 0 90 28 90 94zM259 543l8 51h38v-306h-35l-8 62c-21 -48 -57 -68 -105 -68c-67 0 -124 51 -124 153c0 105 51 166 137 166c47 0 81 -27 89 -58z" />
    <glyph glyph-name="whitecircle" unicode="&#x25ef;" horiz-adv-x="712" 
d="M49 294c0 169 137 307 306 307s307 -138 307 -307s-138 -306 -307 -306s-306 137 -306 306zM93 293c0 -146 117 -265 262 -265c144 0 262 119 262 265c0 147 -118 267 -262 267c-145 0 -262 -120 -262 -267z" />
    <glyph glyph-name="commaaccent.cap" unicode="&#xe42e;" horiz-adv-x="264" 
d="M84 713c0 58 33 87 96 87v-26c-36 -1 -56 -13 -57 -47c0 -4 0 -7 1 -9c4 3 8 5 14 5c20 0 32 -15 32 -33c0 -22 -15 -36 -39 -36c-23 0 -47 21 -47 59z" />
    <glyph glyph-name="gsuperior.school" unicode="&#xe183;" horiz-adv-x="367" 
d="M266 421v55c0 64 -44 90 -87 90c-51 0 -96 -32 -96 -123c0 -79 38 -114 93 -114c44 0 90 27 90 92zM311 594v-289c0 -106 -62 -142 -141 -142c-66 0 -106 23 -131 60l30 32c23 -35 56 -55 101 -55c64 0 96 29 96 98v59c-21 -47 -55 -64 -104 -64c-66 0 -123 48 -123 147
c0 103 51 161 136 161c48 0 83 -27 91 -58l13 51h32z" />
    <glyph glyph-name="ysuperior.school" unicode="&#xe184;" horiz-adv-x="352" 
d="M295 594v-294c0 -101 -61 -137 -137 -137c-61 0 -99 21 -123 59l30 30c20 -35 51 -52 93 -52c62 0 92 31 92 93v65c-14 -48 -51 -69 -98 -69c-54 0 -101 29 -101 105v200h45v-192c0 -52 23 -76 67 -76c41 0 86 26 86 110v158h46z" />
    <glyph glyph-name="lowline" unicode="&#xe511;" horiz-adv-x="421" 
d="M38 0v43h345v-43h-345z" />
    <glyph glyph-name="zeroOP.slash" unicode="&#xe54b;" horiz-adv-x="567" 
d="M284 -9c-153 0 -236 111 -236 249c0 139 83 250 236 250c151 0 235 -111 235 -250c0 -138 -84 -249 -235 -249zM284 445c-120 0 -184 -89 -184 -205c0 -70 22 -129 65 -166l208 350c-25 13 -55 21 -89 21zM467 240c0 65 -21 123 -60 160l-207 -348c24 -11 52 -17 84 -17
c119 0 183 87 183 205z" />
    <glyph glyph-name="zeroOT.slash" unicode="&#xe556;" horiz-adv-x="570" 
d="M285 -9c-152 0 -236 111 -236 249c0 139 84 250 236 250s235 -111 235 -250c0 -138 -83 -249 -235 -249zM285 445c-120 0 -184 -89 -184 -205c0 -71 23 -130 67 -166l206 350c-25 14 -55 21 -89 21zM468 240c0 65 -21 123 -62 159l-203 -345c23 -12 50 -19 82 -19
c119 0 183 87 183 205z" />
    <glyph glyph-name="zeroLP.slash" unicode="&#xe535;" horiz-adv-x="541" 
d="M271 -9c-144 0 -222 131 -222 303c0 168 80 304 222 304s222 -136 222 -304c0 -172 -78 -303 -222 -303zM270 553c-105 0 -169 -109 -169 -260c0 -87 23 -161 62 -207l189 440c-23 17 -50 27 -82 27zM270 33c106 0 170 112 170 260c0 84 -21 155 -57 201l-188 -438
c22 -14 47 -23 75 -23z" />
    <glyph glyph-name="zeroLT.slash" unicode="&#xe530;" horiz-adv-x="570" 
d="M285 -9c-144 0 -222 131 -222 303c0 168 80 304 222 304s222 -136 222 -304c0 -172 -78 -303 -222 -303zM284 553c-105 0 -169 -109 -169 -260c0 -87 23 -161 62 -207l189 440c-23 17 -50 27 -82 27zM284 33c106 0 170 112 170 260c0 84 -21 155 -57 201l-188 -438
c22 -14 47 -23 75 -23z" />
    <glyph glyph-name="anocross.smcp" unicode="&#xe220;" horiz-adv-x="485" 
d="M274 481l192 -481h-55l-129 325c-31 80 -39 120 -39 120h-3s-7 -39 -39 -119l-128 -326h-54l192 481h63z" />
    <glyph glyph-name="gstroke.smcp" unicode="&#xe252;" horiz-adv-x="546" 
d="M286 138v36h137v46h-137v39h186v-85h59v-36h-59v-138h-41l-8 86c-17 -59 -74 -95 -150 -95c-125 0 -216 83 -216 248c0 163 91 251 222 251c92 0 150 -38 182 -115l-46 -25c-25 65 -70 97 -137 97c-110 0 -169 -80 -169 -205c0 -129 63 -208 171 -208
c66 0 127 35 142 104h-136z" />
    <glyph glyph-name="khook.smcp" unicode="&#xe26a;" horiz-adv-x="463" 
d="M141 481v-216h47l60 129c31 68 62 96 117 96c41 0 66 -20 77 -51l-36 -28c-9 22 -24 32 -43 32c-34 0 -48 -20 -71 -69l-62 -128l214 -246h-65l-193 221h-45v-221h-51v481h51z" />
    <glyph glyph-name="ndescender.smcp" unicode="&#xe270;" horiz-adv-x="581" 
d="M148 481l232 -322c38 -52 60 -94 60 -94h3s-3 60 -3 122v294h51v-683h-51v194l-235 324c-38 52 -64 98 -64 98h-3s3 -59 3 -120v-294h-51v481h58z" />
    <glyph glyph-name="barredo.smcp" unicode="&#xe297;" horiz-adv-x="551" 
d="M276 -9c-134 0 -219 91 -219 249c0 159 85 250 219 250c133 0 218 -91 218 -250c0 -158 -85 -249 -218 -249zM276 33c99 0 156 67 163 182h-328c8 -115 65 -182 165 -182zM276 447c-102 0 -160 -71 -165 -189h329c-5 118 -63 189 -164 189z" />
    <glyph glyph-name="ezh.smcp" unicode="&#xe32e;" horiz-adv-x="380" 
d="M114 212l119 156c35 46 55 69 55 69v3s-27 -3 -90 -3h-168v44h317v-35l-185 -240v-3c104 -3 189 -72 189 -182c0 -112 -83 -174 -185 -174c-98 0 -165 59 -177 140l45 10c13 -69 64 -109 135 -109c79 0 132 46 132 131c0 92 -65 151 -187 156v37z" />
    <glyph glyph-name="schwa.smcp" unicode="&#xe320;" horiz-adv-x="505" 
d="M235 446c-72 0 -116 -33 -134 -99l-49 10c19 91 92 133 186 133c129 0 210 -85 210 -249c0 -159 -77 -250 -210 -250c-123 0 -186 87 -187 200c0 19 2 39 5 58h338c-3 124 -58 197 -159 197zM393 207h-287c-1 -9 -1 -17 -1 -29c0 -78 47 -146 135 -146
c96 0 147 66 153 175z" />
    <glyph glyph-name="ralt.smcp" unicode="&#xe341;" 
d="M293 203l170 -203h-62l-166 198h-94v-198h-51v481h152c124 0 179 -49 179 -143c0 -81 -53 -125 -128 -135zM141 438v-197h101c81 0 124 27 124 98c0 64 -39 99 -126 99h-99z" />
    <glyph glyph-name="ordfeminine.smcp" unicode="&#xe351;" horiz-adv-x="348" 
d="M286 287l-39 91h-149l-38 -91h-46l133 307h54l133 -307h-48zM149 495l-36 -83h120l-36 82c-17 40 -23 76 -23 76h-2s-6 -36 -23 -75z" />
    <glyph glyph-name="ordmasculine.smcp" unicode="&#xe352;" horiz-adv-x="353" 
d="M176 279c-83 0 -136 57 -136 162c0 104 53 159 136 159s137 -55 137 -159c0 -105 -54 -162 -137 -162zM176 566c-59 0 -90 -43 -90 -125c0 -85 31 -129 90 -129c60 0 91 44 91 129c0 82 -31 125 -91 125z" />
    <glyph glyph-name="cordinal.smcp" unicode="&#xe353;" horiz-adv-x="321" 
d="M251 373l40 -8c-10 -62 -59 -86 -117 -86c-81 0 -134 55 -134 160c0 102 53 162 136 162c67 0 108 -34 111 -98l-41 -7c-6 46 -28 69 -71 69c-60 0 -90 -50 -90 -125s32 -126 91 -126c42 0 65 16 75 59z" />
    <glyph glyph-name="slash.smcp" unicode="&#xe467;" horiz-adv-x="291" 
d="M19 -78l205 637h48l-206 -637h-47z" />
    <glyph glyph-name="backslash.smcp" unicode="&#xe468;" horiz-adv-x="291" 
d="M67 559l205 -637h-47l-206 637h48z" />
    <glyph glyph-name="bar.smcp" unicode="&#xe469;" horiz-adv-x="237" 
d="M141 -78h-45v637h45v-637z" />
    <glyph glyph-name="doublebar.smcp" unicode="&#xe46a;" horiz-adv-x="354" 
d="M141 -78h-45v637h45v-637zM259 -78h-46v637h46v-637z" />
    <glyph glyph-name="brokenbar.smcp" unicode="&#xe46b;" horiz-adv-x="237" 
d="M141 287h-45v272h45v-272zM141 -78h-45v269h45v-269z" />
    <glyph glyph-name="bullet.smcp" unicode="&#xe46c;" horiz-adv-x="298" 
d="M87 234c0 34 28 62 62 62s62 -28 62 -62s-28 -62 -62 -62s-62 28 -62 62z" />
    <glyph glyph-name="anglebracketleft.smcp" unicode="&#xe49f;" horiz-adv-x="286" 
d="M245 -80h-48l-141 317l144 321h48l-141 -322z" />
    <glyph glyph-name="anglebracketright.smcp" unicode="&#xe490;" horiz-adv-x="286" 
d="M89 -80h-48l139 316l-142 322h48l144 -321z" />
    <glyph glyph-name="zero.slash" unicode="&#xe515;" horiz-adv-x="567" 
d="M284 -9c-153 0 -236 111 -236 249c0 139 83 250 236 250c151 0 235 -111 235 -250c0 -138 -84 -249 -235 -249zM284 445c-120 0 -184 -89 -184 -205c0 -70 22 -129 65 -166l208 350c-25 13 -55 21 -89 21zM467 240c0 65 -21 123 -60 160l-207 -348c24 -11 52 -17 84 -17
c119 0 183 87 183 205z" />
    <glyph glyph-name="R.alt" unicode="&#xe141;" horiz-adv-x="512" 
d="M308 258l186 -258h-62l-180 252h-112v-252h-53v589h168c137 0 197 -61 197 -168c0 -98 -63 -152 -144 -163zM140 544v-249h118c92 0 139 41 139 123c0 81 -44 126 -139 126h-118z" />
    <glyph glyph-name="braceleft.smcp" unicode="&#xe49d;" horiz-adv-x="356" 
d="M117 239v-3c45 -4 75 -28 75 -99v-85c0 -64 20 -97 71 -97c31 0 48 8 67 17l11 -39c-30 -12 -54 -17 -85 -17c-83 0 -111 52 -111 134v83c0 69 -33 84 -72 84h-43v41h43c39 0 72 16 72 85v83c0 81 28 134 111 134c31 0 55 -6 85 -17l-11 -39c-19 9 -36 16 -67 16
c-51 0 -71 -33 -71 -96v-86c0 -72 -30 -93 -75 -99z" />
    <glyph glyph-name="braceleft.smcp" unicode="&#xf60c;" horiz-adv-x="356" 
d="M117 239v-3c45 -4 75 -28 75 -99v-85c0 -64 20 -97 71 -97c31 0 48 8 67 17l11 -39c-30 -12 -54 -17 -85 -17c-83 0 -111 52 -111 134v83c0 69 -33 84 -72 84h-43v41h43c39 0 72 16 72 85v83c0 81 28 134 111 134c31 0 55 -6 85 -17l-11 -39c-19 9 -36 16 -67 16
c-51 0 -71 -33 -71 -96v-86c0 -72 -30 -93 -75 -99z" />
    <glyph glyph-name="braceright.smcp" unicode="&#xe49e;" horiz-adv-x="356" 
d="M239 236v3c-45 6 -75 27 -75 99v86c0 63 -20 96 -71 96c-31 0 -49 -7 -67 -16l-12 39c31 11 55 17 86 17c83 0 111 -53 111 -134v-83c0 -69 33 -85 72 -85h43v-41h-43c-39 0 -72 -15 -72 -84v-83c0 -82 -28 -134 -111 -134c-31 0 -55 5 -86 17l12 39c18 -9 36 -17 67 -17
c51 0 71 33 71 97v85c0 71 30 95 75 99z" />
    <glyph glyph-name="braceright.smcp" unicode="&#xf60d;" horiz-adv-x="356" 
d="M239 236v3c-45 6 -75 27 -75 99v86c0 63 -20 96 -71 96c-31 0 -49 -7 -67 -16l-12 39c31 11 55 17 86 17c83 0 111 -53 111 -134v-83c0 -69 33 -85 72 -85h43v-41h-43c-39 0 -72 -15 -72 -84v-83c0 -82 -28 -134 -111 -134c-31 0 -55 5 -86 17l12 39c18 -9 36 -17 67 -17
c51 0 71 33 71 97v85c0 71 30 95 75 99z" />
    <glyph glyph-name="bracketleft.smcp" unicode="&#xe49b;" horiz-adv-x="314" 
d="M139 518v-559h147v-39h-194v638h194v-40h-147z" />
    <glyph glyph-name="bracketleft.smcp" unicode="&#xf60e;" horiz-adv-x="314" 
d="M139 518v-559h147v-39h-194v638h194v-40h-147z" />
    <glyph glyph-name="bracketright.smcp" unicode="&#xe49c;" horiz-adv-x="314" 
d="M175 -41v559h-147v40h194v-638h-194v39h147z" />
    <glyph glyph-name="bracketright.smcp" unicode="&#xf60f;" horiz-adv-x="314" 
d="M175 -41v559h-147v40h194v-638h-194v39h147z" />
    <glyph glyph-name="parenleft.smcp" unicode="&#xe499;" horiz-adv-x="285" 
d="M107 238c0 -136 58 -223 156 -319h-57c-86 82 -149 179 -149 319s63 237 149 319h57c-98 -95 -156 -183 -156 -319z" />
    <glyph glyph-name="parenleft.smcp" unicode="&#xf618;" horiz-adv-x="285" 
d="M107 238c0 -136 58 -223 156 -319h-57c-86 82 -149 179 -149 319s63 237 149 319h57c-98 -95 -156 -183 -156 -319z" />
    <glyph glyph-name="parenright.smcp" unicode="&#xe49a;" horiz-adv-x="285" 
d="M178 238c0 136 -58 224 -156 319h56c87 -82 150 -179 150 -319s-63 -237 -150 -319h-56c98 96 156 183 156 319z" />
    <glyph glyph-name="parenright.smcp" unicode="&#xf619;" horiz-adv-x="285" 
d="M178 238c0 136 -58 224 -156 319h56c87 -82 150 -179 150 -319s-63 -237 -150 -319h-56c98 96 156 183 156 319z" />
    <glyph glyph-name="eng.smcp" unicode="&#xe32b;" horiz-adv-x="581" 
d="M440 -5l-235 321c-38 52 -64 98 -64 98h-3s3 -59 3 -120v-294h-51v481h58l232 -322c37 -53 60 -94 60 -94h3s-3 60 -3 122v294h51v-492c0 -148 -69 -199 -165 -199c-63 0 -110 24 -141 55l29 40c28 -28 64 -51 112 -51c82 0 114 47 114 161z" />
    <glyph glyph-name="eng.smcp" unicode="&#xf62b;" horiz-adv-x="581" 
d="M440 -5l-235 321c-38 52 -64 98 -64 98h-3s3 -59 3 -120v-294h-51v481h58l232 -322c37 -53 60 -94 60 -94h3s-3 60 -3 122v294h51v-492c0 -148 -69 -199 -165 -199c-63 0 -110 24 -141 55l29 40c28 -28 64 -51 112 -51c82 0 114 47 114 161z" />
    <glyph glyph-name="hbar.smcp" unicode="&#xe257;" horiz-adv-x="598" 
d="M32 347v44h71v90h52v-90h286v90h52v-90h72v-44h-72v-347h-52v212h-286v-212h-52v347h-71zM155 257h286v90h-286v-90z" />
    <glyph glyph-name="hbar.smcp" unicode="&#xf62e;" horiz-adv-x="598" 
d="M32 347v44h71v90h52v-90h286v90h52v-90h72v-44h-72v-347h-52v212h-286v-212h-52v347h-71zM155 257h286v90h-286v-90z" />
    <glyph glyph-name="ij.smcp" unicode="&#xe327;" horiz-adv-x="569" 
d="M89 481h52v-481h-52v481zM442 481h52v-330c0 -121 -68 -160 -155 -160c-77 0 -125 39 -148 99l39 29c26 -58 56 -86 111 -86c65 0 101 36 101 123v325z" />
    <glyph glyph-name="ij.smcp" unicode="&#xf631;" horiz-adv-x="569" 
d="M89 481h52v-481h-52v481zM442 481h52v-330c0 -121 -68 -160 -155 -160c-77 0 -125 39 -148 99l39 29c26 -58 56 -86 111 -86c65 0 101 36 101 123v325z" />
    <glyph glyph-name="tbar.smcp" unicode="&#xe30d;" horiz-adv-x="430" 
d="M81 225v45h108v167h-172v44h396v-44h-173v-167h109v-45h-109v-225h-51v225h-108z" />
    <glyph glyph-name="tbar.smcp" unicode="&#xf637;" horiz-adv-x="430" 
d="M81 225v45h108v167h-172v44h396v-44h-173v-167h109v-45h-109v-225h-51v225h-108z" />
    <glyph glyph-name="dcroat.smcp" unicode="&#xe23c;" horiz-adv-x="543" 
d="M36 221v44h62v216h142c149 0 248 -67 248 -237c0 -174 -109 -244 -252 -244h-138v221h-62zM149 43h88c127 0 196 65 196 200s-68 195 -191 195h-93v-173h128v-44h-128v-178z" />
    <glyph glyph-name="dcroat.smcp" unicode="&#xf646;" horiz-adv-x="543" 
d="M36 221v44h62v216h142c149 0 248 -67 248 -237c0 -174 -109 -244 -252 -244h-138v221h-62zM149 43h88c127 0 196 65 196 200s-68 195 -191 195h-93v-173h128v-44h-128v-178z" />
    <glyph glyph-name="commaaccent" unicode="&#xe414;" horiz-adv-x="269" 
d="M186 -145c0 -59 -33 -87 -96 -87v26c36 1 56 12 57 47c0 3 0 6 -1 8c-4 -2 -8 -4 -14 -4c-20 0 -32 14 -32 33c0 22 15 36 39 36c23 0 47 -21 47 -59z" />
    <glyph glyph-name="commaaccent" unicode="&#xf6c3;" horiz-adv-x="269" 
d="M186 -145c0 -59 -33 -87 -96 -87v26c36 1 56 12 57 47c0 3 0 6 -1 8c-4 -2 -8 -4 -14 -4c-20 0 -32 14 -32 33c0 22 15 36 39 36c23 0 47 -21 47 -59z" />
    <glyph glyph-name="lslash.smcp" unicode="&#xe272;" horiz-adv-x="411" 
d="M25 174v45l66 24v238h51v-219l137 53v-48l-137 -51v-172h241v-44h-292v198z" />
    <glyph glyph-name="lslash.smcp" unicode="&#xf6f9;" horiz-adv-x="411" 
d="M25 174v45l66 24v238h51v-219l137 53v-48l-137 -51v-172h241v-44h-292v198z" />
    <glyph glyph-name="oe.smcp" unicode="&#xe298;" horiz-adv-x="754" 
d="M695 44v-44h-351c-21 -6 -44 -9 -68 -9c-134 0 -219 91 -219 249c0 159 85 250 219 250c23 0 47 -3 68 -9h351v-44h-277c45 -37 72 -97 75 -177h173v-45h-173c-4 -77 -30 -136 -74 -171h276zM276 447c-106 0 -165 -77 -165 -206c0 -131 57 -208 165 -208
c107 0 164 77 164 208c0 129 -58 206 -164 206z" />
    <glyph glyph-name="oe.smcp" unicode="&#xf6fa;" horiz-adv-x="754" 
d="M695 44v-44h-351c-21 -6 -44 -9 -68 -9c-134 0 -219 91 -219 249c0 159 85 250 219 250c23 0 47 -3 68 -9h351v-44h-277c45 -37 72 -97 75 -177h173v-45h-173c-4 -77 -30 -136 -74 -171h276zM276 447c-106 0 -165 -77 -165 -206c0 -131 57 -208 165 -208
c107 0 164 77 164 208c0 129 -58 206 -164 206z" />
    <glyph glyph-name="exclam.smcp" unicode="&#xe442;" horiz-adv-x="236" 
d="M85 481h66l-16 -338h-34zM78 36c0 23 17 40 40 40s39 -17 39 -40c0 -22 -16 -39 -39 -39s-40 17 -40 39z" />
    <glyph glyph-name="exclam.smcp" unicode="&#xf721;" horiz-adv-x="236" 
d="M85 481h66l-16 -338h-34zM78 36c0 23 17 40 40 40s39 -17 39 -40c0 -22 -16 -39 -39 -39s-40 17 -40 39z" />
    <glyph glyph-name="ampersand.smcp" unicode="&#xe401;" horiz-adv-x="502" 
d="M474 23l-36 -32l-67 62c-43 -41 -92 -62 -170 -62c-94 0 -160 37 -160 117c0 78 56 113 117 147l-23 21c-30 29 -51 58 -51 105c0 66 52 109 131 109c82 0 125 -46 125 -104c0 -62 -46 -100 -110 -134l138 -134c23 33 34 71 38 114l48 -7c-6 -51 -24 -97 -53 -136z
M89 113c0 -55 47 -83 117 -83c57 0 98 16 134 51l-156 148c-56 -36 -95 -66 -95 -116zM212 451c-45 0 -79 -23 -79 -70c0 -30 14 -50 44 -77l26 -25c54 30 88 56 88 103c0 41 -29 69 -79 69z" />
    <glyph glyph-name="ampersand.smcp" unicode="&#xf726;" horiz-adv-x="502" 
d="M474 23l-36 -32l-67 62c-43 -41 -92 -62 -170 -62c-94 0 -160 37 -160 117c0 78 56 113 117 147l-23 21c-30 29 -51 58 -51 105c0 66 52 109 131 109c82 0 125 -46 125 -104c0 -62 -46 -100 -110 -134l138 -134c23 33 34 71 38 114l48 -7c-6 -51 -24 -97 -53 -136z
M89 113c0 -55 47 -83 117 -83c57 0 98 16 134 51l-156 148c-56 -36 -95 -66 -95 -116zM212 451c-45 0 -79 -23 -79 -70c0 -30 14 -50 44 -77l26 -25c54 30 88 56 88 103c0 41 -29 69 -79 69z" />
    <glyph glyph-name="question.smcp" unicode="&#xe445;" horiz-adv-x="375" 
d="M64 359l-44 23c15 55 58 108 157 108c100 0 161 -56 161 -142c0 -99 -72 -139 -156 -139v-66h-50v100h26c75 0 128 31 128 105c0 66 -46 97 -110 97c-66 0 -101 -37 -112 -86zM119 36c0 23 17 40 39 40c23 0 40 -17 40 -40c0 -22 -17 -39 -40 -39c-22 0 -39 17 -39 39z
" />
    <glyph glyph-name="question.smcp" unicode="&#xf73f;" horiz-adv-x="375" 
d="M64 359l-44 23c15 55 58 108 157 108c100 0 161 -56 161 -142c0 -99 -72 -139 -156 -139v-66h-50v100h26c75 0 128 31 128 105c0 66 -46 97 -110 97c-66 0 -101 -37 -112 -86zM119 36c0 23 17 40 39 40c23 0 40 -17 40 -40c0 -22 -17 -39 -40 -39c-22 0 -39 17 -39 39z
" />
    <glyph glyph-name="a.smcp" unicode="&#xe201;" horiz-adv-x="485" 
d="M274 481l192 -481h-55l-55 139h-229l-54 -139h-54l192 481h63zM201 326l-57 -145h195l-57 144c-31 80 -39 120 -39 120h-3s-7 -39 -39 -119z" />
    <glyph glyph-name="a.smcp" unicode="&#xf761;" horiz-adv-x="485" 
d="M274 481l192 -481h-55l-55 139h-229l-54 -139h-54l192 481h63zM201 326l-57 -145h195l-57 144c-31 80 -39 120 -39 120h-3s-7 -39 -39 -119z" />
    <glyph glyph-name="b.smcp" unicode="&#xe202;" horiz-adv-x="479" 
d="M318 250v-3c62 -3 111 -49 111 -114c0 -87 -56 -133 -175 -133h-164v481h158c102 0 158 -42 158 -122c0 -63 -30 -99 -88 -109zM141 268h112c63 0 104 22 104 85c0 60 -43 85 -111 85h-105v-170zM141 225v-182h111c84 0 126 25 126 93c0 56 -39 89 -118 89h-119z" />
    <glyph glyph-name="b.smcp" unicode="&#xf762;" horiz-adv-x="479" 
d="M318 250v-3c62 -3 111 -49 111 -114c0 -87 -56 -133 -175 -133h-164v481h158c102 0 158 -42 158 -122c0 -63 -30 -99 -88 -109zM141 268h112c63 0 104 22 104 85c0 60 -43 85 -111 85h-105v-170zM141 225v-182h111c84 0 126 25 126 93c0 56 -39 89 -118 89h-119z" />
    <glyph glyph-name="c.smcp" unicode="&#xe203;" horiz-adv-x="507" 
d="M422 121l39 -27c-38 -71 -99 -103 -186 -103c-126 0 -218 82 -218 248c0 163 91 251 222 251c92 0 150 -38 182 -115l-46 -25c-25 63 -70 97 -137 97c-110 0 -169 -80 -169 -205c0 -129 62 -208 171 -208c68 0 110 27 142 87z" />
    <glyph glyph-name="c.smcp" unicode="&#xf763;" horiz-adv-x="507" 
d="M422 121l39 -27c-38 -71 -99 -103 -186 -103c-126 0 -218 82 -218 248c0 163 91 251 222 251c92 0 150 -38 182 -115l-46 -25c-25 63 -70 97 -137 97c-110 0 -169 -80 -169 -205c0 -129 62 -208 171 -208c68 0 110 27 142 87z" />
    <glyph glyph-name="d.smcp" unicode="&#xe204;" horiz-adv-x="535" 
d="M141 43h88c127 0 196 65 196 200s-68 195 -191 195h-93v-395zM480 244c0 -174 -109 -244 -252 -244h-138v481h143c148 0 247 -67 247 -237z" />
    <glyph glyph-name="d.smcp" unicode="&#xf764;" horiz-adv-x="535" 
d="M141 43h88c127 0 196 65 196 200s-68 195 -191 195h-93v-395zM480 244c0 -174 -109 -244 -252 -244h-138v481h143c148 0 247 -67 247 -237z" />
    <glyph glyph-name="e.smcp" unicode="&#xe205;" horiz-adv-x="453" 
d="M395 44v-44h-305v481h305v-44h-254v-177h225v-45h-225v-171h254z" />
    <glyph glyph-name="e.smcp" unicode="&#xf765;" horiz-adv-x="453" 
d="M395 44v-44h-305v481h305v-44h-254v-177h225v-45h-225v-171h254z" />
    <glyph glyph-name="f.smcp" unicode="&#xe206;" horiz-adv-x="417" 
d="M141 0h-51v481h291v-44h-240v-177h211v-46h-211v-214z" />
    <glyph glyph-name="f.smcp" unicode="&#xf766;" horiz-adv-x="417" 
d="M141 0h-51v481h291v-44h-240v-177h211v-46h-211v-214z" />
    <glyph glyph-name="g.smcp" unicode="&#xe207;" horiz-adv-x="544" 
d="M286 236h186v-236h-41l-8 86c-17 -59 -74 -95 -150 -95c-125 0 -216 83 -216 248c0 163 91 251 222 251c92 0 150 -38 182 -115l-46 -25c-25 65 -70 97 -137 97c-110 0 -169 -80 -169 -205c0 -129 63 -208 171 -208c75 0 143 44 143 143v16h-137v43z" />
    <glyph glyph-name="g.smcp" unicode="&#xf767;" horiz-adv-x="544" 
d="M286 236h186v-236h-41l-8 86c-17 -59 -74 -95 -150 -95c-125 0 -216 83 -216 248c0 163 91 251 222 251c92 0 150 -38 182 -115l-46 -25c-25 65 -70 97 -137 97c-110 0 -169 -80 -169 -205c0 -129 63 -208 171 -208c75 0 143 44 143 143v16h-137v43z" />
    <glyph glyph-name="h.smcp" unicode="&#xe208;" horiz-adv-x="569" 
d="M141 0h-51v481h51v-221h287v221h51v-481h-51v215h-287v-215z" />
    <glyph glyph-name="h.smcp" unicode="&#xf768;" horiz-adv-x="569" 
d="M141 0h-51v481h51v-221h287v221h51v-481h-51v215h-287v-215z" />
    <glyph glyph-name="i.smcp" unicode="&#xe209;" horiz-adv-x="231" 
d="M90 481h51v-481h-51v481z" />
    <glyph glyph-name="i.smcp" unicode="&#xf769;" horiz-adv-x="231" 
d="M90 481h51v-481h-51v481z" />
    <glyph glyph-name="j.smcp" unicode="&#xe20a;" horiz-adv-x="384" 
d="M264 481h52v-330c0 -121 -68 -160 -155 -160c-77 0 -125 39 -148 99l39 29c26 -58 56 -86 111 -86c65 0 101 36 101 123v325z" />
    <glyph glyph-name="j.smcp" unicode="&#xf76a;" horiz-adv-x="384" 
d="M264 481h52v-330c0 -121 -68 -160 -155 -160c-77 0 -125 39 -148 99l39 29c26 -58 56 -86 111 -86c65 0 101 36 101 123v325z" />
    <glyph glyph-name="k.smcp" unicode="&#xe20b;" horiz-adv-x="463" 
d="M444 0h-65l-193 221h-45v-221h-51v481h51v-216h46l181 216h64l-202 -235z" />
    <glyph glyph-name="k.smcp" unicode="&#xf76b;" horiz-adv-x="463" 
d="M444 0h-65l-193 221h-45v-221h-51v481h51v-216h46l181 216h64l-202 -235z" />
    <glyph glyph-name="l.smcp" unicode="&#xe20c;" horiz-adv-x="410" 
d="M90 481h51v-437h242v-44h-293v481z" />
    <glyph glyph-name="l.smcp" unicode="&#xf76c;" horiz-adv-x="410" 
d="M90 481h51v-437h242v-44h-293v481z" />
    <glyph glyph-name="m.smcp" unicode="&#xe20d;" horiz-adv-x="641" 
d="M341 100h-40l-119 224c-30 57 -41 98 -41 98h-3s3 -36 3 -101v-321h-51v481h64l142 -274c18 -35 25 -59 25 -59h3s6 24 24 59l142 274h61v-481h-51v321c0 65 3 101 3 101h-3s-12 -41 -41 -97z" />
    <glyph glyph-name="m.smcp" unicode="&#xf76d;" horiz-adv-x="641" 
d="M341 100h-40l-119 224c-30 57 -41 98 -41 98h-3s3 -36 3 -101v-321h-51v481h64l142 -274c18 -35 25 -59 25 -59h3s6 24 24 59l142 274h61v-481h-51v321c0 65 3 101 3 101h-3s-12 -41 -41 -97z" />
    <glyph glyph-name="n.smcp" unicode="&#xe20e;" horiz-adv-x="581" 
d="M148 481l230 -322c35 -49 62 -97 62 -97h3s-3 63 -3 125v294h51v-481h-56l-228 315c-37 52 -66 102 -66 102h-3s3 -62 3 -123v-294h-51v481h58z" />
    <glyph glyph-name="n.smcp" unicode="&#xf76e;" horiz-adv-x="581" 
d="M148 481l230 -322c35 -49 62 -97 62 -97h3s-3 63 -3 125v294h51v-481h-56l-228 315c-37 52 -66 102 -66 102h-3s3 -62 3 -123v-294h-51v481h58z" />
    <glyph glyph-name="o.smcp" unicode="&#xe20f;" horiz-adv-x="551" 
d="M276 -9c-134 0 -219 91 -219 249c0 159 85 250 219 250c133 0 218 -91 218 -250c0 -158 -85 -249 -218 -249zM276 447c-106 0 -165 -77 -165 -206c0 -131 57 -208 165 -208c107 0 164 77 164 208c0 129 -58 206 -164 206z" />
    <glyph glyph-name="o.smcp" unicode="&#xf76f;" horiz-adv-x="551" 
d="M276 -9c-134 0 -219 91 -219 249c0 159 85 250 219 250c133 0 218 -91 218 -250c0 -158 -85 -249 -218 -249zM276 447c-106 0 -165 -77 -165 -206c0 -131 57 -208 165 -208c107 0 164 77 164 208c0 129 -58 206 -164 206z" />
    <glyph glyph-name="p.smcp" unicode="&#xe200;" horiz-adv-x="455" 
d="M141 438v-226h88c94 0 137 30 137 116c0 75 -41 110 -136 110h-89zM141 0h-51v481h144c123 0 186 -48 186 -153c0 -113 -67 -159 -186 -159h-93v-169z" />
    <glyph glyph-name="p.smcp" unicode="&#xf770;" horiz-adv-x="455" 
d="M141 438v-226h88c94 0 137 30 137 116c0 75 -41 110 -136 110h-89zM141 0h-51v481h144c123 0 186 -48 186 -153c0 -113 -67 -159 -186 -159h-93v-169z" />
    <glyph glyph-name="q.smcp" unicode="&#xe211;" horiz-adv-x="549" 
d="M457 -75l-15 -46c-111 -4 -175 42 -200 114c-115 14 -187 100 -187 246c0 161 86 251 220 251s220 -90 220 -251c0 -150 -77 -237 -197 -247c31 -57 87 -72 159 -67zM275 447c-107 0 -166 -77 -166 -206c0 -131 58 -208 166 -208s166 77 166 208c0 129 -59 206 -166 206z
" />
    <glyph glyph-name="q.smcp" unicode="&#xf771;" horiz-adv-x="549" 
d="M457 -75l-15 -46c-111 -4 -175 42 -200 114c-115 14 -187 100 -187 246c0 161 86 251 220 251s220 -90 220 -251c0 -150 -77 -237 -197 -247c31 -57 87 -72 159 -67zM275 447c-107 0 -166 -77 -166 -206c0 -131 58 -208 166 -208s166 77 166 208c0 129 -59 206 -166 206z
" />
    <glyph glyph-name="r.smcp" unicode="&#xe212;" horiz-adv-x="492" 
d="M450 0h-59c-12 14 -19 28 -25 53l-18 76c-12 51 -36 76 -103 76h-104v-205h-51v481h165c111 0 167 -45 167 -137c0 -78 -51 -115 -117 -119v-3c52 -4 82 -27 95 -79l20 -84c6 -24 16 -43 30 -59zM141 438v-191h108c81 0 118 31 118 94c0 64 -38 97 -120 97h-106z" />
    <glyph glyph-name="r.smcp" unicode="&#xf772;" horiz-adv-x="492" 
d="M450 0h-59c-12 14 -19 28 -25 53l-18 76c-12 51 -36 76 -103 76h-104v-205h-51v481h165c111 0 167 -45 167 -137c0 -78 -51 -115 -117 -119v-3c52 -4 82 -27 95 -79l20 -84c6 -24 16 -43 30 -59zM141 438v-191h108c81 0 118 31 118 94c0 64 -38 97 -120 97h-106z" />
    <glyph glyph-name="s.smcp" unicode="&#xe213;" horiz-adv-x="431" 
d="M37 119l51 8c10 -65 56 -96 123 -96c73 0 122 28 122 89c0 54 -32 79 -93 94l-68 17c-79 19 -118 59 -118 128c0 97 79 131 163 131c92 0 150 -35 162 -126l-50 -7c-8 63 -49 93 -117 93c-62 0 -107 -29 -107 -87c0 -48 28 -73 84 -87l64 -15c73 -17 130 -55 130 -138
c0 -92 -71 -132 -172 -132c-99 0 -161 43 -174 128z" />
    <glyph glyph-name="s.smcp" unicode="&#xf773;" horiz-adv-x="431" 
d="M37 119l51 8c10 -65 56 -96 123 -96c73 0 122 28 122 89c0 54 -32 79 -93 94l-68 17c-79 19 -118 59 -118 128c0 97 79 131 163 131c92 0 150 -35 162 -126l-50 -7c-8 63 -49 93 -117 93c-62 0 -107 -29 -107 -87c0 -48 28 -73 84 -87l64 -15c73 -17 130 -55 130 -138
c0 -92 -71 -132 -172 -132c-99 0 -161 43 -174 128z" />
    <glyph glyph-name="t.smcp" unicode="&#xe214;" horiz-adv-x="430" 
d="M240 0h-51v437h-172v44h396v-44h-173v-437z" />
    <glyph glyph-name="t.smcp" unicode="&#xf774;" horiz-adv-x="430" 
d="M240 0h-51v437h-172v44h396v-44h-173v-437z" />
    <glyph glyph-name="u.smcp" unicode="&#xe215;" horiz-adv-x="528" 
d="M264 -9c-105 0 -195 46 -195 186v304h52v-296c0 -108 58 -151 143 -151s143 43 143 151v296h51v-304c0 -140 -89 -186 -194 -186z" />
    <glyph glyph-name="u.smcp" unicode="&#xf775;" horiz-adv-x="528" 
d="M264 -9c-105 0 -195 46 -195 186v304h52v-296c0 -108 58 -151 143 -151s143 43 143 151v296h51v-304c0 -140 -89 -186 -194 -186z" />
    <glyph glyph-name="v.smcp" unicode="&#xe216;" horiz-adv-x="474" 
d="M205 0l-186 481h55l124 -326c30 -79 39 -120 39 -120h3s8 40 38 119l123 327h54l-186 -481h-64z" />
    <glyph glyph-name="v.smcp" unicode="&#xf776;" horiz-adv-x="474" 
d="M205 0l-186 481h55l124 -326c30 -79 39 -120 39 -120h3s8 40 38 119l123 327h54l-186 -481h-64z" />
    <glyph glyph-name="w.smcp" unicode="&#xe217;" horiz-adv-x="689" 
d="M373 481l92 -324c22 -76 29 -123 29 -123h2c1 0 7 46 28 121l92 326h50l-139 -481h-65l-89 306c-20 68 -27 127 -27 127h-2s-9 -60 -28 -127l-89 -306h-66l-137 481h52l90 -323c20 -73 30 -124 30 -124h2s7 47 29 123l93 324h53z" />
    <glyph glyph-name="w.smcp" unicode="&#xf777;" horiz-adv-x="689" 
d="M373 481l92 -324c22 -76 29 -123 29 -123h2c1 0 7 46 28 121l92 326h50l-139 -481h-65l-89 306c-20 68 -27 127 -27 127h-2s-9 -60 -28 -127l-89 -306h-66l-137 481h52l90 -323c20 -73 30 -124 30 -124h2s7 47 29 123l93 324h53z" />
    <glyph glyph-name="x.smcp" unicode="&#xf778;" horiz-adv-x="446" 
d="M366 0l-104 149c-33 47 -39 62 -39 62h-3s-5 -15 -38 -62l-105 -149h-56l173 245l-164 236h60l94 -138c35 -51 39 -63 39 -63h3s4 12 38 63l95 138h58l-165 -235l173 -246h-59z" />
    <glyph glyph-name="y.smcp" unicode="&#xe219;" horiz-adv-x="432" 
d="M77 481l98 -174c34 -61 41 -84 41 -84h3s8 24 41 84l98 174h55l-171 -299v-182h-51v182l-172 299h58z" />
    <glyph glyph-name="y.smcp" unicode="&#xf779;" horiz-adv-x="432" 
d="M77 481l98 -174c34 -61 41 -84 41 -84h3s8 24 41 84l98 174h55l-171 -299v-182h-51v182l-172 299h58z" />
    <glyph glyph-name="z.smcp" unicode="&#xe21a;" horiz-adv-x="426" 
d="M387 442l-241 -330c-32 -43 -52 -67 -52 -67v-3s23 2 82 2h221v-44h-361v38l238 331c32 44 52 67 52 67v3s-23 -2 -82 -2h-199v44h342v-39z" />
    <glyph glyph-name="z.smcp" unicode="&#xf77a;" horiz-adv-x="426" 
d="M387 442l-241 -330c-32 -43 -52 -67 -52 -67v-3s23 2 82 2h221v-44h-361v38l238 331c32 44 52 67 52 67v3s-23 -2 -82 -2h-199v44h342v-39z" />
    <glyph glyph-name="exclamdown.smcp" unicode="&#xe443;" horiz-adv-x="236" 
d="M151 0h-66l16 338h34zM78 445c0 22 17 39 40 39s39 -17 39 -39c0 -23 -16 -40 -39 -40s-40 17 -40 40z" />
    <glyph glyph-name="exclamdown.smcp" unicode="&#xf7a1;" horiz-adv-x="236" 
d="M151 0h-66l16 338h34zM78 445c0 22 17 39 40 39s39 -17 39 -39c0 -23 -16 -40 -39 -40s-40 17 -40 40z" />
    <glyph glyph-name="questiondown.smcp" unicode="&#xe446;" horiz-adv-x="375" 
d="M309 122l43 -23c-15 -55 -58 -108 -157 -108s-161 56 -161 142c0 99 73 139 157 139v66h49v-100h-26c-75 0 -127 -31 -127 -105c0 -66 46 -97 109 -97c67 0 101 37 113 86zM254 445c0 -23 -17 -40 -40 -40c-22 0 -39 17 -39 40c0 22 17 39 39 39c23 0 40 -17 40 -39z" />
    <glyph glyph-name="questiondown.smcp" unicode="&#xf7bf;" horiz-adv-x="375" 
d="M309 122l43 -23c-15 -55 -58 -108 -157 -108s-161 56 -161 142c0 99 73 139 157 139v66h49v-100h-26c-75 0 -127 -31 -127 -105c0 -66 46 -97 109 -97c67 0 101 37 113 86zM254 445c0 -23 -17 -40 -40 -40c-22 0 -39 17 -39 40c0 22 17 39 39 39c23 0 40 -17 40 -39z" />
    <glyph glyph-name="ae.smcp" unicode="&#xe231;" horiz-adv-x="744" 
d="M355 481h330v-44h-253v-177h224v-45h-224v-171h253v-44h-304v136h-210l-94 -136h-58zM387 442h-3l-183 -264h180v126c0 102 6 138 6 138z" />
    <glyph glyph-name="ae.smcp" unicode="&#xf7e6;" horiz-adv-x="744" 
d="M355 481h330v-44h-253v-177h224v-45h-224v-171h253v-44h-304v136h-210l-94 -136h-58zM387 442h-3l-183 -264h180v126c0 102 6 138 6 138z" />
    <glyph glyph-name="eth.smcp" unicode="&#xe32c;" horiz-adv-x="543" 
d="M36 221v44h62v216h142c149 0 248 -67 248 -237c0 -174 -109 -244 -252 -244h-138v221h-62zM149 43h88c127 0 196 65 196 200s-68 195 -191 195h-93v-173h128v-44h-128v-178z" />
    <glyph glyph-name="eth.smcp" unicode="&#xf7f0;" horiz-adv-x="543" 
d="M36 221v44h62v216h142c149 0 248 -67 248 -237c0 -174 -109 -244 -252 -244h-138v221h-62zM149 43h88c127 0 196 65 196 200s-68 195 -191 195h-93v-173h128v-44h-128v-178z" />
    <glyph glyph-name="oslash.smcp" unicode="&#xe295;" horiz-adv-x="551" 
d="M74 -10l-29 26l55 62c-28 41 -43 95 -43 162c0 159 85 250 219 250c58 0 107 -17 144 -51l46 51l31 -26l-50 -56c30 -42 47 -98 47 -168c0 -158 -85 -249 -218 -249c-63 0 -114 19 -151 56zM440 241c0 51 -10 94 -29 127l-253 -286c27 -32 67 -49 118 -49
c107 0 164 77 164 208zM276 447c-106 0 -165 -77 -165 -206c0 -49 8 -91 25 -122l251 284c-27 28 -64 44 -111 44z" />
    <glyph glyph-name="oslash.smcp" unicode="&#xf7f8;" horiz-adv-x="551" 
d="M74 -10l-29 26l55 62c-28 41 -43 95 -43 162c0 159 85 250 219 250c58 0 107 -17 144 -51l46 51l31 -26l-50 -56c30 -42 47 -98 47 -168c0 -158 -85 -249 -218 -249c-63 0 -114 19 -151 56zM440 241c0 51 -10 94 -29 127l-253 -286c27 -32 67 -49 118 -49
c107 0 164 77 164 208zM276 447c-106 0 -165 -77 -165 -206c0 -49 8 -91 25 -122l251 284c-27 28 -64 44 -111 44z" />
    <glyph glyph-name="thorn.smcp" unicode="&#xe32d;" horiz-adv-x="455" 
d="M141 352v-222h97c83 0 128 30 128 112c0 77 -42 110 -128 110h-97zM141 0h-51v481h51v-86h104c117 0 175 -51 175 -151c0 -108 -62 -158 -181 -158h-98v-86z" />
    <glyph glyph-name="thorn.smcp" unicode="&#xf7fe;" horiz-adv-x="455" 
d="M141 352v-222h97c83 0 128 30 128 112c0 77 -42 110 -128 110h-97zM141 0h-51v481h51v-86h104c117 0 175 -51 175 -151c0 -108 -62 -158 -181 -158h-98v-86z" />
    <glyph glyph-name="underscoremonospace" unicode="&#xe512;" horiz-adv-x="570" 
d="M38 -87v43h494v-43h-494z" />
    <glyph glyph-name="underscoremonospace" unicode="&#xff3f;" horiz-adv-x="570" 
d="M38 -87v43h494v-43h-494z" />
    <glyph glyph-name="ellipsis" unicode="&#x2026;" horiz-adv-x="767" 
d="M81 39c0 24 18 42 42 42s42 -18 42 -42s-18 -42 -42 -42s-42 18 -42 42zM341 39c0 24 18 42 42 42c25 0 43 -18 43 -42s-18 -42 -43 -42c-24 0 -42 18 -42 42zM601 39c0 24 18 42 43 42c24 0 42 -18 42 -42s-18 -42 -42 -42c-25 0 -43 18 -43 42z" />
    <glyph glyph-name="ae" unicode="&#xe6;" horiz-adv-x="726" 
d="M512 32c66 0 105 27 122 91l45 -10c-17 -88 -83 -122 -170 -122c-74 0 -130 30 -164 91c-22 -53 -83 -91 -163 -91c-87 0 -142 44 -142 126c0 105 89 151 275 153c2 22 6 43 12 62c-6 70 -52 96 -111 96s-107 -25 -113 -93l-47 7c7 98 84 129 160 129
c65 0 118 -23 139 -82c33 53 87 82 156 82c112 0 169 -78 169 -184c0 -23 -3 -44 -6 -59h-312c0 -124 57 -196 150 -196zM187 32c63 0 120 33 139 98c-8 26 -12 55 -13 89v9c-145 -1 -222 -28 -222 -109c0 -50 34 -87 96 -87zM364 270h265c1 9 1 17 1 27
c0 74 -43 132 -122 132c-86 0 -135 -59 -144 -159z" />
    <glyph glyph-name="Agrave" unicode="&#xc0;" horiz-adv-x="535" 
d="M469 0l-70 187h-264l-70 -187h-55l224 589h69l222 -589h-56zM217 408l-66 -176h231l-65 175c-34 90 -48 147 -48 147h-4s-14 -56 -48 -146zM293 642h-45l-89 121h70z" />
    <glyph glyph-name="Aacute" unicode="&#xc1;" horiz-adv-x="535" 
d="M469 0l-70 187h-264l-70 -187h-55l224 589h69l222 -589h-56zM217 408l-66 -176h231l-65 175c-34 90 -48 147 -48 147h-4s-14 -56 -48 -146zM288 642h-45l64 121h70z" />
    <glyph glyph-name="Acircumflex" unicode="&#xc2;" horiz-adv-x="535" 
d="M469 0l-70 187h-264l-70 -187h-55l224 589h69l222 -589h-56zM217 408l-66 -176h231l-65 175c-34 90 -48 147 -48 147h-4s-14 -56 -48 -146zM251 767h31l115 -125h-58l-43 47c-19 23 -29 39 -29 39h-2s-9 -16 -28 -39l-43 -47h-58z" />
    <glyph glyph-name="Atilde" unicode="&#xc3;" horiz-adv-x="535" 
d="M469 0l-70 187h-264l-70 -187h-55l224 589h69l222 -589h-56zM217 408l-66 -176h231l-65 175c-34 90 -48 147 -48 147h-4s-14 -56 -48 -146zM335 647c-29 0 -49 15 -71 30c-26 17 -40 29 -62 29c-27 0 -42 -17 -34 -59h-33c-22 58 9 105 62 105c33 0 54 -14 78 -31
c25 -18 37 -28 57 -28c26 0 40 17 33 61h35c21 -61 -7 -107 -65 -107z" />
    <glyph glyph-name="Amacron" unicode="&#x100;" horiz-adv-x="535" 
d="M469 0l-70 187h-264l-70 -187h-55l224 589h69l222 -589h-56zM217 408l-66 -176h231l-65 175c-34 90 -48 147 -48 147h-4s-14 -56 -48 -146zM378 667h-222v41h222v-41z" />
    <glyph glyph-name="Abreve" unicode="&#x102;" horiz-adv-x="535" 
d="M469 0l-70 187h-264l-70 -187h-55l224 589h69l222 -589h-56zM217 408l-66 -176h231l-65 175c-34 90 -48 147 -48 147h-4s-14 -56 -48 -146zM267 638c-76 0 -120 45 -120 123h42c3 -56 27 -83 78 -83c52 0 75 27 79 83h41c0 -78 -44 -123 -120 -123z" />
    <glyph glyph-name="Ainvertedbreve" unicode="&#x202;" horiz-adv-x="535" 
d="M469 0l-70 187h-264l-70 -187h-55l224 589h69l222 -589h-56zM217 408l-66 -176h231l-65 175c-34 90 -48 147 -48 147h-4s-14 -56 -48 -146zM266 764c77 0 121 -45 121 -123h-42c-3 55 -27 83 -79 83c-51 0 -74 -28 -77 -83h-42c0 78 44 123 119 123z" />
    <glyph glyph-name="Adotabove" unicode="&#x226;" horiz-adv-x="535" 
d="M469 0l-70 187h-264l-70 -187h-55l224 589h69l222 -589h-56zM217 408l-66 -176h231l-65 175c-34 90 -48 147 -48 147h-4s-14 -56 -48 -146zM229 689c0 22 17 39 37 39c23 0 39 -17 39 -39c0 -21 -16 -38 -39 -38c-20 0 -37 17 -37 38z" />
    <glyph glyph-name="Adieresis" unicode="&#xc4;" horiz-adv-x="535" 
d="M469 0l-70 187h-264l-70 -187h-55l224 589h69l222 -589h-56zM217 408l-66 -176h231l-65 175c-34 90 -48 147 -48 147h-4s-14 -56 -48 -146zM144 690c0 21 17 38 38 38s37 -17 37 -38s-16 -38 -37 -38s-38 17 -38 38zM315 689c0 22 17 38 38 38c22 0 38 -16 38 -38
c0 -21 -16 -38 -38 -38c-21 0 -38 17 -38 38z" />
    <glyph glyph-name="Aring" unicode="&#xc5;" horiz-adv-x="535" 
d="M469 0l-70 187h-264l-70 -187h-55l224 589h69l222 -589h-56zM217 408l-66 -176h231l-65 175c-34 90 -48 147 -48 147h-4s-14 -56 -48 -146zM267 629c-57 0 -89 38 -89 87c0 45 34 84 89 84s89 -39 89 -84c0 -49 -32 -87 -89 -87zM267 773c-36 0 -57 -25 -57 -59
c0 -32 20 -55 57 -55s57 23 57 55c0 34 -21 59 -57 59z" />
    <glyph glyph-name="Adoublegrave" unicode="&#x200;" horiz-adv-x="535" 
d="M469 0l-70 187h-264l-70 -187h-55l224 589h69l222 -589h-56zM217 408l-66 -176h231l-65 175c-34 90 -48 147 -48 147h-4s-14 -56 -48 -146zM355 642h-38l-94 121h67zM233 642h-39l-99 121h67z" />
    <glyph glyph-name="Acaron" unicode="&#x1cd;" horiz-adv-x="535" 
d="M469 0l-70 187h-264l-70 -187h-55l224 589h69l222 -589h-56zM217 408l-66 -176h231l-65 175c-34 90 -48 147 -48 147h-4s-14 -56 -48 -146zM282 639h-31l-115 126h58l43 -48c19 -23 28 -38 28 -38h2s10 15 29 38l43 48h58z" />
    <glyph glyph-name="uni004102DA00B4" unicode="&#x1fa;" horiz-adv-x="535" 
d="M469 0l-70 187h-264l-70 -187h-55l224 589h69l222 -589h-56zM217 408l-66 -176h231l-65 175c-34 90 -48 147 -48 147h-4s-14 -56 -48 -146zM267 613c-57 0 -89 38 -89 87c0 45 34 84 89 84s89 -39 89 -84c0 -49 -32 -87 -89 -87zM267 757c-36 0 -57 -25 -57 -59
c0 -32 20 -55 57 -55s57 23 57 55c0 34 -21 59 -57 59zM286 806h-45l64 121h70z" />
    <glyph glyph-name="uni004100A800AF" unicode="&#x1de;" horiz-adv-x="535" 
d="M469 0l-70 187h-264l-70 -187h-55l224 589h69l222 -589h-56zM217 408l-66 -176h231l-65 175c-34 90 -48 147 -48 147h-4s-14 -56 -48 -146zM378 755h-222v41h222v-41zM144 671c0 21 17 38 38 38s37 -17 37 -38s-16 -38 -37 -38s-38 17 -38 38zM315 670c0 22 17 38 38 38
c22 0 38 -16 38 -38c0 -21 -16 -38 -38 -38c-21 0 -38 17 -38 38z" />
    <glyph glyph-name="Aogonek" unicode="&#x104;" horiz-adv-x="535" 
d="M352 -113c0 68 55 110 109 133l-62 167h-264l-70 -187h-55l224 589h69l222 -589c-78 -12 -125 -49 -125 -108c0 -35 18 -56 50 -56c29 0 48 15 63 38l21 -25c-16 -27 -42 -50 -91 -50c-56 0 -91 33 -91 88zM217 408l-66 -176h231l-65 175c-34 90 -48 147 -48 147h-4
s-14 -56 -48 -146z" />
    <glyph glyph-name="Anocross" horiz-adv-x="535" 
d="M469 0l-152 407c-34 90 -49 145 -49 145h-3s-14 -54 -48 -144l-152 -408h-55l224 589h69l222 -589h-56z" />
    <glyph glyph-name="AEacute" unicode="&#x1fc;" horiz-adv-x="800" 
d="M748 0h-335v189h-227l-119 -189h-57l376 589h362v-46h-283v-225h252v-46h-252v-226h283v-46zM416 550l-203 -317h200v167c-1 99 6 150 6 150h-3zM565 642h-45l64 121h70z" />
    <glyph glyph-name="AEmacron" unicode="&#x1e2;" horiz-adv-x="800" 
d="M748 0h-335v189h-227l-119 -189h-57l376 589h362v-46h-283v-225h252v-46h-252v-226h283v-46zM416 550l-203 -317h200v167c-1 99 6 150 6 150h-3zM656 667h-221v41h221v-41z" />
    <glyph glyph-name="Cacute" unicode="&#x106;" horiz-adv-x="552" 
d="M484 146l38 -30c-45 -84 -113 -125 -219 -125c-153 0 -255 105 -255 302s108 305 264 305c102 0 172 -45 210 -140l-47 -23c-28 78 -86 118 -166 118c-131 0 -206 -99 -206 -260c0 -159 70 -255 202 -255c86 0 140 34 179 108zM325 642h-45l64 121h70z" />
    <glyph glyph-name="Ccircumflex" unicode="&#x108;" horiz-adv-x="552" 
d="M484 146l38 -30c-45 -84 -113 -125 -219 -125c-153 0 -255 105 -255 302s108 305 264 305c102 0 172 -45 210 -140l-47 -23c-28 78 -86 118 -166 118c-131 0 -206 -99 -206 -260c0 -159 70 -255 202 -255c86 0 140 34 179 108zM295 767h31l115 -125h-58l-42 47
c-20 23 -29 39 -29 39h-2s-9 -16 -29 -39l-42 -47h-58z" />
    <glyph glyph-name="Ccaron" unicode="&#x10c;" horiz-adv-x="552" 
d="M484 146l38 -30c-45 -84 -113 -125 -219 -125c-153 0 -255 105 -255 302s108 305 264 305c102 0 172 -45 210 -140l-47 -23c-28 78 -86 118 -166 118c-131 0 -206 -99 -206 -260c0 -159 70 -255 202 -255c86 0 140 34 179 108zM322 639h-31l-115 126h58l42 -48
c20 -23 29 -38 29 -38h2s9 15 29 38l43 48h57z" />
    <glyph glyph-name="Cdotaccent" unicode="&#x10a;" horiz-adv-x="552" 
d="M484 146l38 -30c-45 -84 -113 -125 -219 -125c-153 0 -255 105 -255 302s108 305 264 305c102 0 172 -45 210 -140l-47 -23c-28 78 -86 118 -166 118c-131 0 -206 -99 -206 -260c0 -159 70 -255 202 -255c86 0 140 34 179 108zM270 689c0 22 17 39 37 39
c22 0 39 -17 39 -39c0 -21 -17 -38 -39 -38c-20 0 -37 17 -37 38z" />
    <glyph glyph-name="Ccedilla" unicode="&#xc7;" horiz-adv-x="552" 
d="M401 -126c0 -54 -41 -79 -92 -79c-42 0 -71 17 -88 40l18 33c18 -25 40 -39 70 -39c29 0 48 13 48 45c0 31 -27 50 -80 52l9 65c-144 8 -238 113 -238 302c0 197 108 305 264 305c102 0 172 -45 210 -140l-47 -23c-28 78 -86 118 -166 118c-131 0 -206 -99 -206 -260
c0 -159 70 -255 202 -255c86 0 140 34 179 108l38 -30c-44 -81 -108 -122 -206 -125l-6 -37c57 -5 91 -33 91 -80z" />
    <glyph glyph-name="Dcaron" unicode="&#x10e;" horiz-adv-x="581" 
d="M140 45h104c143 0 234 84 234 254c0 172 -89 245 -229 245h-109v-499zM249 0h-162v589h163c166 0 283 -81 283 -288c0 -218 -131 -301 -284 -301zM275 639h-31l-114 126h57l43 -48c20 -23 29 -38 29 -38h2s9 15 29 38l42 48h58z" />
    <glyph glyph-name="Ddotbelow" unicode="&#x1e0c;" horiz-adv-x="581" 
d="M140 45h104c143 0 234 84 234 254c0 172 -89 245 -229 245h-109v-499zM249 0h-162v589h163c166 0 283 -81 283 -288c0 -218 -131 -301 -284 -301zM222 -139c0 22 16 39 37 39c22 0 39 -17 39 -39c0 -21 -17 -38 -39 -38c-21 0 -37 17 -37 38z" />
    <glyph glyph-name="Dcedilla" unicode="&#x1e10;" horiz-adv-x="581" 
d="M350 -126c0 -54 -41 -79 -92 -79c-42 0 -71 17 -88 40l18 33c18 -25 39 -39 70 -39c29 0 48 13 48 45c0 31 -27 50 -80 52l9 74h-148v589h163c166 0 283 -81 283 -288c0 -210 -121 -295 -267 -301l-7 -46c57 -5 91 -33 91 -80zM140 45h104c143 0 234 84 234 254
c0 172 -89 245 -229 245h-109v-499z" />
    <glyph glyph-name="Egrave" unicode="&#xc8;" horiz-adv-x="474" 
d="M422 46v-46h-335v589h335v-46h-282v-225h251v-46h-251v-226h282zM279 642h-45l-89 121h70z" />
    <glyph glyph-name="Eacute" unicode="&#xc9;" horiz-adv-x="474" 
d="M422 46v-46h-335v589h335v-46h-282v-225h251v-46h-251v-226h282zM274 642h-45l64 121h70z" />
    <glyph glyph-name="Ecircumflex" unicode="&#xca;" horiz-adv-x="474" 
d="M422 46v-46h-335v589h335v-46h-282v-225h251v-46h-251v-226h282zM238 767h31l115 -125h-58l-42 47c-20 23 -29 39 -29 39h-2s-9 -16 -29 -39l-42 -47h-58z" />
    <glyph glyph-name="Emacron" unicode="&#x112;" horiz-adv-x="474" 
d="M422 46v-46h-335v589h335v-46h-282v-225h251v-46h-251v-226h282zM365 667h-222v41h222v-41z" />
    <glyph glyph-name="Ebreve" unicode="&#x114;" horiz-adv-x="474" 
d="M422 46v-46h-335v589h335v-46h-282v-225h251v-46h-251v-226h282zM258 638c-75 0 -119 45 -119 123h41c3 -56 27 -83 78 -83c52 0 76 27 79 83h42c0 -78 -45 -123 -121 -123z" />
    <glyph glyph-name="Einvertedbreve" unicode="&#x206;" horiz-adv-x="474" 
d="M422 46v-46h-335v589h335v-46h-282v-225h251v-46h-251v-226h282zM255 765c76 0 120 -45 120 -123h-42c-3 55 -27 83 -78 83s-75 -28 -78 -83h-42c0 78 44 123 120 123z" />
    <glyph glyph-name="Edotaccent" unicode="&#x116;" horiz-adv-x="474" 
d="M422 46v-46h-335v589h335v-46h-282v-225h251v-46h-251v-226h282zM213 689c0 22 17 39 38 39c22 0 38 -17 38 -39c0 -21 -16 -38 -38 -38c-21 0 -38 17 -38 38z" />
    <glyph glyph-name="Edieresis" unicode="&#xcb;" horiz-adv-x="474" 
d="M422 46v-46h-335v589h335v-46h-282v-225h251v-46h-251v-226h282zM130 690c0 21 17 38 38 38s38 -17 38 -38s-17 -38 -38 -38s-38 17 -38 38zM301 689c0 22 17 38 38 38c22 0 38 -16 38 -38c0 -21 -16 -38 -38 -38c-21 0 -38 17 -38 38z" />
    <glyph glyph-name="Edoublegrave" unicode="&#x204;" horiz-adv-x="474" 
d="M422 46v-46h-335v589h335v-46h-282v-225h251v-46h-251v-226h282zM342 642h-39l-93 121h66zM220 642h-40l-99 121h68z" />
    <glyph glyph-name="Ecaron" unicode="&#x11a;" horiz-adv-x="474" 
d="M422 46v-46h-335v589h335v-46h-282v-225h251v-46h-251v-226h282zM274 639h-30l-115 126h58l42 -48c20 -23 29 -38 29 -38h2s9 15 29 38l42 48h58z" />
    <glyph glyph-name="uni004500600323" unicode="&#xe101;" horiz-adv-x="474" 
d="M422 46v-46h-335v589h335v-46h-282v-225h251v-46h-251v-226h282zM216 -139c0 22 16 39 37 39c22 0 39 -17 39 -39c0 -21 -17 -38 -39 -38c-21 0 -37 17 -37 38zM274 642h-45l64 121h70z" />
    <glyph glyph-name="uni004500B40323" unicode="&#xe103;" horiz-adv-x="474" 
d="M422 46v-46h-335v589h335v-46h-282v-225h251v-46h-251v-226h282zM216 -139c0 22 16 39 37 39c22 0 39 -17 39 -39c0 -21 -17 -38 -39 -38c-21 0 -37 17 -37 38zM279 642h-45l-89 121h70z" />
    <glyph glyph-name="Eogonek" unicode="&#x118;" horiz-adv-x="474" 
d="M422 46v-46c-65 -14 -110 -49 -110 -108c0 -35 18 -56 50 -56c30 0 49 15 63 38l21 -25c-15 -27 -42 -50 -90 -50c-57 0 -91 32 -91 87c0 53 31 90 74 114h-252v589h335v-46h-282v-225h251v-46h-251v-226h282z" />
    <glyph glyph-name="Gacute" unicode="&#x1f4;" horiz-adv-x="594" 
d="M315 288h212v-288h-46l-7 101c-21 -69 -92 -110 -171 -110c-153 0 -255 106 -255 302c0 197 108 305 264 305c106 0 174 -45 210 -140l-47 -23c-28 78 -86 118 -166 118c-131 0 -206 -99 -206 -260c0 -156 70 -257 202 -257c86 0 169 44 169 159v45h-159v48zM335 642h-45
l64 121h70z" />
    <glyph glyph-name="Gcircumflex" unicode="&#x11c;" horiz-adv-x="594" 
d="M315 288h212v-288h-46l-7 101c-21 -69 -92 -110 -171 -110c-153 0 -255 106 -255 302c0 197 108 305 264 305c106 0 174 -45 210 -140l-47 -23c-28 78 -86 118 -166 118c-131 0 -206 -99 -206 -260c0 -156 70 -257 202 -257c86 0 169 44 169 159v45h-159v48zM295 767h31
l115 -125h-58l-42 47c-20 23 -29 39 -29 39h-2s-9 -16 -29 -39l-43 -47h-57z" />
    <glyph glyph-name="Gtilde" unicode="&#xe105;" horiz-adv-x="594" 
d="M315 288h212v-288h-46l-7 101c-21 -69 -92 -110 -171 -110c-153 0 -255 106 -255 302c0 197 108 305 264 305c106 0 174 -45 210 -140l-47 -23c-28 78 -86 118 -166 118c-131 0 -206 -99 -206 -260c0 -156 70 -257 202 -257c86 0 169 44 169 159v45h-159v48zM383 647
c-30 0 -49 15 -72 30c-25 17 -40 29 -62 29c-26 0 -41 -17 -33 -59h-33c-22 58 8 105 61 105c34 0 54 -14 78 -31c25 -18 38 -28 58 -28c25 0 40 17 33 61h35c20 -61 -8 -107 -65 -107z" />
    <glyph glyph-name="Gbreve" unicode="&#x11e;" horiz-adv-x="594" 
d="M315 288h212v-288h-46l-7 101c-21 -69 -92 -110 -171 -110c-153 0 -255 106 -255 302c0 197 108 305 264 305c106 0 174 -45 210 -140l-47 -23c-28 78 -86 118 -166 118c-131 0 -206 -99 -206 -260c0 -156 70 -257 202 -257c86 0 169 44 169 159v45h-159v48zM311 638
c-76 0 -120 45 -120 123h42c3 -56 26 -83 78 -83c51 0 75 27 78 83h42c0 -78 -44 -123 -120 -123z" />
    <glyph glyph-name="Gdotaccent" unicode="&#x120;" horiz-adv-x="594" 
d="M315 288h212v-288h-46l-7 101c-21 -69 -92 -110 -171 -110c-153 0 -255 106 -255 302c0 197 108 305 264 305c106 0 174 -45 210 -140l-47 -23c-28 78 -86 118 -166 118c-131 0 -206 -99 -206 -260c0 -156 70 -257 202 -257c86 0 169 44 169 159v45h-159v48zM273 698
c0 22 16 38 37 38c22 0 38 -16 38 -38c0 -21 -16 -38 -38 -38c-21 0 -37 17 -37 38z" />
    <glyph glyph-name="Gcaron" unicode="&#x1e6;" horiz-adv-x="594" 
d="M315 288h212v-288h-46l-7 101c-21 -69 -92 -110 -171 -110c-153 0 -255 106 -255 302c0 197 108 305 264 305c106 0 174 -45 210 -140l-47 -23c-28 78 -86 118 -166 118c-131 0 -206 -99 -206 -260c0 -156 70 -257 202 -257c86 0 169 44 169 159v45h-159v48zM326 639h-31
l-114 126h57l43 -48c20 -23 29 -38 29 -38h2s9 15 29 38l42 48h58z" />
    <glyph glyph-name="Gcommaturnedabove" unicode="&#xe107;" horiz-adv-x="594" 
d="M315 288h212v-288h-46l-7 101c-21 -69 -92 -110 -171 -110c-153 0 -255 106 -255 302c0 197 108 305 264 305c106 0 174 -45 210 -140l-47 -23c-28 78 -86 118 -166 118c-131 0 -206 -99 -206 -260c0 -156 70 -257 202 -257c86 0 169 44 169 159v45h-159v48zM259 713
c0 58 32 87 95 87v-26c-36 -1 -56 -13 -57 -47c0 -4 1 -7 2 -9c3 3 8 5 13 5c20 0 32 -15 32 -33c0 -22 -15 -36 -38 -36c-24 0 -47 21 -47 59z" />
    <glyph glyph-name="Gcommaaccent" unicode="&#x122;" horiz-adv-x="594" 
d="M315 288h212v-288h-46l-7 101c-21 -69 -92 -110 -171 -110c-153 0 -255 106 -255 302c0 197 108 305 264 305c106 0 174 -45 210 -140l-47 -23c-28 78 -86 118 -166 118c-131 0 -206 -99 -206 -260c0 -156 70 -257 202 -257c86 0 169 44 169 159v45h-159v48zM368 -145
c0 -59 -32 -87 -95 -87v26c36 1 56 12 57 47c0 3 -1 6 -2 8c-3 -2 -8 -4 -13 -4c-20 0 -33 14 -33 33c0 22 16 36 39 36c24 0 47 -21 47 -59z" />
    <glyph glyph-name="Hcircumflex" unicode="&#x124;" horiz-adv-x="620" 
d="M140 0h-53v589h53v-268h340v268h52v-589h-52v274h-340v-274zM294 767h31l115 -125h-58l-42 47c-20 23 -29 39 -29 39h-2s-9 -16 -29 -39l-42 -47h-58z" />
    <glyph glyph-name="Hcaron" unicode="&#x21e;" horiz-adv-x="620" 
d="M140 0h-53v589h53v-268h340v268h52v-589h-52v274h-340v-274zM325 639h-31l-114 126h58l42 -48c20 -23 29 -38 29 -38h2s9 15 29 38l42 48h58z" />
    <glyph glyph-name="Hdotbelow" unicode="&#x1e24;" horiz-adv-x="620" 
d="M140 0h-53v589h53v-268h340v268h52v-589h-52v274h-340v-274zM272 -139c0 22 16 39 37 39c22 0 39 -17 39 -39c0 -21 -17 -38 -39 -38c-21 0 -37 17 -37 38z" />
    <glyph glyph-name="Hmacronbelow" unicode="&#xe109;" horiz-adv-x="620" 
d="M140 0h-53v589h53v-268h340v268h52v-589h-52v274h-340v-274zM430 -168h-240v41h240v-41z" />
    <glyph glyph-name="Igrave" unicode="&#xcc;" horiz-adv-x="227" 
d="M87 589h53v-589h-53v589zM138 642h-45l-88 121h69z" />
    <glyph glyph-name="Iacute" unicode="&#xcd;" horiz-adv-x="227" 
d="M87 589h53v-589h-53v589zM133 642h-45l64 121h70z" />
    <glyph glyph-name="Icircumflex" unicode="&#xce;" horiz-adv-x="227" 
d="M87 589h53v-589h-53v589zM98 767h31l114 -125h-58l-42 47c-20 23 -29 39 -29 39h-2s-9 -16 -29 -39l-42 -47h-58z" />
    <glyph glyph-name="Idieresis" unicode="&#xcf;" horiz-adv-x="227" 
d="M87 589h53v-589h-53v589zM-11 690c0 21 17 38 38 38c22 0 38 -17 38 -38s-16 -38 -38 -38c-21 0 -38 17 -38 38zM161 689c0 22 17 38 38 38s38 -16 38 -38c0 -21 -17 -38 -38 -38s-38 17 -38 38z" />
    <glyph glyph-name="Itilde" unicode="&#x128;" horiz-adv-x="227" 
d="M87 589h53v-589h-53v589zM182 647c-30 0 -49 15 -72 30c-25 17 -40 29 -62 29c-26 0 -41 -17 -33 -59h-33c-22 58 8 105 61 105c34 0 54 -14 79 -31c24 -18 37 -28 57 -28c25 0 40 17 33 61h35c20 -61 -8 -107 -65 -107z" />
    <glyph glyph-name="Icaron" unicode="&#x1cf;" horiz-adv-x="227" 
d="M87 589h53v-589h-53v589zM129 639h-31l-115 126h58l42 -48c20 -23 29 -38 29 -38h2s9 15 29 38l42 48h58z" />
    <glyph glyph-name="Imacron" unicode="&#x12a;" horiz-adv-x="227" 
d="M87 589h53v-589h-53v589zM224 667h-221v41h221v-41z" />
    <glyph glyph-name="Ibreve" unicode="&#x12c;" horiz-adv-x="227" 
d="M87 589h53v-589h-53v589zM113 638c-75 0 -119 45 -119 123h41c3 -56 27 -83 78 -83c52 0 76 27 79 83h41c0 -78 -44 -123 -120 -123z" />
    <glyph glyph-name="Iinvertedbreve" unicode="&#x20a;" horiz-adv-x="227" 
d="M87 589h53v-589h-53v589zM113 765c76 0 120 -45 120 -123h-41c-3 55 -27 83 -79 83c-51 0 -75 -28 -78 -83h-41c0 78 44 123 119 123z" />
    <glyph glyph-name="Idoublegrave" unicode="&#x208;" horiz-adv-x="227" 
d="M87 589h53v-589h-53v589zM201 642h-39l-93 121h67zM79 642h-40l-99 121h68z" />
    <glyph glyph-name="Idotaccent" unicode="&#x130;" horiz-adv-x="227" 
d="M87 589h53v-589h-53v589zM75 689c0 22 17 39 38 39c22 0 38 -17 38 -39c0 -21 -16 -38 -38 -38c-21 0 -38 17 -38 38z" />
    <glyph glyph-name="Idotbelow" unicode="&#x1eca;" horiz-adv-x="227" 
d="M87 589h53v-589h-53v589zM75 -139c0 22 17 39 38 39c22 0 38 -17 38 -39c0 -21 -16 -38 -38 -38c-21 0 -38 17 -38 38z" />
    <glyph glyph-name="Iogonek" unicode="&#x12e;" horiz-adv-x="227" 
d="M-11 -114c0 64 47 105 98 129v574h53v-589c-50 -14 -103 -49 -103 -108c0 -35 17 -56 50 -56c29 0 48 15 62 38l21 -25c-15 -27 -42 -50 -90 -50c-57 0 -91 32 -91 87z" />
    <glyph glyph-name="Jcircumflex" unicode="&#x134;" horiz-adv-x="426" 
d="M306 589h52v-417c0 -136 -79 -181 -172 -181c-97 0 -150 52 -177 118l43 27c29 -70 69 -100 136 -100c81 0 118 47 118 149v404zM317 767h31l114 -125h-57l-43 47c-20 23 -29 39 -29 39h-2s-9 -16 -29 -39l-42 -47h-58z" />
    <glyph glyph-name="Jcaron" unicode="&#xe10b;" horiz-adv-x="426" 
d="M306 589h52v-417c0 -136 -79 -181 -172 -181c-97 0 -150 52 -177 118l43 27c29 -70 69 -100 136 -100c81 0 118 47 118 149v404zM348 639h-31l-115 126h58l42 -48c20 -23 29 -38 29 -38h2s9 15 29 38l43 48h57z" />
    <glyph glyph-name="Kcaron" unicode="&#x1e8;" horiz-adv-x="500" 
d="M485 0h-66l-229 274h-50v-274h-53v589h53v-268h52l215 268h63l-235 -289zM259 639h-31l-114 126h58l42 -48c20 -23 29 -38 29 -38h2s9 15 29 38l42 48h58z" />
    <glyph glyph-name="Kcommaaccent" unicode="&#x136;" horiz-adv-x="500" 
d="M485 0h-66l-229 274h-50v-274h-53v589h53v-268h52l215 268h63l-235 -289zM297 -145c0 -59 -32 -87 -96 -87v26c36 1 57 12 57 47c0 3 0 6 -1 8c-4 -2 -8 -4 -13 -4c-20 0 -33 14 -33 33c0 22 15 36 39 36s47 -21 47 -59z" />
    <glyph glyph-name="Kcedilla" unicode="&#xe10d;" horiz-adv-x="500" 
d="M485 0h-66l-229 274h-50v-274h-53v589h53v-268h52l215 268h63l-235 -289zM334 -126c0 -54 -41 -79 -92 -79c-41 0 -70 17 -88 40l18 33c18 -25 40 -39 70 -39c29 0 48 13 48 45c0 31 -27 50 -80 52l11 79h30l-8 -51c57 -5 91 -33 91 -80z" />
    <glyph glyph-name="Lacute" unicode="&#x139;" horiz-adv-x="436" 
d="M87 589h53v-543h274v-46h-327v589zM142 642h-45l64 121h70z" />
    <glyph glyph-name="Lcaron" unicode="&#x13d;" horiz-adv-x="436" 
d="M87 589h53v-543h274v-46h-327v589zM365 601l-38 -175h-38l16 175h60z" />
    <glyph glyph-name="Lcommaaccent" unicode="&#x13b;" horiz-adv-x="436" 
d="M87 589h53v-543h274v-46h-327v589zM303 -145c0 -59 -32 -87 -95 -87v26c36 1 56 12 57 47c0 3 -1 6 -2 8c-3 -2 -8 -4 -13 -4c-20 0 -32 14 -32 33c0 22 15 36 38 36c24 0 47 -21 47 -59z" />
    <glyph glyph-name="Lcedilla" unicode="&#xe10f;" horiz-adv-x="436" 
d="M341 -126c0 -54 -41 -79 -93 -79c-41 0 -70 17 -88 40l19 33c18 -25 39 -39 69 -39c29 0 49 13 49 45c0 31 -27 50 -80 52l9 74h-139v589h53v-543h274v-46h-158l-6 -46c57 -5 91 -33 91 -80z" />
    <glyph glyph-name="Ldotbelow" unicode="&#x1e36;" horiz-adv-x="436" 
d="M87 589h53v-543h274v-46h-327v589zM212 -139c0 22 17 39 38 39c22 0 38 -17 38 -39c0 -21 -16 -38 -38 -38c-21 0 -38 17 -38 38z" />
    <glyph glyph-name="uni004C032300AF" unicode="&#x1e38;" horiz-adv-x="436" 
d="M87 589h53v-543h274v-46h-327v589zM212 -139c0 22 17 39 38 39c22 0 38 -17 38 -39c0 -21 -16 -38 -38 -38c-21 0 -38 17 -38 38zM235 667h-222v41h222v-41z" />
    <glyph glyph-name="Ldot" unicode="&#x13f;" horiz-adv-x="436" 
d="M87 589h53v-543h274v-46h-327v589zM265 302c0 24 18 42 42 42s42 -18 42 -42c0 -25 -18 -43 -42 -43s-42 18 -42 43z" />
    <glyph glyph-name="Mmacron" unicode="&#xe111;" horiz-adv-x="703" 
d="M463 667h-222v41h222v-41zM372 147h-41l-145 270c-36 68 -47 105 -47 105h-3s3 -37 3 -108v-414h-52v589h65l172 -327c21 -40 28 -63 28 -63h3s7 23 28 63l171 327h62v-589h-52v414c0 71 3 108 3 108h-3s-11 -37 -47 -105z" />
    <glyph glyph-name="Mcedilla" unicode="&#xe113;" horiz-adv-x="703" 
d="M442 -126c0 -54 -41 -79 -93 -79c-41 0 -70 17 -87 40l18 33c18 -25 39 -39 69 -39s49 13 49 45c0 31 -27 50 -80 52l10 79h31l-8 -51c57 -5 91 -33 91 -80zM372 147h-41l-145 270c-36 68 -47 105 -47 105h-3s3 -37 3 -108v-414h-52v589h65l172 -327
c21 -40 28 -63 28 -63h3s7 23 28 63l171 327h62v-589h-52v414c0 71 3 108 3 108h-3s-11 -37 -47 -105z" />
    <glyph glyph-name="Mdotbelow" unicode="&#x1e42;" horiz-adv-x="703" 
d="M314 -139c0 22 16 39 37 39c22 0 38 -17 38 -39c0 -21 -16 -38 -38 -38c-21 0 -37 17 -37 38zM372 147h-41l-145 270c-36 68 -47 105 -47 105h-3s3 -37 3 -108v-414h-52v589h65l172 -327c21 -40 28 -63 28 -63h3s7 23 28 63l171 327h62v-589h-52v414c0 71 3 108 3 108h-3
s-11 -37 -47 -105z" />
    <glyph glyph-name="Ngrave" unicode="&#x1f8;" horiz-adv-x="629" 
d="M339 642h-45l-88 121h69zM144 589l280 -410c38 -55 66 -109 66 -109h3s-3 58 -3 124v395h52v-589h-56l-281 410c-37 53 -66 109 -66 109h-4s4 -58 4 -124v-395h-52v589h57z" />
    <glyph glyph-name="Nacute" unicode="&#x143;" horiz-adv-x="629" 
d="M334 642h-45l64 121h70zM144 589l280 -410c38 -55 66 -109 66 -109h3s-3 58 -3 124v395h52v-589h-56l-281 410c-37 53 -66 109 -66 109h-4s4 -58 4 -124v-395h-52v589h57z" />
    <glyph glyph-name="Ndieresis" unicode="&#xe115;" horiz-adv-x="629" 
d="M190 690c0 21 17 38 38 38c22 0 38 -17 38 -38s-16 -38 -38 -38c-21 0 -38 17 -38 38zM362 689c0 22 17 38 38 38s38 -16 38 -38c0 -21 -17 -38 -38 -38s-38 17 -38 38zM144 589l280 -410c38 -55 66 -109 66 -109h3s-3 58 -3 124v395h52v-589h-56l-281 410
c-37 53 -66 109 -66 109h-4s4 -58 4 -124v-395h-52v589h57z" />
    <glyph glyph-name="Ntilde" unicode="&#xd1;" horiz-adv-x="629" 
d="M382 647c-30 0 -49 15 -72 30c-25 17 -40 29 -62 29c-26 0 -41 -17 -33 -59h-33c-22 58 8 105 62 105c33 0 53 -14 78 -31c24 -18 37 -28 57 -28c25 0 40 17 33 61h35c20 -61 -7 -107 -65 -107zM144 589l280 -410c38 -55 66 -109 66 -109h3s-3 58 -3 124v395h52v-589h-56
l-281 410c-37 53 -66 109 -66 109h-4s4 -58 4 -124v-395h-52v589h57z" />
    <glyph glyph-name="Ncaron" unicode="&#x147;" horiz-adv-x="629" 
d="M330 639h-31l-115 126h58l42 -48c20 -23 29 -38 29 -38h2s9 15 29 38l43 48h57zM144 589l280 -410c38 -55 66 -109 66 -109h3s-3 58 -3 124v395h52v-589h-56l-281 410c-37 53 -66 109 -66 109h-4s4 -58 4 -124v-395h-52v589h57z" />
    <glyph glyph-name="Nmacron" unicode="&#xe117;" horiz-adv-x="629" 
d="M425 667h-221v41h221v-41zM144 589l280 -410c38 -55 66 -109 66 -109h3s-3 58 -3 124v395h52v-589h-56l-281 410c-37 53 -66 109 -66 109h-4s4 -58 4 -124v-395h-52v589h57z" />
    <glyph glyph-name="Ndotaccent" unicode="&#x1e44;" horiz-adv-x="629" 
d="M276 689c0 22 17 38 38 38c22 0 38 -16 38 -38c0 -21 -16 -38 -38 -38c-21 0 -38 17 -38 38zM144 589l280 -410c38 -55 66 -109 66 -109h3s-3 58 -3 124v395h52v-589h-56l-281 410c-37 53 -66 109 -66 109h-4s4 -58 4 -124v-395h-52v589h57z" />
    <glyph glyph-name="Ncommaaccent" unicode="&#x145;" horiz-adv-x="629" 
d="M367 -145c0 -59 -32 -87 -95 -87v26c36 1 56 12 57 47c0 3 -1 6 -2 8c-3 -2 -8 -4 -13 -4c-20 0 -32 14 -32 33c0 22 15 36 38 36c24 0 47 -21 47 -59zM144 589l280 -410c38 -55 66 -109 66 -109h3s-3 58 -3 124v395h52v-589h-56l-281 410c-37 53 -66 109 -66 109h-4
s4 -58 4 -124v-395h-52v589h57z" />
    <glyph glyph-name="Ncedilla" unicode="&#xe119;" horiz-adv-x="629" 
d="M405 -126c0 -54 -41 -79 -93 -79c-41 0 -70 17 -88 40l19 33c18 -25 39 -39 69 -39c29 0 49 13 49 45c0 31 -27 50 -80 52l10 79h30l-7 -51c57 -5 91 -33 91 -80zM144 589l280 -410c38 -55 66 -109 66 -109h3s-3 58 -3 124v395h52v-589h-56l-281 410
c-37 53 -66 109 -66 109h-4s4 -58 4 -124v-395h-52v589h57z" />
    <glyph glyph-name="Ndotbelow" unicode="&#x1e46;" horiz-adv-x="629" 
d="M276 -139c0 22 17 39 38 39c22 0 38 -17 38 -39c0 -21 -16 -38 -38 -38c-21 0 -38 17 -38 38zM144 589l280 -410c38 -55 66 -109 66 -109h3s-3 58 -3 124v395h52v-589h-56l-281 410c-37 53 -66 109 -66 109h-4s4 -58 4 -124v-395h-52v589h57z" />
    <glyph glyph-name="Ograve" unicode="&#xd2;" horiz-adv-x="608" 
d="M304 -9c-156 0 -256 108 -256 303s100 304 256 304s256 -109 256 -304s-100 -303 -256 -303zM304 552c-131 0 -201 -98 -201 -258s70 -257 201 -257s202 97 202 257s-71 258 -202 258zM329 642h-45l-89 121h70z" />
    <glyph glyph-name="Oacute" unicode="&#xd3;" horiz-adv-x="608" 
d="M304 -9c-156 0 -256 108 -256 303s100 304 256 304s256 -109 256 -304s-100 -303 -256 -303zM304 552c-131 0 -201 -98 -201 -258s70 -257 201 -257s202 97 202 257s-71 258 -202 258zM324 642h-45l64 121h70z" />
    <glyph glyph-name="Ocircumflex" unicode="&#xd4;" horiz-adv-x="608" 
d="M304 -9c-156 0 -256 108 -256 303s100 304 256 304s256 -109 256 -304s-100 -303 -256 -303zM304 552c-131 0 -201 -98 -201 -258s70 -257 201 -257s202 97 202 257s-71 258 -202 258zM289 767h31l114 -125h-58l-42 47c-20 23 -29 39 -29 39h-2s-9 -16 -29 -39l-42 -47
h-58z" />
    <glyph glyph-name="Odieresis" unicode="&#xd6;" horiz-adv-x="608" 
d="M304 -9c-156 0 -256 108 -256 303s100 304 256 304s256 -109 256 -304s-100 -303 -256 -303zM304 552c-131 0 -201 -98 -201 -258s70 -257 201 -257s202 97 202 257s-71 258 -202 258zM180 690c0 21 17 38 38 38c22 0 38 -17 38 -38s-16 -38 -38 -38c-21 0 -38 17 -38 38
zM352 689c0 22 17 38 38 38s38 -16 38 -38c0 -21 -17 -38 -38 -38s-38 17 -38 38z" />
    <glyph glyph-name="Otilde" unicode="&#xd5;" horiz-adv-x="608" 
d="M304 -9c-156 0 -256 108 -256 303s100 304 256 304s256 -109 256 -304s-100 -303 -256 -303zM304 552c-131 0 -201 -98 -201 -258s70 -257 201 -257s202 97 202 257s-71 258 -202 258zM372 647c-30 0 -49 15 -72 30c-25 17 -40 29 -62 29c-26 0 -41 -17 -33 -59h-33
c-22 58 8 105 61 105c34 0 54 -14 79 -31c24 -18 37 -28 57 -28c25 0 40 17 33 61h35c20 -61 -8 -107 -65 -107z" />
    <glyph glyph-name="Ocaron" unicode="&#x1d1;" horiz-adv-x="608" 
d="M304 -9c-156 0 -256 108 -256 303s100 304 256 304s256 -109 256 -304s-100 -303 -256 -303zM304 552c-131 0 -201 -98 -201 -258s70 -257 201 -257s202 97 202 257s-71 258 -202 258zM320 639h-31l-115 126h58l42 -48c20 -23 29 -38 29 -38h2s9 15 29 38l42 48h58z" />
    <glyph glyph-name="Omacron" unicode="&#x14c;" horiz-adv-x="608" 
d="M304 -9c-156 0 -256 108 -256 303s100 304 256 304s256 -109 256 -304s-100 -303 -256 -303zM304 552c-131 0 -201 -98 -201 -258s70 -257 201 -257s202 97 202 257s-71 258 -202 258zM415 667h-221v41h221v-41z" />
    <glyph glyph-name="Obreve" unicode="&#x14e;" horiz-adv-x="608" 
d="M304 -9c-156 0 -256 108 -256 303s100 304 256 304s256 -109 256 -304s-100 -303 -256 -303zM304 552c-131 0 -201 -98 -201 -258s70 -257 201 -257s202 97 202 257s-71 258 -202 258zM304 638c-75 0 -119 45 -119 123h41c3 -56 27 -83 78 -83c52 0 76 27 79 83h41
c0 -78 -44 -123 -120 -123z" />
    <glyph glyph-name="Oinvertedbreve" unicode="&#x20e;" horiz-adv-x="608" 
d="M304 -9c-156 0 -256 108 -256 303s100 304 256 304s256 -109 256 -304s-100 -303 -256 -303zM304 552c-131 0 -201 -98 -201 -258s70 -257 201 -257s202 97 202 257s-71 258 -202 258zM304 765c76 0 120 -45 120 -123h-41c-3 55 -27 83 -79 83c-51 0 -75 -28 -78 -83h-41
c0 78 44 123 119 123z" />
    <glyph glyph-name="Ohungarumlaut" unicode="&#x150;" horiz-adv-x="608" 
d="M304 -9c-156 0 -256 108 -256 303s100 304 256 304s256 -109 256 -304s-100 -303 -256 -303zM304 552c-131 0 -201 -98 -201 -258s70 -257 201 -257s202 97 202 257s-71 258 -202 258zM257 642h-39l65 121h67zM380 642h-40l71 121h68z" />
    <glyph glyph-name="Odoublegrave" unicode="&#x20c;" horiz-adv-x="608" 
d="M304 -9c-156 0 -256 108 -256 303s100 304 256 304s256 -109 256 -304s-100 -303 -256 -303zM304 552c-131 0 -201 -98 -201 -258s70 -257 201 -257s202 97 202 257s-71 258 -202 258zM392 642h-39l-93 121h67zM270 642h-40l-99 121h68z" />
    <glyph glyph-name="Ocommaturnedabove" unicode="&#xe11b;" horiz-adv-x="608" 
d="M304 -9c-156 0 -256 108 -256 303s100 304 256 304s256 -109 256 -304s-100 -303 -256 -303zM304 552c-131 0 -201 -98 -201 -258s70 -257 201 -257s202 97 202 257s-71 258 -202 258zM256 713c0 58 32 87 95 87v-26c-36 -1 -56 -13 -57 -47c0 -4 1 -7 1 -9c4 3 9 5 14 5
c20 0 32 -15 32 -33c0 -22 -15 -36 -38 -36c-24 0 -47 21 -47 59z" />
    <glyph glyph-name="Otildemacron" unicode="&#x22c;" horiz-adv-x="608" 
d="M304 -9c-156 0 -256 108 -256 303s100 304 256 304s256 -109 256 -304s-100 -303 -256 -303zM304 552c-131 0 -201 -98 -201 -258s70 -257 201 -257s202 97 202 257s-71 258 -202 258zM372 618c-30 0 -49 14 -72 29c-25 17 -40 29 -62 29c-26 0 -41 -17 -33 -59h-33
c-22 59 8 106 61 106c34 0 54 -15 79 -32c24 -18 37 -28 57 -28c25 0 40 17 33 61h35c20 -61 -8 -106 -65 -106zM417 762h-222v41h222v-41z" />
    <glyph glyph-name="Odotabove" unicode="&#x22e;" horiz-adv-x="608" 
d="M304 -9c-156 0 -256 108 -256 303s100 304 256 304s256 -109 256 -304s-100 -303 -256 -303zM304 552c-131 0 -201 -98 -201 -258s70 -257 201 -257s202 97 202 257s-71 258 -202 258zM266 689c0 22 17 39 38 39c22 0 38 -17 38 -39c0 -21 -16 -38 -38 -38
c-21 0 -38 17 -38 38z" />
    <glyph glyph-name="uni004F02D900AF" unicode="&#xe11d;" horiz-adv-x="608" 
d="M304 -9c-156 0 -256 108 -256 303s100 304 256 304s256 -109 256 -304s-100 -303 -256 -303zM304 552c-131 0 -201 -98 -201 -258s70 -257 201 -257s202 97 202 257s-71 258 -202 258zM266 676c0 22 17 38 38 38c22 0 38 -16 38 -38c0 -21 -16 -38 -38 -38
c-21 0 -38 17 -38 38zM415 753h-221v41h221v-41z" />
    <glyph glyph-name="Ocedilla" unicode="&#xe11f;" horiz-adv-x="608" 
d="M395 -126c0 -54 -41 -79 -93 -79c-41 0 -70 17 -88 40l19 33c18 -25 39 -39 69 -39c29 0 49 13 49 45c0 31 -27 50 -81 52l9 66c-142 11 -231 118 -231 302c0 195 100 304 256 304s256 -109 256 -304c0 -193 -97 -300 -251 -303l-5 -37c57 -5 91 -33 91 -80zM304 552
c-131 0 -201 -98 -201 -258s70 -257 201 -257s202 97 202 257s-71 258 -202 258z" />
    <glyph glyph-name="Odotbelow" unicode="&#x1ecc;" horiz-adv-x="608" 
d="M304 -9c-156 0 -256 108 -256 303s100 304 256 304s256 -109 256 -304s-100 -303 -256 -303zM304 552c-131 0 -201 -98 -201 -258s70 -257 201 -257s202 97 202 257s-71 258 -202 258zM266 -139c0 22 17 39 38 39c22 0 38 -17 38 -39c0 -21 -16 -38 -38 -38
c-21 0 -38 17 -38 38z" />
    <glyph glyph-name="Oogonek" unicode="&#x1ea;" horiz-adv-x="608" 
d="M229 -114c0 45 25 81 59 108c-11 1 -21 2 -32 4c-129 18 -208 122 -208 296c0 195 100 304 256 304s256 -109 256 -304c0 -174 -80 -279 -208 -298c-41 -22 -75 -58 -75 -104c0 -35 18 -56 50 -56c29 0 48 15 62 38l22 -25c-16 -27 -42 -50 -91 -50c-56 0 -91 32 -91 87z
M304 552c-131 0 -201 -98 -201 -258s70 -257 201 -257s202 97 202 257s-71 258 -202 258z" />
    <glyph glyph-name="uni004F02DB00AF" unicode="&#x1ec;" horiz-adv-x="608" 
d="M216 -114c0 46 24 81 59 107l-24 6c-126 21 -203 124 -203 295c0 195 100 304 256 304s256 -109 256 -304c0 -182 -87 -289 -226 -301c-40 -22 -70 -56 -70 -101c0 -35 17 -56 49 -56c30 0 49 15 63 38l21 -25c-15 -27 -42 -50 -90 -50c-57 0 -91 32 -91 87zM304 552
c-131 0 -201 -98 -201 -258s70 -257 201 -257s202 97 202 257s-71 258 -202 258zM415 667h-221v41h221v-41z" />
    <glyph glyph-name="Ounderlineaccent" unicode="&#xe121;" horiz-adv-x="608" 
d="M304 -9c-156 0 -256 108 -256 303s100 304 256 304s256 -109 256 -304s-100 -303 -256 -303zM304 552c-131 0 -201 -98 -201 -258s70 -257 201 -257s202 97 202 257s-71 258 -202 258zM326 -196l-42 -2v143h42v-141z" />
    <glyph glyph-name="Oslashacute" unicode="&#x1fe;" horiz-adv-x="608" 
d="M67 -10l-30 27l65 74c-35 50 -54 118 -54 203c0 195 100 304 256 304c73 0 133 -24 177 -68l58 66l31 -28l-62 -73c34 -50 52 -117 52 -201c0 -195 -100 -303 -256 -303c-73 0 -133 23 -177 68zM304 552c-131 0 -200 -98 -200 -258c0 -65 12 -119 35 -161l308 357
c-34 40 -82 62 -143 62zM504 294c0 64 -12 118 -35 159l-307 -356c33 -39 81 -60 142 -60c131 0 200 97 200 257zM324 642h-45l64 121h70z" />
    <glyph glyph-name="Pmacron" unicode="&#xe123;" horiz-adv-x="475" 
d="M140 544v-268h104c105 0 146 47 146 137c0 85 -46 131 -147 131h-103zM140 0h-53v589h158c140 0 200 -64 200 -174c0 -118 -65 -183 -196 -183h-109v-232zM351 667h-222v41h222v-41z" />
    <glyph glyph-name="Racute" unicode="&#x154;" horiz-adv-x="530" 
d="M494 0h-58c-14 16 -21 30 -28 59l-24 105c-17 71 -57 95 -133 95h-111v-259h-53v589h182c133 0 193 -58 193 -162c0 -93 -64 -143 -137 -147v-2c58 -6 91 -33 108 -99l28 -114c7 -27 18 -48 33 -65zM140 544v-240h128c93 0 139 41 139 120c0 78 -44 120 -139 120h-128z
M275 642h-45l64 121h70z" />
    <glyph glyph-name="Rcaron" unicode="&#x158;" horiz-adv-x="530" 
d="M494 0h-58c-14 16 -21 30 -28 59l-24 105c-17 71 -57 95 -133 95h-111v-259h-53v589h182c133 0 193 -58 193 -162c0 -93 -64 -143 -137 -147v-2c58 -6 91 -33 108 -99l28 -114c7 -27 18 -48 33 -65zM140 544v-240h128c93 0 139 41 139 120c0 78 -44 120 -139 120h-128z
M266 639h-31l-115 126h58l42 -48c20 -23 29 -38 29 -38h2s9 15 29 38l42 48h58z" />
    <glyph glyph-name="Rinvertedbreve" unicode="&#x212;" horiz-adv-x="530" 
d="M494 0h-58c-14 16 -21 30 -28 59l-24 105c-17 71 -57 95 -133 95h-111v-259h-53v589h182c133 0 193 -58 193 -162c0 -93 -64 -143 -137 -147v-2c58 -6 91 -33 108 -99l28 -114c7 -27 18 -48 33 -65zM140 544v-240h128c93 0 139 41 139 120c0 78 -44 120 -139 120h-128z
M250 765c76 0 120 -45 120 -123h-41c-3 55 -27 83 -79 83c-51 0 -75 -28 -78 -83h-42c0 78 45 123 120 123z" />
    <glyph glyph-name="Rdoublegrave" unicode="&#xe125;" horiz-adv-x="530" 
d="M494 0h-58c-14 16 -21 30 -28 59l-24 105c-17 71 -57 95 -133 95h-111v-259h-53v589h182c133 0 193 -58 193 -162c0 -93 -64 -143 -137 -147v-2c58 -6 91 -33 108 -99l28 -114c7 -27 18 -48 33 -65zM140 544v-240h128c93 0 139 41 139 120c0 78 -44 120 -139 120h-128z
M342 642h-38l-94 121h67zM220 642h-39l-99 121h67z" />
    <glyph glyph-name="Rcommaaccent" unicode="&#x156;" horiz-adv-x="530" 
d="M494 0h-58c-14 16 -21 30 -28 59l-24 105c-17 71 -57 95 -133 95h-111v-259h-53v589h182c133 0 193 -58 193 -162c0 -93 -64 -143 -137 -147v-2c58 -6 91 -33 108 -99l28 -114c7 -27 18 -48 33 -65zM140 544v-240h128c93 0 139 41 139 120c0 78 -44 120 -139 120h-128z
M308 -145c0 -59 -33 -87 -96 -87v26c36 1 57 12 57 47c0 3 0 6 -1 8c-4 -2 -8 -4 -14 -4c-19 0 -32 14 -32 33c0 22 15 36 39 36c23 0 47 -21 47 -59z" />
    <glyph glyph-name="Rcedilla" unicode="&#xe127;" horiz-adv-x="530" 
d="M494 0h-58c-14 16 -21 30 -28 59l-24 105c-17 71 -57 95 -133 95h-111v-259h-53v589h182c133 0 193 -58 193 -162c0 -93 -64 -143 -137 -147v-2c58 -6 91 -33 108 -99l28 -114c7 -27 18 -48 33 -65zM140 544v-240h128c93 0 139 41 139 120c0 78 -44 120 -139 120h-128z
M345 -126c0 -54 -41 -79 -93 -79c-41 0 -70 17 -87 40l18 33c18 -25 39 -39 69 -39s49 13 49 45c0 31 -27 50 -80 52l10 79h31l-8 -51c57 -5 91 -33 91 -80z" />
    <glyph glyph-name="Rdotbelow" unicode="&#x1e5a;" horiz-adv-x="530" 
d="M494 0h-58c-14 16 -21 30 -28 59l-24 105c-17 71 -57 95 -133 95h-111v-259h-53v589h182c133 0 193 -58 193 -162c0 -93 -64 -143 -137 -147v-2c58 -6 91 -33 108 -99l28 -114c7 -27 18 -48 33 -65zM140 544v-240h128c93 0 139 41 139 120c0 78 -44 120 -139 120h-128z
M217 -139c0 22 16 39 37 39c22 0 39 -17 39 -39c0 -21 -17 -38 -39 -38c-21 0 -37 17 -37 38z" />
    <glyph glyph-name="Rdotbelowmacron" unicode="&#x1e5c;" horiz-adv-x="530" 
d="M494 0h-58c-14 16 -21 30 -28 59l-24 105c-17 71 -57 95 -133 95h-111v-259h-53v589h182c133 0 193 -58 193 -162c0 -93 -64 -143 -137 -147v-2c58 -6 91 -33 108 -99l28 -114c7 -27 18 -48 33 -65zM140 544v-240h128c93 0 139 41 139 120c0 78 -44 120 -139 120h-128z
M217 -139c0 22 16 39 37 39c22 0 39 -17 39 -39c0 -21 -17 -38 -39 -38c-21 0 -37 17 -37 38zM360 667h-221v41h221v-41z" />
    <glyph glyph-name="Sacute" unicode="&#x15a;" horiz-adv-x="465" 
d="M31 148l50 10c14 -85 67 -125 147 -125c83 0 137 37 137 111c0 70 -40 100 -143 134c-88 28 -171 58 -171 165c0 115 88 156 175 156c103 0 176 -43 188 -155l-51 -8c-11 82 -59 120 -136 120c-71 0 -124 -34 -124 -109c0 -74 55 -95 150 -126c92 -30 165 -66 165 -171
c0 -107 -81 -159 -191 -159c-112 0 -180 51 -196 157zM254 642h-45l64 121h70z" />
    <glyph glyph-name="Scircumflex" unicode="&#x15c;" horiz-adv-x="465" 
d="M31 148l50 10c14 -85 67 -125 147 -125c83 0 137 37 137 111c0 70 -40 100 -143 134c-88 28 -171 58 -171 165c0 115 88 156 175 156c103 0 176 -43 188 -155l-51 -8c-11 82 -59 120 -136 120c-71 0 -124 -34 -124 -109c0 -74 55 -95 150 -126c92 -30 165 -66 165 -171
c0 -107 -81 -159 -191 -159c-112 0 -180 51 -196 157zM218 767h31l115 -125h-58l-42 47c-20 23 -29 39 -29 39h-2s-9 -16 -29 -39l-43 -47h-57z" />
    <glyph glyph-name="Scaron" unicode="&#x160;" horiz-adv-x="465" 
d="M31 148l50 10c14 -85 67 -125 147 -125c83 0 137 37 137 111c0 70 -40 100 -143 134c-88 28 -171 58 -171 165c0 115 88 156 175 156c103 0 176 -43 188 -155l-51 -8c-11 82 -59 120 -136 120c-71 0 -124 -34 -124 -109c0 -74 55 -95 150 -126c92 -30 165 -66 165 -171
c0 -107 -81 -159 -191 -159c-112 0 -180 51 -196 157zM249 639h-31l-114 126h57l43 -48c20 -23 29 -38 29 -38h2s9 15 29 38l42 48h58z" />
    <glyph glyph-name="Scommaaccent" unicode="&#x218;" horiz-adv-x="465" 
d="M31 148l50 10c14 -85 67 -125 147 -125c83 0 137 37 137 111c0 70 -40 100 -143 134c-88 28 -171 58 -171 165c0 115 88 156 175 156c103 0 176 -43 188 -155l-51 -8c-11 82 -59 120 -136 120c-71 0 -124 -34 -124 -109c0 -74 55 -95 150 -126c92 -30 165 -66 165 -171
c0 -107 -81 -159 -191 -159c-112 0 -180 51 -196 157zM287 -145c0 -59 -33 -87 -96 -87v26c36 1 57 12 57 47c0 3 0 6 -1 8c-4 -2 -8 -4 -14 -4c-20 0 -32 14 -32 33c0 22 15 36 39 36c23 0 47 -21 47 -59z" />
    <glyph glyph-name="Scedilla" unicode="&#x15e;" horiz-adv-x="465" 
d="M324 -126c0 -54 -41 -79 -93 -79c-41 0 -70 17 -87 40l18 33c18 -25 39 -39 69 -39s49 13 49 45c0 31 -27 50 -80 52l8 65c-100 6 -162 56 -177 157l50 10c14 -85 67 -125 147 -125c83 0 137 37 137 111c0 70 -40 100 -143 134c-88 28 -171 58 -171 165
c0 115 88 156 175 156c103 0 176 -43 188 -155l-51 -8c-11 82 -59 120 -136 120c-71 0 -124 -34 -124 -109c0 -74 55 -95 150 -126c92 -30 165 -66 165 -171c0 -103 -75 -155 -179 -159l-6 -37c57 -5 91 -33 91 -80z" />
    <glyph glyph-name="Sdotbelow" unicode="&#x1e62;" horiz-adv-x="465" 
d="M31 148l50 10c14 -85 67 -125 147 -125c83 0 137 37 137 111c0 70 -40 100 -143 134c-88 28 -171 58 -171 165c0 115 88 156 175 156c103 0 176 -43 188 -155l-51 -8c-11 82 -59 120 -136 120c-71 0 -124 -34 -124 -109c0 -74 55 -95 150 -126c92 -30 165 -66 165 -171
c0 -107 -81 -159 -191 -159c-112 0 -180 51 -196 157zM196 -139c0 22 16 39 37 39c22 0 38 -17 38 -39c0 -21 -16 -38 -38 -38c-21 0 -37 17 -37 38z" />
    <glyph glyph-name="Tcaron" unicode="&#x164;" horiz-adv-x="465" 
d="M259 0h-53v543h-192v46h437v-46h-192v-543zM247 639h-30l-115 126h58l42 -48c20 -23 29 -38 29 -38h2s9 15 29 38l42 48h58z" />
    <glyph glyph-name="Tcommaaccent" unicode="&#x162;" horiz-adv-x="465" 
d="M259 0h-53v543h-192v46h437v-46h-192v-543zM279 -145c0 -59 -32 -87 -96 -87v26c36 1 57 12 57 47c0 3 0 6 -1 8c-3 -2 -8 -4 -13 -4c-20 0 -33 14 -33 33c0 22 16 36 39 36c24 0 47 -21 47 -59z" />
    <glyph glyph-name="Tcedilla" unicode="&#xe129;" horiz-adv-x="465" 
d="M330 -126c0 -54 -41 -79 -93 -79c-41 0 -70 17 -88 40l19 33c18 -25 39 -39 69 -39c29 0 49 13 49 45c0 31 -27 50 -80 52l9 73l-9 3v541h-192v46h437v-46h-192v-543h-14l-6 -46c57 -5 91 -33 91 -80z" />
    <glyph glyph-name="Tdotbelow" unicode="&#x1e6c;" horiz-adv-x="465" 
d="M259 0h-53v543h-192v46h437v-46h-192v-543zM194 -139c0 22 17 39 38 39c22 0 38 -17 38 -39c0 -21 -16 -38 -38 -38c-21 0 -38 17 -38 38z" />
    <glyph glyph-name="Ugrave" unicode="&#xd9;" horiz-adv-x="574" 
d="M454 589h52v-388c0 -152 -105 -210 -219 -210c-115 0 -219 58 -219 210v388h53v-377c0 -128 74 -177 166 -177s167 49 167 175v379zM312 642h-45l-89 121h70z" />
    <glyph glyph-name="Uacute" unicode="&#xda;" horiz-adv-x="574" 
d="M454 589h52v-388c0 -152 -105 -210 -219 -210c-115 0 -219 58 -219 210v388h53v-377c0 -128 74 -177 166 -177s167 49 167 175v379zM307 642h-45l64 121h70z" />
    <glyph glyph-name="Ucircumflex" unicode="&#xdb;" horiz-adv-x="574" 
d="M454 589h52v-388c0 -152 -105 -210 -219 -210c-115 0 -219 58 -219 210v388h53v-377c0 -128 74 -177 166 -177s167 49 167 175v379zM272 767h30l115 -125h-58l-42 47c-20 23 -29 39 -29 39h-2s-9 -16 -29 -39l-42 -47h-58z" />
    <glyph glyph-name="Udieresis" unicode="&#xdc;" horiz-adv-x="574" 
d="M454 589h52v-388c0 -152 -105 -210 -219 -210c-115 0 -219 58 -219 210v388h53v-377c0 -128 74 -177 166 -177s167 49 167 175v379zM163 690c0 21 17 38 38 38s38 -17 38 -38s-17 -38 -38 -38s-38 17 -38 38zM335 689c0 22 16 38 37 38c22 0 38 -16 38 -38
c0 -21 -16 -38 -38 -38c-21 0 -37 17 -37 38z" />
    <glyph glyph-name="Utilde" unicode="&#x168;" horiz-adv-x="574" 
d="M454 589h52v-388c0 -152 -105 -210 -219 -210c-115 0 -219 58 -219 210v388h53v-377c0 -128 74 -177 166 -177s167 49 167 175v379zM354 647c-29 0 -48 15 -71 30c-25 17 -40 29 -62 29c-26 0 -42 -17 -33 -59h-34c-22 58 9 105 62 105c34 0 54 -14 78 -31
c25 -18 37 -28 58 -28c25 0 40 17 33 61h35c20 -61 -8 -107 -66 -107z" />
    <glyph glyph-name="Uring" unicode="&#x16e;" horiz-adv-x="574" 
d="M454 589h52v-388c0 -152 -105 -210 -219 -210c-115 0 -219 58 -219 210v388h53v-377c0 -128 74 -177 166 -177s167 49 167 175v379zM292 629c-57 0 -89 38 -89 87c0 45 34 84 89 84s89 -39 89 -84c0 -49 -32 -87 -89 -87zM292 773c-36 0 -57 -25 -57 -59
c0 -32 20 -55 57 -55s57 23 57 55c0 34 -21 59 -57 59z" />
    <glyph glyph-name="Ucaron" unicode="&#x1d3;" horiz-adv-x="574" 
d="M454 589h52v-388c0 -152 -105 -210 -219 -210c-115 0 -219 58 -219 210v388h53v-377c0 -128 74 -177 166 -177s167 49 167 175v379zM302 639h-30l-115 126h58l42 -48c20 -23 29 -38 29 -38h2s9 15 29 38l42 48h58z" />
    <glyph glyph-name="Umacron" unicode="&#x16a;" horiz-adv-x="574" 
d="M454 589h52v-388c0 -152 -105 -210 -219 -210c-115 0 -219 58 -219 210v388h53v-377c0 -128 74 -177 166 -177s167 49 167 175v379zM398 667h-222v41h222v-41z" />
    <glyph glyph-name="Ubreve" unicode="&#x16c;" horiz-adv-x="574" 
d="M454 589h52v-388c0 -152 -105 -210 -219 -210c-115 0 -219 58 -219 210v388h53v-377c0 -128 74 -177 166 -177s167 49 167 175v379zM287 638c-76 0 -120 45 -120 123h42c3 -56 27 -83 78 -83c52 0 75 27 78 83h42c0 -78 -44 -123 -120 -123z" />
    <glyph glyph-name="Uinvertedbreve" unicode="&#x216;" horiz-adv-x="574" 
d="M454 589h52v-388c0 -152 -105 -210 -219 -210c-115 0 -219 58 -219 210v388h53v-377c0 -128 74 -177 166 -177s167 49 167 175v379zM287 765c76 0 120 -45 120 -123h-42c-3 55 -26 83 -78 83c-51 0 -75 -28 -78 -83h-42c0 78 44 123 120 123z" />
    <glyph glyph-name="Uhungarumlaut" unicode="&#x170;" horiz-adv-x="574" 
d="M454 589h52v-388c0 -152 -105 -210 -219 -210c-115 0 -219 58 -219 210v388h53v-377c0 -128 74 -177 166 -177s167 49 167 175v379zM239 642h-38l65 121h67zM363 642h-40l71 121h67z" />
    <glyph glyph-name="Udoublegrave" unicode="&#x214;" horiz-adv-x="574" 
d="M454 589h52v-388c0 -152 -105 -210 -219 -210c-115 0 -219 58 -219 210v388h53v-377c0 -128 74 -177 166 -177s167 49 167 175v379zM375 642h-39l-93 121h66zM253 642h-40l-99 121h68z" />
    <glyph glyph-name="Udotbelow" unicode="&#x1ee4;" horiz-adv-x="574" 
d="M454 589h52v-388c0 -152 -105 -210 -219 -210c-115 0 -219 58 -219 210v388h53v-377c0 -128 74 -177 166 -177s167 49 167 175v379zM249 -139c0 22 16 39 37 39c22 0 39 -17 39 -39c0 -21 -17 -38 -39 -38c-21 0 -37 17 -37 38z" />
    <glyph glyph-name="Umacronbelow" unicode="&#xe12b;" horiz-adv-x="574" 
d="M454 589h52v-388c0 -152 -105 -210 -219 -210c-115 0 -219 58 -219 210v388h53v-377c0 -128 74 -177 166 -177s167 49 167 175v379zM407 -168h-240v41h240v-41z" />
    <glyph glyph-name="Uogonek" unicode="&#x172;" horiz-adv-x="574" 
d="M216 -114c0 45 23 81 58 108c-12 1 -25 2 -37 4c-94 13 -169 74 -169 203v388h53v-377c0 -128 74 -177 166 -177s167 49 167 175v379h52v-388c0 -130 -77 -189 -168 -205c-41 -22 -74 -59 -74 -104c0 -35 17 -56 50 -56c29 0 48 15 62 38l21 -25c-15 -27 -42 -50 -90 -50
c-56 0 -91 32 -91 87z" />
    <glyph glyph-name="Wgrave" unicode="&#x1e80;" horiz-adv-x="789" 
d="M420 642h-45l-89 121h70zM426 589l110 -403c24 -89 36 -152 36 -152h4s11 60 36 151l110 404h53l-165 -589h-74l-107 391c-25 90 -33 148 -33 148h-3s-8 -55 -33 -148l-107 -391h-74l-165 589h56l110 -402c25 -92 36 -153 36 -153h3s11 62 36 152l113 403h58z" />
    <glyph glyph-name="Wacute" unicode="&#x1e82;" horiz-adv-x="789" 
d="M415 642h-45l64 121h70zM426 589l110 -403c24 -89 36 -152 36 -152h4s11 60 36 151l110 404h53l-165 -589h-74l-107 391c-25 90 -33 148 -33 148h-3s-8 -55 -33 -148l-107 -391h-74l-165 589h56l110 -402c25 -92 36 -153 36 -153h3s11 62 36 152l113 403h58z" />
    <glyph glyph-name="Wcircumflex" unicode="&#x174;" horiz-adv-x="789" 
d="M379 767h31l115 -125h-58l-42 47c-20 23 -29 39 -29 39h-2s-9 -16 -29 -39l-43 -47h-57zM426 589l110 -403c24 -89 36 -152 36 -152h4s11 60 36 151l110 404h53l-165 -589h-74l-107 391c-25 90 -33 148 -33 148h-3s-8 -55 -33 -148l-107 -391h-74l-165 589h56l110 -402
c25 -92 36 -153 36 -153h3s11 62 36 152l113 403h58z" />
    <glyph glyph-name="Wdieresis" unicode="&#x1e84;" horiz-adv-x="789" 
d="M271 690c0 21 17 38 38 38s38 -17 38 -38s-17 -38 -38 -38s-38 17 -38 38zM442 689c0 22 17 38 38 38c22 0 38 -16 38 -38c0 -21 -16 -38 -38 -38c-21 0 -38 17 -38 38zM426 589l110 -403c24 -89 36 -152 36 -152h4s11 60 36 151l110 404h53l-165 -589h-74l-107 391
c-25 90 -33 148 -33 148h-3s-8 -55 -33 -148l-107 -391h-74l-165 589h56l110 -402c25 -92 36 -153 36 -153h3s11 62 36 152l113 403h58z" />
    <glyph glyph-name="Ygrave" unicode="&#x1ef2;" horiz-adv-x="469" 
d="M74 589l118 -216c36 -66 46 -93 46 -93h3s9 27 44 93l114 216h55l-190 -353v-236h-52v236l-198 353h60zM259 642h-45l-88 121h69z" />
    <glyph glyph-name="Yacute" unicode="&#xdd;" horiz-adv-x="469" 
d="M74 589l118 -216c36 -66 46 -93 46 -93h3s9 27 44 93l114 216h55l-190 -353v-236h-52v236l-198 353h60zM254 642h-45l64 121h70z" />
    <glyph glyph-name="Ycircumflex" unicode="&#x176;" horiz-adv-x="469" 
d="M74 589l118 -216c36 -66 46 -93 46 -93h3s9 27 44 93l114 216h55l-190 -353v-236h-52v236l-198 353h60zM219 767h31l114 -125h-58l-42 47c-20 23 -29 39 -29 39h-2s-9 -16 -29 -39l-42 -47h-58z" />
    <glyph glyph-name="Ydieresis" unicode="&#x178;" horiz-adv-x="469" 
d="M74 589l118 -216c36 -66 46 -93 46 -93h3s9 27 44 93l114 216h55l-190 -353v-236h-52v236l-198 353h60zM110 690c0 21 17 38 38 38c22 0 38 -17 38 -38s-16 -38 -38 -38c-21 0 -38 17 -38 38zM282 689c0 22 17 38 38 38s38 -16 38 -38c0 -21 -17 -38 -38 -38
s-38 17 -38 38z" />
    <glyph glyph-name="Ytilde" unicode="&#x1ef8;" horiz-adv-x="469" 
d="M74 589l118 -216c36 -66 46 -93 46 -93h3s9 27 44 93l114 216h55l-190 -353v-236h-52v236l-198 353h60zM302 647c-30 0 -49 15 -72 30c-25 17 -40 29 -62 29c-26 0 -41 -17 -33 -59h-33c-22 58 8 105 61 105c34 0 54 -14 79 -31c24 -18 37 -28 57 -28c25 0 40 17 33 61
h35c20 -61 -8 -107 -65 -107z" />
    <glyph glyph-name="Ymacron" unicode="&#x232;" horiz-adv-x="469" 
d="M74 589l118 -216c36 -66 46 -93 46 -93h3s9 27 44 93l114 216h55l-190 -353v-236h-52v236l-198 353h60zM345 667h-221v41h221v-41z" />
    <glyph glyph-name="Zacute" unicode="&#x179;" horiz-adv-x="465" 
d="M259 642h-45l64 121h70zM435 553l-290 -433c-32 -49 -52 -73 -52 -73v-3s21 2 84 2h264v-46h-413v31l290 438c33 49 52 73 52 73v3s-21 -2 -84 -2h-247v46h396v-36z" />
    <glyph glyph-name="Zcaron" unicode="&#x17d;" horiz-adv-x="465" 
d="M254 639h-31l-114 126h57l43 -48c20 -23 29 -38 29 -38h2s9 15 29 38l42 48h58zM435 553l-290 -433c-32 -49 -52 -73 -52 -73v-3s21 2 84 2h264v-46h-413v31l290 438c33 49 52 73 52 73v3s-21 -2 -84 -2h-247v46h396v-36z" />
    <glyph glyph-name="Zdotaccent" unicode="&#x17b;" horiz-adv-x="465" 
d="M201 698c0 22 16 38 37 38c22 0 38 -16 38 -38c0 -21 -16 -38 -38 -38c-21 0 -37 17 -37 38zM435 553l-290 -433c-32 -49 -52 -73 -52 -73v-3s21 2 84 2h264v-46h-413v31l290 438c33 49 52 73 52 73v3s-21 -2 -84 -2h-247v46h396v-36z" />
    <glyph glyph-name="Ezhcaron" unicode="&#x1ee;" horiz-adv-x="455" 
d="M135 269l158 201c35 45 59 72 59 72v3s-22 -2 -85 -2h-237v46h388v-36l-229 -287v-4c136 0 244 -73 244 -220c0 -143 -100 -223 -224 -223s-206 64 -217 184l44 12c12 -107 81 -154 173 -154c105 0 174 68 174 181c0 134 -109 188 -248 187v40zM243 639h-31l-115 126h58
l42 -48c20 -23 29 -38 29 -38h2s9 15 29 38l42 48h58z" />
    <glyph glyph-name="Racute.alt" unicode="&#xe142;" horiz-adv-x="512" 
d="M308 258l186 -258h-62l-180 252h-112v-252h-53v589h168c137 0 197 -61 197 -168c0 -98 -63 -152 -144 -163zM140 544v-249h118c92 0 139 41 139 123c0 81 -44 126 -139 126h-118zM253 642h-45l64 121h70z" />
    <glyph glyph-name="Rcaron.alt" unicode="&#xe143;" horiz-adv-x="512" 
d="M308 258l186 -258h-62l-180 252h-112v-252h-53v589h168c137 0 197 -61 197 -168c0 -98 -63 -152 -144 -163zM140 544v-249h118c92 0 139 41 139 123c0 81 -44 126 -139 126h-118zM259 639h-31l-114 126h58l42 -48c20 -23 29 -38 29 -38h2s9 15 29 38l42 48h58z" />
    <glyph glyph-name="Rinvertedbreve.alt" unicode="&#xe144;" horiz-adv-x="512" 
d="M308 258l186 -258h-62l-180 252h-112v-252h-53v589h168c137 0 197 -61 197 -168c0 -98 -63 -152 -144 -163zM140 544v-249h118c92 0 139 41 139 123c0 81 -44 126 -139 126h-118zM240 765c76 0 120 -45 120 -123h-42c-3 55 -27 83 -78 83s-75 -28 -78 -83h-42
c0 78 44 123 120 123z" />
    <glyph glyph-name="Rdoublegrave.alt" unicode="&#xe145;" horiz-adv-x="512" 
d="M308 258l186 -258h-62l-180 252h-112v-252h-53v589h168c137 0 197 -61 197 -168c0 -98 -63 -152 -144 -163zM140 544v-249h118c92 0 139 41 139 123c0 81 -44 126 -139 126h-118zM338 642h-39l-93 121h67zM216 642h-40l-99 121h68z" />
    <glyph glyph-name="Rcommaaccent.alt" unicode="&#xe146;" horiz-adv-x="512" 
d="M308 258l186 -258h-62l-180 252h-112v-252h-53v589h168c137 0 197 -61 197 -168c0 -98 -63 -152 -144 -163zM140 544v-249h118c92 0 139 41 139 123c0 81 -44 126 -139 126h-118zM309 -145c0 -59 -32 -87 -95 -87v26c36 1 56 12 57 47c0 3 -1 6 -2 8c-3 -2 -8 -4 -13 -4
c-20 0 -32 14 -32 33c0 22 15 36 38 36c24 0 47 -21 47 -59z" />
    </font>
</defs>
</svg>
